<?xml version="1.0" standalone="no"?>
<!DOCTYPE svg PUBLIC "-//W3C//DTD SVG 20010904//EN"
 "http://www.w3.org/TR/2001/REC-SVG-20010904/DTD/svg10.dtd">
<svg version="1.0" xmlns="http://www.w3.org/2000/svg"
 width="1280.000000pt" height="874.000000pt" viewBox="0 0 1280.000000 874.000000"
 preserveAspectRatio="xMidYMid meet">
<metadata>
Created by potrace 1.15, written by Peter Selinger 2001-2017
</metadata>
<g transform="translate(0.000000,874.000000) scale(0.100000,-0.100000)"
fill="#000000" stroke="none">
<path d="M4489 8717 c-65 -44 -71 -94 -23 -188 24 -48 55 -81 40 -43 -4 10
-10 42 -13 69 -9 88 50 130 126 90 36 -18 119 -110 149 -164 l24 -42 -29 8
c-15 4 -54 7 -85 7 -98 -1 -122 -48 -74 -149 42 -90 178 -250 321 -375 160
-142 159 -132 -8 69 -98 116 -161 224 -155 264 8 57 107 13 187 -82 192 -231
548 -907 1041 -1979 84 -183 155 -331 157 -329 9 10 -554 1234 -814 1767 -333
684 -539 998 -709 1080 -53 26 -93 25 -135 -3z"/>
<path d="M8152 8714 c-104 -52 -263 -254 -420 -534 -81 -145 -300 -581 -438
-872 -228 -480 -728 -1578 -721 -1584 2 -2 61 124 132 279 556 1217 967 2000
1152 2199 52 55 113 91 146 86 18 -3 22 -9 19 -38 -3 -44 -64 -152 -117 -210
-47 -50 -165 -199 -165 -206 0 -16 82 57 211 185 193 194 277 322 253 388 -14
40 -71 57 -144 45 -30 -6 -57 -8 -59 -6 -12 11 100 152 143 182 102 69 173 18
146 -105 -6 -25 -9 -48 -6 -50 3 -3 18 22 35 56 49 95 39 161 -29 196 -42 22
-79 19 -138 -11z"/>
<path d="M458 7775 c-373 -59 -516 -245 -434 -566 60 -235 228 -523 566 -974
312 -415 583 -734 1355 -1595 470 -524 927 -1075 1290 -1555 132 -175 199
-314 255 -535 24 -93 50 -252 50 -304 0 -38 0 -39 20 -21 30 28 127 176 153
236 38 86 52 157 51 264 -1 100 -11 153 -60 308 -28 91 -31 155 -7 204 57 121
286 52 371 -111 21 -42 26 -64 26 -126 -1 -86 -22 -150 -85 -246 -21 -33 -39
-63 -39 -66 0 -3 19 -2 42 4 142 31 277 177 323 348 9 30 27 159 41 285 36
333 60 433 115 483 31 30 66 28 121 -7 137 -87 136 -242 -3 -428 -22 -29 -35
-53 -29 -53 40 0 204 112 253 173 82 100 96 166 68 314 -28 156 -33 218 -21
308 25 191 125 271 240 192 84 -57 95 -126 37 -239 -19 -37 -33 -68 -31 -68 3
0 23 9 46 21 56 29 129 104 158 164 24 48 25 59 26 250 1 203 7 248 45 350 46
125 138 175 234 129 81 -38 83 -137 6 -290 -26 -52 -45 -94 -43 -94 13 0 105
77 158 132 113 117 126 180 57 269 -61 79 -76 126 -76 244 0 55 5 118 11 139
6 22 10 42 7 44 -7 8 -197 -99 -310 -174 -190 -126 -290 -234 -331 -356 -57
-174 -157 -287 -256 -288 -66 0 -120 98 -98 179 13 48 64 125 101 152 42 29
36 38 -18 28 -113 -21 -239 -77 -314 -140 -59 -49 -106 -138 -125 -236 -8 -43
-18 -172 -23 -288 -5 -115 -12 -219 -16 -230 -13 -33 -37 -55 -60 -55 -36 0
-123 50 -159 91 -48 57 -62 114 -47 196 15 80 32 116 80 167 l36 39 -43 -7
c-60 -9 -112 -37 -154 -84 -61 -68 -68 -106 -66 -372 2 -250 -8 -334 -50 -416
-40 -79 -99 -99 -161 -55 -85 61 -72 193 34 357 25 38 45 73 45 78 0 5 -32 6
-72 3 -207 -16 -308 -116 -308 -304 0 -119 -37 -160 -133 -149 -201 23 -557
352 -669 618 -83 196 -22 315 177 349 129 22 357 -22 440 -85 23 -18 36 -38
41 -63 16 -83 -29 -124 -144 -133 -90 -6 -101 -22 -36 -57 111 -61 260 -69
360 -18 70 36 111 91 144 192 36 109 76 190 144 292 209 314 508 539 803 606
99 23 402 75 618 108 l90 13 -40 12 c-69 19 -314 61 -455 77 -401 44 -729 24
-1000 -64 -53 -17 -165 -67 -250 -111 -327 -171 -527 -260 -665 -295 -33 -8
-114 -22 -180 -30 -292 -36 -402 -7 -562 151 -186 182 -191 333 -15 451 109
73 309 122 419 102 26 -5 82 -25 123 -46 105 -51 251 -196 303 -302 l37 -74 0
40 c0 59 -36 188 -74 268 -94 198 -247 322 -481 390 -156 45 -307 66 -620 85
-295 19 -413 45 -519 115 -55 36 -127 124 -154 188 -32 75 -3 135 81 164 75
26 506 26 682 -1 394 -59 740 -194 1070 -417 298 -202 472 -295 679 -364 211
-71 271 -80 561 -80 229 0 271 3 355 22 179 40 413 123 575 205 125 62 140 86
30 48 -150 -51 -404 -114 -595 -145 -131 -22 -404 -31 -512 -16 -236 31 -457
122 -569 233 -85 85 -86 142 -1 202 58 42 77 74 75 128 -3 61 -40 125 -117
204 -143 144 -358 257 -606 320 -87 22 -135 27 -282 31 -196 6 -291 -1 -658
-52 -343 -47 -391 -50 -545 -30 -176 23 -301 56 -409 109 -148 72 -229 159
-261 281 -19 73 -19 175 -1 219 19 46 75 88 154 117 61 22 81 24 232 23 149 0
173 -3 253 -27 108 -33 203 -80 283 -141 67 -50 91 -80 100 -126 20 -95 -200
-143 -368 -80 -60 22 -170 91 -253 159 -85 70 -97 48 -39 -69 74 -148 212
-246 389 -277 108 -19 425 -12 595 12 375 53 737 37 1099 -50 309 -75 1184
-398 1700 -629 69 -30 127 -54 129 -52 5 6 -233 146 -438 258 -1015 554 -2149
1018 -2981 1222 -182 44 -389 83 -549 101 -153 18 -424 18 -542 0z"/>
<path d="M11790 7775 c-865 -105 -2263 -634 -3565 -1348 -283 -156 -463 -266
-365 -224 19 8 121 52 225 97 518 223 1233 485 1540 565 373 96 688 114 1100
63 234 -30 601 -32 690 -5 150 46 265 140 329 267 58 117 46 139 -39 69 -83
-68 -193 -137 -253 -159 -160 -60 -372 -19 -372 72 0 85 194 219 406 280 68
20 102 23 239 23 141 0 168 -3 226 -23 79 -27 143 -79 160 -129 7 -23 10 -68
6 -121 -10 -167 -96 -282 -271 -367 -234 -112 -516 -144 -851 -96 -82 12 -215
31 -295 43 -114 17 -197 21 -390 22 -236 1 -249 0 -355 -27 -347 -88 -666
-300 -720 -480 -24 -82 -13 -106 95 -196 65 -54 38 -132 -75 -218 -104 -78
-253 -142 -425 -179 -129 -29 -458 -26 -635 4 -158 27 -371 79 -523 127 -63
20 -116 34 -119 31 -17 -17 217 -125 427 -197 254 -86 305 -94 605 -94 232 0
271 3 358 23 286 64 507 168 863 407 288 194 516 298 819 375 244 62 353 74
645 75 222 0 262 -2 307 -18 93 -33 116 -94 69 -185 -60 -116 -144 -188 -265
-226 -93 -30 -184 -42 -396 -56 -333 -21 -493 -45 -658 -96 -256 -80 -429
-265 -497 -528 -11 -44 -20 -97 -20 -119 l0 -40 37 74 c52 106 198 251 303
302 96 47 161 60 250 47 166 -24 323 -100 384 -187 72 -104 36 -227 -107 -367
-160 -158 -278 -189 -567 -151 -243 32 -381 86 -840 325 -234 122 -404 169
-688 192 -246 19 -605 -9 -922 -73 -58 -12 -111 -24 -118 -28 -7 -4 58 -18
145 -30 199 -29 508 -84 593 -106 81 -21 227 -89 311 -145 273 -184 498 -468
589 -743 48 -146 127 -214 262 -224 83 -6 175 13 242 50 65 35 54 51 -36 57
-115 9 -160 50 -144 133 5 25 18 45 41 63 82 62 302 105 436 85 152 -24 225
-97 216 -216 -10 -133 -119 -318 -287 -485 -157 -157 -310 -254 -419 -267 -94
-10 -131 32 -131 150 0 164 -79 262 -238 296 -60 13 -142 15 -142 4 0 -5 20
-39 45 -77 46 -71 78 -146 90 -210 15 -80 -46 -167 -120 -169 -60 -2 -104 59
-133 187 -13 57 -16 119 -14 306 2 266 -5 304 -66 372 -42 47 -94 75 -154 84
l-43 7 36 -39 c47 -50 64 -85 79 -161 23 -118 -24 -213 -132 -267 -61 -30 -89
-33 -110 -8 -27 31 -30 54 -39 267 -13 320 -39 417 -136 512 -68 66 -203 129
-325 152 -55 10 -61 1 -19 -28 37 -27 88 -104 102 -153 20 -76 -35 -178 -96
-178 -97 0 -193 101 -251 264 -51 145 -121 227 -309 361 -88 63 -332 201 -340
193 -2 -2 1 -22 7 -44 6 -21 11 -84 11 -139 0 -117 -15 -165 -73 -240 -22 -28
-43 -65 -46 -82 -9 -46 26 -115 98 -189 54 -57 147 -134 160 -134 2 0 -17 42
-43 94 -77 153 -75 252 6 290 114 54 217 -29 261 -211 15 -62 19 -117 19 -273
0 -186 1 -197 25 -245 29 -60 102 -135 158 -164 23 -12 44 -21 47 -21 3 0 -6
20 -21 45 -40 70 -56 131 -44 176 12 45 65 94 119 110 158 47 236 -187 171
-520 -13 -70 -19 -127 -15 -150 21 -117 121 -233 264 -309 44 -24 81 -41 81
-37 0 3 -17 29 -39 58 -113 152 -135 289 -60 381 34 40 95 76 132 76 31 0 65
-33 87 -84 28 -63 47 -169 74 -421 14 -126 32 -255 41 -285 34 -128 120 -247
220 -306 47 -27 135 -58 143 -49 3 2 -14 33 -37 69 -63 97 -84 158 -85 246 0
62 5 84 26 126 85 163 314 232 371 111 25 -53 21 -112 -18 -238 -83 -271 -68
-442 60 -643 24 -39 60 -89 79 -111 l35 -40 1 40 c0 55 27 213 51 310 55 215
122 355 254 530 398 526 865 1084 1460 1745 854 949 1356 1582 1602 2025 301
540 207 839 -289 920 -113 18 -397 18 -548 0z"/>
<path d="M6151 5855 c0 -5 8 -26 19 -45 11 -19 19 -30 19 -25 0 6 -8 26 -19
45 -11 19 -19 31 -19 25z"/>
<path d="M6210 5721 c0 -6 4 -13 10 -16 6 -3 7 1 4 9 -7 18 -14 21 -14 7z"/>
<path d="M6346 5469 c-14 -11 -33 -34 -41 -49 -37 -73 0 -120 94 -120 99 0
133 39 96 111 -40 75 -98 98 -149 58z"/>
<path d="M6332 5226 c-66 -75 -65 -196 4 -406 l35 -111 -20 -42 c-94 -195 -94
-581 -1 -1302 35 -271 49 -355 60 -355 8 0 29 127 55 335 86 692 85 1137 -5
1315 -18 36 -18 37 17 150 67 223 67 343 -1 415 -27 29 -41 35 -74 35 -33 0
-45 -6 -70 -34z"/>
<path d="M5727 4418 c-339 -354 -552 -603 -673 -788 -54 -83 -291 -580 -277
-580 3 0 18 9 33 20 45 32 133 70 163 70 59 0 103 -86 77 -151 -16 -39 -73
-71 -196 -113 -127 -42 -171 -65 -215 -113 -68 -71 -132 -209 -175 -372 -24
-91 -32 -181 -16 -181 9 0 66 59 144 151 31 36 77 76 101 89 39 21 49 22 72
12 25 -11 27 -17 22 -51 -6 -50 -35 -94 -183 -277 -213 -263 -229 -299 -227
-489 2 -202 56 -393 188 -668 134 -280 168 -387 168 -527 0 -99 -36 -221 -103
-354 -22 -44 -38 -81 -36 -83 5 -5 150 157 207 232 81 105 158 231 214 347 64
134 95 224 129 374 62 276 169 434 293 434 78 0 122 -38 123 -106 0 -42 -27
-91 -91 -166 -38 -45 -34 -56 14 -33 145 68 316 296 387 515 59 185 65 455 16
725 -78 422 -118 945 -97 1264 21 309 71 451 157 451 36 0 87 -37 108 -79 34
-67 27 -186 -20 -323 -13 -39 -22 -73 -20 -75 2 -2 17 13 33 34 79 102 114
195 114 304 1 83 -6 106 -95 314 -30 72 -63 163 -72 203 -10 39 -21 72 -24 72
-9 0 -141 -275 -178 -370 -80 -204 -131 -402 -153 -590 -14 -125 -8 -277 27
-725 31 -387 35 -699 10 -820 -21 -106 -56 -174 -117 -229 -90 -81 -167 -82
-233 -4 -40 47 -59 115 -47 170 21 91 94 152 152 127 61 -24 74 -95 34 -174
-13 -27 -23 -51 -21 -53 3 -2 22 13 44 32 107 97 96 216 -31 340 -115 114
-197 342 -185 516 7 90 51 173 143 267 74 77 69 84 -24 30 -67 -40 -158 -139
-200 -217 -79 -148 -124 -366 -124 -605 0 -174 15 -278 68 -445 35 -111 35
-116 24 -189 -28 -187 -141 -428 -254 -544 -54 -55 -118 -73 -156 -44 -34 26
-80 103 -100 166 -23 76 -28 210 -9 281 42 160 166 209 227 90 38 -76 38 -108
4 -163 -18 -28 -45 -54 -66 -64 -19 -9 -35 -20 -35 -25 0 -19 69 -6 111 20 97
62 130 197 95 394 -77 437 -26 941 127 1243 16 33 91 150 166 260 75 110 144
211 152 225 9 14 24 38 34 54 l19 29 -54 -32 c-145 -86 -259 -120 -296 -90
-79 66 162 474 488 826 47 50 110 124 140 165 70 92 171 249 165 254 -3 3 -88
-82 -190 -188z"/>
<path d="M6880 4607 c0 -14 144 -228 202 -298 29 -36 90 -106 136 -155 168
-184 350 -437 425 -593 47 -96 60 -178 33 -200 -36 -30 -151 4 -294 89 -68 40
-73 50 128 -245 171 -251 202 -304 249 -439 97 -275 128 -723 72 -1051 -23
-135 -27 -255 -9 -306 30 -88 109 -159 176 -159 42 0 40 12 -3 33 -51 24 -98
101 -90 147 19 105 80 163 150 140 100 -33 151 -265 95 -430 -56 -166 -134
-219 -223 -152 -109 81 -243 343 -283 552 -16 83 -15 96 27 228 46 145 62 258
62 427 0 239 -45 457 -124 605 -42 78 -133 177 -200 217 -93 54 -98 47 -24
-30 124 -128 161 -233 136 -392 -25 -163 -90 -304 -178 -391 -90 -87 -123
-179 -94 -257 11 -30 66 -94 92 -108 16 -8 15 -3 -6 43 -14 29 -25 66 -25 81
0 66 59 118 111 98 33 -12 87 -74 95 -109 3 -15 7 -33 10 -40 9 -32 -19 -116
-53 -153 -68 -75 -143 -73 -232 7 -61 55 -96 123 -117 229 -25 125 -21 425 12
830 17 220 27 412 27 545 1 185 -2 217 -26 333 -28 133 -77 295 -129 427 -35
91 -169 370 -177 370 -4 0 -16 -37 -27 -82 -12 -46 -52 -152 -88 -237 -36 -85
-70 -179 -75 -210 -17 -107 13 -220 87 -328 44 -65 71 -92 58 -57 -57 146 -76
319 -43 380 41 78 121 108 165 61 140 -148 144 -931 10 -1667 -29 -159 -32
-193 -33 -380 0 -184 2 -214 24 -295 49 -186 139 -352 256 -470 63 -64 134
-117 173 -129 33 -11 27 6 -22 60 -55 63 -76 104 -76 151 1 65 46 103 123 103
121 0 228 -153 287 -410 65 -285 173 -516 349 -745 54 -70 202 -238 206 -233
2 2 -14 39 -36 83 -68 138 -102 257 -102 355 0 140 33 243 176 545 126 267
178 452 180 650 1 63 -4 133 -12 163 -17 67 -79 162 -215 327 -135 165 -177
227 -183 275 -5 35 -3 41 22 52 23 10 33 9 72 -12 24 -13 70 -53 101 -89 78
-92 135 -151 144 -151 16 0 8 90 -16 181 -43 163 -107 301 -175 372 -44 48
-88 71 -215 113 -123 42 -180 74 -196 113 -26 65 18 151 77 151 30 0 118 -38
163 -70 15 -11 30 -20 33 -20 8 0 -212 478 -246 534 -79 130 -240 331 -457
571 -160 176 -439 463 -440 452z"/>
</g>
</svg>
