<?xml version="1.0" encoding="UTF-8" ?>
<!DOCTYPE svg PUBLIC "-//W3C//DTD SVG 1.1//EN" "http://www.w3.org/Graphics/SVG/1.1/DTD/svg11.dtd">
<svg width="943pt" height="1089pt" viewBox="0 0 943 1089" version="1.1" xmlns="http://www.w3.org/2000/svg">
<path fill="#000000" opacity="1.00" d=" M 471.04 0.00 L 471.96 0.00 C 500.92 118.59 535.10 235.72 564.81 354.17 C 567.43 359.85 567.24 374.78 577.20 371.40 C 636.00 357.12 693.55 338.65 752.34 324.47 C 815.58 305.84 880.18 291.68 943.00 271.48 L 943.00 273.25 C 854.50 357.63 769.42 446.22 681.71 531.73 C 676.68 537.39 664.21 545.44 676.28 551.68 C 765.58 639.25 852.63 729.49 943.00 815.65 L 943.00 817.48 C 822.15 782.28 700.01 751.70 578.69 717.86 C 568.20 713.42 567.28 727.20 565.11 734.12 C 534.92 852.71 501.40 970.45 471.80 1089.00 L 470.88 1089.00 C 442.35 970.59 407.92 853.82 378.40 735.62 C 375.60 729.89 376.07 714.23 365.80 717.60 C 306.99 731.88 249.45 750.35 190.66 764.53 C 127.42 783.16 62.82 797.32 0.00 817.52 L 0.00 815.75 C 88.50 731.37 173.58 642.78 261.29 557.27 C 266.32 551.61 278.78 543.56 266.72 537.32 C 177.42 449.74 90.36 359.51 0.00 273.34 L 0.00 271.52 C 62.85 291.62 127.41 305.86 190.66 324.47 C 249.45 338.65 306.99 357.12 365.80 371.40 C 375.76 374.78 375.57 359.85 378.19 354.17 C 407.90 235.72 442.08 118.59 471.04 0.00 M 471.17 40.10 C 441.57 154.47 409.19 269.00 379.65 383.78 C 265.07 354.37 150.21 323.43 36.20 292.21 C 36.27 298.79 45.12 300.48 48.36 305.65 C 127.71 385.32 206.96 465.07 286.93 544.13 C 206.15 625.55 124.66 706.37 43.85 787.80 C 41.30 790.68 35.33 792.32 36.24 796.77 C 150.00 765.56 265.13 734.59 379.65 705.22 C 408.96 820.03 441.96 934.23 471.02 1048.97 C 476.36 1044.31 472.68 1034.80 476.83 1028.79 C 505.66 920.92 535.31 813.33 563.35 705.22 C 677.93 734.63 792.79 765.57 906.80 796.79 C 906.73 790.20 897.88 788.51 894.64 783.35 C 815.29 703.68 736.04 623.93 656.07 544.87 C 736.85 463.45 818.34 382.63 899.15 301.20 C 901.69 298.32 907.66 296.67 906.76 292.23 C 793.00 323.44 677.87 354.41 563.35 383.78 C 533.54 269.33 501.79 152.97 471.17 40.10 Z" />
<path fill="#000000" opacity="1.00" d=" M 471.13 117.18 C 481.34 131.83 489.66 149.55 493.19 167.73 C 505.02 188.37 499.39 227.96 469.45 227.48 C 442.01 223.26 438.99 186.86 450.07 166.99 C 453.12 148.82 462.08 132.85 471.13 117.18 M 471.14 128.08 C 455.77 152.83 445.94 183.26 452.52 212.31 C 458.81 227.29 484.98 227.19 490.64 211.74 C 496.50 183.10 487.53 151.28 471.14 128.08 Z" />
<path fill="#000000" opacity="1.00" d=" M 471.13 140.11 C 481.80 161.65 497.64 198.03 473.94 217.07 C 461.91 218.58 456.10 200.94 456.53 190.93 C 457.88 173.21 463.52 156.08 471.13 140.11 M 471.13 148.34 C 464.88 163.49 460.31 179.48 459.21 195.77 C 460.40 203.06 462.89 213.02 471.86 213.54 C 480.35 212.34 482.49 203.00 483.80 195.94 C 482.25 179.79 478.79 162.01 471.13 148.34 Z" />
<path fill="#000000" opacity="1.00" d=" M 471.15 182.30 C 481.07 186.31 482.84 206.80 471.16 209.64 C 460.44 205.53 462.14 187.62 471.15 182.30 M 471.13 187.08 C 468.02 192.10 462.78 201.62 469.68 205.55 C 480.92 207.12 476.48 191.14 471.13 187.08 Z" />
<path fill="#000000" opacity="1.00" d=" M 444.15 231.56 C 460.68 233.12 478.06 231.23 494.47 232.37 C 499.14 230.63 505.25 232.24 507.79 236.67 C 510.90 247.09 495.04 244.39 494.60 253.81 C 487.45 252.22 476.78 250.71 476.27 260.71 C 485.36 260.13 495.48 254.08 504.04 259.84 C 522.98 270.23 526.29 293.23 532.26 311.81 C 539.41 356.60 519.57 400.94 528.23 445.60 C 571.81 432.08 600.59 391.05 643.35 375.39 C 662.42 371.81 683.63 362.55 701.89 374.00 C 711.07 378.57 710.47 391.11 715.13 397.84 C 722.82 394.03 716.58 383.48 710.91 379.07 C 720.75 375.14 708.80 361.61 719.56 359.51 C 729.47 358.46 729.03 371.33 735.94 375.21 C 739.65 392.04 757.13 403.46 756.73 420.65 C 750.75 431.45 742.86 414.20 734.99 419.81 C 731.25 413.69 731.76 402.47 720.70 406.35 C 723.01 413.66 735.43 420.23 734.16 430.40 C 734.80 452.29 716.03 466.22 703.15 481.15 C 667.78 509.71 618.88 514.48 585.00 544.90 C 620.02 574.11 668.23 579.78 703.69 608.32 C 715.75 622.36 733.00 635.02 733.98 655.16 C 736.94 666.58 725.11 674.42 720.40 681.98 C 730.89 687.40 731.58 675.39 734.99 669.19 C 742.57 674.94 749.52 658.68 755.81 667.20 C 762.07 674.92 749.34 681.45 749.87 689.51 C 739.82 697.04 739.62 711.02 730.91 719.02 C 730.11 726.75 719.43 734.25 714.25 725.66 C 715.55 720.22 716.87 713.17 710.97 709.93 C 717.48 706.69 723.08 693.07 714.21 691.15 C 712.46 702.28 707.30 714.89 695.43 718.42 C 677.95 724.07 660.38 716.95 643.35 713.62 C 600.67 697.90 571.86 657.07 528.34 643.52 C 519.40 688.12 539.21 732.57 532.49 777.35 C 525.91 794.98 523.48 817.05 505.95 828.05 C 497.15 835.29 485.97 829.42 476.28 828.29 C 476.73 838.07 487.59 836.86 494.59 835.21 C 495.21 844.69 514.11 843.13 506.38 854.30 C 491.00 861.44 472.82 853.36 456.17 857.96 C 449.59 854.32 440.63 860.64 435.60 853.03 C 430.98 842.09 447.96 844.77 448.40 835.19 C 455.55 836.78 466.21 838.29 466.73 828.29 C 457.00 829.23 445.88 835.31 437.07 828.07 C 419.78 817.03 416.49 795.13 410.74 777.19 C 403.58 732.40 423.43 688.06 414.77 643.40 C 371.19 656.92 342.41 697.95 299.65 713.61 C 280.58 717.19 259.37 726.45 241.11 715.00 C 231.93 710.43 232.52 697.88 227.87 691.16 C 220.18 694.96 226.42 705.52 232.09 709.93 C 222.25 713.86 234.20 727.39 223.44 729.49 C 213.53 730.54 213.97 717.67 207.06 713.79 C 203.35 696.96 185.87 685.54 186.27 668.35 C 192.25 657.55 200.14 674.80 208.01 669.19 C 211.75 675.31 211.24 686.52 222.30 682.65 C 219.99 675.34 207.57 668.76 208.84 658.60 C 208.19 636.71 226.97 622.78 239.85 607.85 C 275.21 579.29 324.12 574.52 358.00 544.10 C 322.98 514.89 274.77 509.22 239.31 480.68 C 227.25 466.64 210.00 453.98 209.02 433.84 C 206.05 422.42 217.88 414.58 222.60 407.02 C 212.11 401.60 211.42 413.60 208.01 419.81 C 200.43 414.06 193.48 430.32 187.19 421.80 C 180.93 414.08 193.65 407.54 193.13 399.49 C 203.18 391.96 203.38 377.98 212.09 369.98 C 212.88 362.25 223.57 354.74 228.75 363.34 C 227.44 368.77 226.13 375.83 232.03 379.07 C 225.52 382.31 219.91 395.93 228.79 397.85 C 230.54 386.71 235.70 374.11 247.57 370.58 C 265.05 364.93 282.62 372.04 299.65 375.38 C 342.33 391.10 371.14 431.93 414.66 445.48 C 423.76 400.66 403.32 355.83 410.81 310.92 C 417.21 292.85 420.18 270.12 438.96 259.86 C 447.51 254.08 457.66 259.94 466.72 260.71 C 466.27 250.93 455.41 252.13 448.41 253.79 C 447.84 244.34 432.19 247.15 435.13 236.55 C 436.98 233.42 440.74 232.10 444.15 231.56 M 443.22 234.40 C 431.69 236.75 449.59 250.09 451.29 240.11 C 454.37 234.25 446.90 235.34 443.22 234.40 M 498.34 234.56 C 494.78 235.35 488.83 234.81 491.72 240.12 C 494.44 251.30 512.05 234.23 498.34 234.56 M 455.34 235.17 C 453.78 240.31 452.43 245.57 452.08 250.96 C 458.14 251.32 460.18 235.74 455.34 235.17 M 485.21 235.15 C 485.75 240.36 483.67 251.09 490.84 250.94 C 489.34 246.35 491.50 235.06 485.21 235.15 M 461.05 236.24 C 454.17 246.06 469.03 257.76 471.85 245.47 C 474.44 259.18 489.02 243.78 481.11 236.17 C 474.54 238.85 467.78 237.44 461.05 236.24 M 447.48 262.65 C 427.00 268.43 421.28 293.17 416.47 311.46 C 409.98 358.90 432.08 406.83 419.61 453.68 C 364.31 441.31 331.37 380.95 273.29 374.88 C 259.26 372.89 240.17 374.12 235.03 390.15 C 230.74 397.39 236.67 404.52 240.01 410.76 C 232.08 410.26 222.38 410.30 218.38 418.63 C 209.12 431.21 217.30 447.45 225.75 458.26 C 261.33 504.35 327.12 504.64 367.77 544.12 C 338.68 574.12 295.08 581.11 260.11 602.11 C 239.89 611.42 222.94 629.49 215.37 650.48 C 209.65 665.60 223.93 683.10 240.09 678.20 C 228.97 689.19 234.23 708.18 248.85 712.89 C 271.73 717.33 296.61 712.02 315.84 698.85 C 351.46 679.58 378.91 643.92 419.61 635.32 C 430.92 675.74 414.19 717.05 415.65 758.09 C 414.50 781.59 421.98 807.24 439.69 823.43 C 451.53 831.20 468.48 825.25 471.84 811.48 C 474.93 827.61 496.94 832.03 506.98 819.97 C 532.65 792.05 528.94 752.14 524.50 717.45 C 520.26 690.34 516.13 662.11 523.39 635.32 C 578.69 647.69 611.63 708.05 669.71 714.12 C 683.74 716.11 702.83 714.88 707.97 698.85 C 712.25 691.60 706.32 684.48 702.99 678.24 C 716.36 681.59 728.82 671.24 728.91 657.71 C 725.84 635.05 707.79 617.28 689.44 605.56 C 652.70 582.68 607.22 575.38 575.23 544.88 C 604.32 514.88 647.92 507.89 682.89 486.89 C 703.11 477.58 720.06 459.51 727.63 438.52 C 733.35 423.40 719.07 405.90 702.91 410.80 C 714.03 399.81 708.77 380.81 694.15 376.11 C 671.27 371.67 646.39 376.98 627.16 390.15 C 591.54 409.42 564.09 445.08 523.39 453.68 C 512.08 413.26 528.81 371.95 527.35 330.91 C 528.52 307.63 521.12 282.30 503.85 266.04 C 492.80 258.11 474.25 262.33 471.84 277.41 C 467.69 269.07 459.24 258.59 447.48 262.65 M 218.64 363.23 C 216.36 366.66 211.00 374.50 218.42 374.71 C 226.45 378.21 226.09 360.17 218.64 363.23 M 720.36 363.17 C 715.82 369.96 720.49 378.76 728.21 373.43 C 728.56 370.25 726.08 361.04 720.36 363.17 M 210.92 376.25 C 212.01 381.48 221.88 384.22 226.95 382.80 C 225.68 376.51 215.25 378.59 210.92 376.25 M 730.41 376.46 C 725.78 378.05 718.23 377.04 716.02 382.03 C 718.78 386.42 735.85 378.51 730.41 376.46 M 209.35 382.24 C 207.51 388.52 204.47 394.29 199.93 399.04 C 204.17 404.11 210.13 408.98 215.85 401.94 C 214.48 397.64 210.48 392.09 219.45 394.63 C 223.44 387.05 215.67 382.44 209.35 382.24 M 730.73 382.58 C 724.82 383.94 719.48 388.99 724.28 394.67 C 736.64 391.48 722.46 401.42 729.75 403.35 C 733.99 408.75 741.72 403.01 742.60 398.40 C 736.24 395.57 737.35 381.56 730.73 382.58 M 196.35 402.37 C 194.42 405.32 203.86 414.41 208.62 413.76 C 209.06 408.20 200.73 402.91 196.35 402.37 M 745.10 402.27 C 740.73 404.43 737.12 407.82 734.02 411.52 C 735.37 419.67 752.48 402.07 745.10 402.27 M 193.44 408.26 C 190.61 410.79 184.77 417.89 191.00 419.92 C 200.48 420.83 203.29 408.42 193.44 408.26 M 747.91 408.21 C 735.05 411.36 751.67 425.08 754.97 416.93 C 754.22 413.53 751.56 408.33 747.91 408.21 M 190.25 669.15 C 184.04 672.78 194.28 686.25 198.38 678.26 C 203.80 673.48 194.10 669.24 190.25 669.15 M 751.08 669.30 C 747.93 670.86 739.98 672.89 744.09 677.76 C 748.39 688.15 760.79 669.46 751.08 669.30 M 205.57 675.25 C 203.60 678.10 190.85 685.12 197.79 687.02 C 200.64 685.89 214.78 675.12 205.57 675.25 M 734.32 675.24 C 734.83 680.79 741.68 686.70 747.36 686.72 C 746.63 681.79 739.55 675.43 734.32 675.24 M 207.46 683.34 C 192.15 688.75 209.07 697.48 209.38 706.74 C 218.42 708.84 226.84 692.42 213.32 694.27 C 216.87 688.66 215.54 683.03 207.46 683.34 M 733.93 683.31 C 719.11 683.03 737.33 697.99 723.54 694.37 C 719.55 701.94 727.33 706.55 733.65 706.76 C 734.96 697.09 750.60 687.10 733.93 683.31 M 224.11 705.48 C 219.73 706.82 212.43 707.49 211.00 711.97 C 213.52 714.23 232.83 708.84 224.11 705.48 M 718.14 705.41 C 711.52 710.00 729.47 713.71 732.00 711.97 C 730.34 707.41 722.79 706.54 718.14 705.41 M 218.42 714.29 C 209.87 713.88 217.86 729.68 223.03 725.13 C 224.64 720.87 225.35 712.12 218.42 714.29 M 721.50 714.25 C 716.81 715.15 718.17 730.18 724.91 725.19 C 728.99 720.32 730.28 712.40 721.50 714.25 M 467.34 837.42 C 459.21 838.87 459.01 846.81 461.89 852.83 C 468.17 850.46 474.67 851.04 481.07 852.77 C 489.31 847.66 476.36 830.36 472.67 841.56 C 470.62 847.21 470.03 836.83 467.34 837.42 M 452.16 838.06 C 453.65 842.64 451.49 853.93 457.79 853.85 C 457.25 848.64 459.32 837.90 452.16 838.06 M 488.40 838.24 C 485.17 842.01 485.25 848.10 485.19 853.02 C 489.69 857.18 493.09 836.87 488.40 838.24 M 446.94 845.28 C 439.44 844.15 435.94 855.69 444.67 854.45 C 452.70 856.54 454.21 846.30 446.94 845.28 M 494.31 845.12 C 486.05 851.65 495.99 856.92 502.53 853.59 C 507.01 848.93 498.20 844.86 494.31 845.12 Z" />
<path fill="#000000" opacity="1.00" d=" M 453.36 266.50 C 461.01 265.31 469.48 274.25 464.79 281.62 C 461.79 286.31 456.70 280.93 452.97 280.28 C 447.88 283.53 455.63 292.80 448.17 294.16 C 440.26 297.84 448.86 306.24 454.88 304.58 C 459.72 308.30 452.69 313.54 452.25 317.73 C 463.42 313.28 470.60 300.41 471.09 288.61 C 473.08 298.74 478.74 313.96 490.75 317.77 C 490.88 313.12 482.96 308.55 488.13 304.58 C 493.66 305.96 502.49 298.88 495.50 294.53 C 488.72 293.32 492.39 286.14 491.79 281.54 C 487.88 277.58 481.84 287.76 478.14 281.58 C 472.44 270.61 487.19 263.09 495.97 267.69 C 514.32 278.36 518.66 301.57 520.54 321.01 C 522.06 368.04 508.38 415.10 519.02 461.81 C 577.34 446.55 614.86 388.36 675.55 379.72 C 688.14 378.10 710.07 384.84 704.15 401.76 C 701.67 411.66 688.73 406.97 691.36 398.06 C 687.14 390.86 682.17 404.88 676.62 399.37 C 668.09 394.28 667.88 405.42 670.65 410.12 C 671.02 416.98 660.31 410.92 658.93 415.68 C 668.32 420.68 679.98 421.28 690.06 417.96 C 682.41 425.58 676.67 435.67 676.94 446.76 C 682.50 447.72 680.53 435.03 687.76 440.00 C 690.87 446.10 702.05 447.53 699.96 438.01 C 699.20 432.29 707.04 434.89 708.84 430.56 C 710.43 425.14 699.72 425.21 702.24 419.44 C 704.33 411.79 714.56 413.97 719.34 417.65 C 726.33 426.81 723.40 440.15 716.73 448.66 C 699.41 476.64 666.33 487.46 638.43 501.46 C 612.61 512.10 588.38 526.23 566.97 544.09 C 600.94 577.19 648.62 588.33 688.26 612.72 C 704.78 624.36 724.32 640.03 723.43 662.30 C 722.90 671.86 710.21 679.48 703.05 671.74 C 699.38 666.43 705.72 663.74 708.95 660.68 C 710.20 653.35 696.73 657.48 700.08 649.02 C 700.32 641.09 690.38 644.35 687.73 648.99 C 680.62 654.19 682.39 640.91 676.97 642.42 C 676.42 653.57 682.86 663.22 690.11 671.05 C 680.02 667.69 668.34 668.32 658.93 673.32 C 660.31 678.05 671.02 672.02 670.65 678.88 C 667.88 683.58 668.09 694.72 676.62 689.63 C 682.36 684.34 685.96 697.04 691.24 691.67 C 690.86 687.14 692.26 681.39 697.81 681.19 C 707.16 684.44 707.32 698.44 699.57 703.65 C 686.15 712.37 668.72 709.60 654.41 704.68 C 605.50 685.58 570.20 641.60 518.97 627.21 C 508.67 673.49 521.55 719.93 520.70 766.46 C 519.11 786.32 514.89 811.49 495.31 821.49 C 487.02 825.41 474.04 819.12 477.51 808.76 C 479.59 802.38 486.13 807.33 490.03 808.72 C 495.11 805.46 487.37 796.20 494.83 794.84 C 502.74 791.15 494.14 782.76 488.12 784.42 C 483.28 780.71 490.30 775.44 490.75 771.27 C 479.58 775.72 472.40 788.59 471.91 800.39 C 469.92 790.26 464.26 775.04 452.25 771.23 C 452.11 775.88 460.03 780.44 454.87 784.42 C 449.34 783.04 440.50 790.11 447.50 794.47 C 454.28 795.68 450.60 802.85 451.21 807.46 C 455.12 811.41 461.16 801.23 464.86 807.42 C 470.56 818.39 455.81 825.91 447.03 821.31 C 428.68 810.64 424.33 787.43 422.46 767.99 C 420.94 720.95 434.62 673.90 423.98 627.19 C 365.66 642.45 328.14 700.64 267.45 709.28 C 254.86 710.90 232.93 704.16 238.85 687.24 C 241.32 677.34 254.27 682.02 251.64 690.94 C 255.86 698.14 260.83 684.12 266.38 689.63 C 274.91 694.72 275.12 683.58 272.35 678.88 C 271.98 672.02 282.66 678.05 284.07 673.32 C 274.67 668.32 263.01 667.71 252.94 671.04 C 260.58 663.42 266.33 653.33 266.06 642.24 C 260.50 641.28 262.47 653.96 255.24 649.00 C 252.12 642.88 240.95 641.47 243.04 650.99 C 243.80 656.71 235.95 654.11 234.16 658.44 C 232.57 663.86 243.27 663.78 240.76 669.56 C 238.66 677.21 228.44 675.03 223.66 671.35 C 216.67 662.19 219.60 648.85 226.27 640.34 C 243.59 612.36 276.67 601.54 304.57 587.54 C 330.39 576.90 354.62 562.77 376.03 544.91 C 342.06 511.81 294.38 500.67 254.74 476.28 C 238.22 464.64 218.68 448.97 219.57 426.70 C 220.10 417.14 232.79 409.52 239.95 417.26 C 243.62 422.57 237.27 425.24 234.05 428.32 C 232.80 435.65 246.26 431.52 242.92 439.98 C 242.67 447.91 252.62 444.65 255.27 440.01 C 262.37 434.80 260.61 448.09 266.03 446.58 C 266.58 435.42 260.13 425.78 252.89 417.95 C 262.97 421.30 274.66 420.68 284.07 415.68 C 282.66 410.92 271.98 416.98 272.35 410.12 C 275.12 405.42 274.91 394.28 266.38 399.37 C 260.63 404.66 257.04 391.95 251.76 397.33 C 252.13 401.86 250.74 407.61 245.19 407.81 C 235.83 404.55 235.68 390.56 243.43 385.35 C 256.85 376.63 274.28 379.40 288.59 384.32 C 337.50 403.42 372.80 447.40 424.03 461.79 C 434.33 415.51 421.45 369.07 422.30 322.54 C 423.98 302.02 428.99 270.83 453.36 266.50 M 454.90 269.27 C 439.76 270.81 434.49 286.97 430.01 299.15 C 416.17 354.88 446.24 412.45 426.99 467.81 C 372.55 456.15 337.78 407.28 286.99 387.98 C 274.17 384.33 259.89 380.68 247.16 386.93 C 242.72 389.63 238.01 396.57 243.22 400.88 C 249.45 401.41 245.31 392.87 250.46 391.44 C 256.34 386.85 260.75 398.06 266.62 393.79 C 274.46 390.56 275.99 403.20 283.53 400.40 C 313.04 400.12 341.25 421.44 350.94 449.01 C 366.37 456.35 367.83 474.52 375.63 486.65 C 372.88 496.01 363.60 486.92 357.81 491.52 C 344.14 497.35 330.74 485.06 316.91 488.82 C 290.46 489.55 262.27 475.26 251.33 450.61 C 244.92 448.79 237.35 446.30 237.69 438.43 C 232.11 436.51 224.27 430.12 231.43 424.58 C 238.36 421.31 229.85 414.70 226.22 420.31 C 217.21 434.62 230.51 448.34 239.15 458.85 C 281.06 497.24 343.98 501.13 382.91 544.11 C 375.54 553.75 364.49 559.74 355.22 567.23 C 313.18 596.63 252.41 600.91 225.39 649.42 C 218.56 656.52 227.26 678.68 234.03 667.26 C 226.38 663.43 228.17 652.61 237.19 651.06 C 238.04 644.08 243.26 639.59 250.72 638.90 C 261.01 615.48 287.31 601.89 312.09 600.08 C 328.45 605.29 344.81 589.51 360.48 598.91 C 366.08 598.45 374.01 595.07 375.90 603.01 C 367.34 615.14 366.26 632.73 350.93 639.98 C 340.71 668.66 310.59 691.03 279.62 688.50 C 275.30 690.18 273.33 697.15 267.35 695.43 C 260.11 690.38 252.98 706.08 247.34 694.21 C 249.66 686.33 237.36 686.91 241.39 695.25 C 249.53 710.95 272.07 704.82 285.49 701.56 C 337.09 682.69 372.04 633.03 426.99 621.15 C 448.09 680.49 410.01 744.51 435.02 802.95 C 438.73 812.28 451.45 825.81 461.26 815.54 C 461.06 808.91 453.19 815.91 449.67 812.44 C 442.47 809.97 450.10 800.14 443.69 797.27 C 436.71 792.49 447.32 782.95 439.70 778.26 C 426.22 753.10 429.77 718.77 449.21 697.46 C 448.61 684.63 455.07 672.61 465.15 665.00 C 464.32 658.77 469.75 653.87 475.45 657.21 C 479.41 670.68 496.24 679.15 493.88 696.03 C 512.29 718.60 517.07 752.36 503.30 778.27 C 496.13 782.97 505.26 790.46 500.54 796.33 C 492.49 799.70 500.78 815.32 488.36 813.34 C 479.45 808.75 481.65 818.54 487.40 819.66 C 502.99 818.87 508.48 802.16 512.99 789.85 C 526.83 734.12 496.75 676.55 516.01 621.19 C 570.45 632.85 605.21 681.72 656.01 701.02 C 668.83 704.66 683.11 708.32 695.84 702.07 C 700.28 699.37 704.98 692.42 699.78 688.12 C 693.54 687.59 697.69 696.13 692.54 697.56 C 686.66 702.14 682.25 690.94 676.38 695.21 C 668.54 698.43 667.01 685.80 659.47 688.60 C 629.96 688.88 601.75 667.56 592.06 639.99 C 576.63 632.65 575.17 614.48 567.37 602.35 C 570.12 592.99 579.40 602.07 585.19 597.48 C 598.86 591.65 612.26 603.94 626.09 600.18 C 652.54 599.44 680.73 613.74 691.67 638.39 C 698.07 640.21 705.65 642.69 705.31 650.57 C 710.89 652.49 718.72 658.88 711.57 664.42 C 704.63 667.69 713.15 674.30 716.78 668.69 C 725.78 654.38 712.49 640.66 703.85 630.15 C 661.94 591.76 599.02 587.87 560.09 544.89 C 567.45 535.25 578.51 529.26 587.78 521.77 C 629.82 492.37 690.59 488.09 717.61 439.58 C 724.43 432.47 715.74 410.32 708.97 421.74 C 716.62 425.56 714.83 436.39 705.81 437.94 C 704.96 444.92 699.73 449.40 692.28 450.10 C 681.99 473.52 655.69 487.11 630.91 488.92 C 614.55 483.71 598.19 499.49 582.52 490.09 C 576.91 490.54 568.99 493.93 567.10 485.99 C 575.65 473.86 576.74 456.27 592.07 449.02 C 602.29 420.34 632.41 397.97 663.38 400.50 C 667.70 398.82 669.67 391.85 675.65 393.57 C 682.89 398.62 690.01 382.91 695.66 394.79 C 693.34 402.67 705.64 402.09 701.61 393.75 C 693.47 378.05 670.93 384.18 657.51 387.44 C 605.91 406.31 570.96 455.97 516.01 467.85 C 494.91 408.51 532.99 344.49 507.98 286.05 C 504.27 276.72 491.55 263.19 481.74 273.46 C 481.93 280.08 489.81 273.08 493.33 276.56 C 500.52 279.03 492.89 288.85 499.31 291.73 C 506.28 296.51 495.67 306.05 503.30 310.74 C 516.78 335.90 513.23 370.23 493.79 391.54 C 494.39 404.37 487.93 416.39 477.85 424.00 C 478.68 430.22 473.25 435.12 467.55 431.79 C 463.59 418.31 446.75 409.85 449.12 392.97 C 430.70 370.40 425.93 336.64 439.70 310.73 C 446.87 306.03 437.73 298.53 442.46 292.67 C 450.60 289.40 442.04 274.57 453.93 275.52 C 462.12 279.75 463.69 270.95 454.90 269.27 M 471.14 303.54 C 469.05 317.34 448.71 322.81 452.58 338.43 C 446.54 342.05 449.47 327.77 445.00 331.90 C 443.42 347.20 445.33 365.88 458.17 375.92 C 466.87 372.60 476.08 372.81 484.84 375.94 C 497.56 365.86 499.79 347.18 497.97 331.91 C 493.07 327.57 496.50 341.93 490.43 338.45 C 493.89 323.06 474.20 316.06 471.14 303.54 M 448.24 307.91 C 432.04 327.95 433.50 358.62 445.11 380.92 C 445.61 384.45 452.92 385.20 450.70 380.60 C 438.17 366.59 439.07 345.46 441.93 327.96 C 444.36 321.88 452.59 313.74 448.24 307.91 M 493.82 307.97 C 491.84 318.17 503.34 325.90 502.60 336.33 C 502.20 350.18 504.25 367.07 493.95 378.08 C 490.39 380.80 492.38 386.28 496.71 382.88 C 509.59 360.50 511.89 327.39 493.82 307.97 M 471.17 379.49 C 445.94 380.72 453.83 413.81 470.95 421.03 C 470.25 415.67 463.73 408.71 468.03 404.24 C 482.00 400.33 474.26 414.68 472.05 421.03 C 489.53 413.67 497.56 380.39 471.17 379.49 M 286.03 404.73 C 281.91 404.16 274.22 407.53 281.87 409.38 C 305.67 408.90 332.41 422.45 340.35 445.84 C 345.58 447.09 344.50 439.70 341.56 437.49 C 328.85 419.60 308.02 406.09 286.03 404.73 M 652.01 404.65 C 632.61 409.29 613.87 419.55 602.43 436.34 C 598.94 438.34 596.72 446.88 602.65 445.85 C 607.14 428.00 625.58 419.17 640.70 411.60 C 648.25 408.87 659.16 413.06 664.81 406.80 C 661.77 404.46 656.15 404.65 652.01 404.65 M 300.14 415.31 C 294.31 417.42 306.56 418.98 303.77 423.64 C 300.37 427.04 297.68 421.27 294.29 420.78 C 283.72 419.70 273.71 426.64 263.11 424.09 C 272.84 433.84 268.32 451.70 282.88 457.45 C 284.60 465.87 267.51 454.09 276.82 463.05 C 289.21 470.36 304.69 477.19 318.92 471.93 C 320.71 463.02 323.48 454.28 331.82 449.41 C 330.38 432.82 314.49 421.45 300.14 415.31 M 642.15 415.44 C 628.85 421.53 615.98 430.95 611.16 445.28 C 609.32 451.48 616.88 452.52 619.17 456.87 C 623.05 461.43 620.75 469.07 625.42 472.83 C 640.86 476.05 656.90 469.90 669.02 460.58 C 668.58 456.64 658.94 465.02 660.13 457.45 C 674.77 451.65 670.34 433.85 679.91 424.09 C 667.19 427.85 652.84 414.00 641.86 424.94 C 632.17 422.39 650.05 415.85 642.15 415.44 M 255.13 446.01 C 262.70 471.02 291.78 483.64 316.14 485.80 C 319.91 487.39 324.91 479.96 318.69 480.57 C 304.15 484.28 290.96 475.72 278.53 469.48 C 267.64 464.78 266.14 449.81 255.13 446.01 M 685.53 446.33 C 673.85 463.99 656.11 477.98 634.55 481.51 C 630.94 481.19 615.92 478.57 623.75 485.37 C 647.16 485.52 672.88 473.83 685.29 453.27 C 685.94 451.17 690.02 444.77 685.53 446.33 M 337.97 453.68 C 327.04 457.48 321.80 473.20 330.13 481.89 C 338.78 491.82 354.21 487.16 363.64 483.98 C 361.23 480.76 342.87 483.12 350.37 474.45 C 355.41 465.33 360.51 480.18 365.54 481.87 C 363.63 468.04 354.94 449.35 337.97 453.68 M 598.11 453.55 C 584.20 454.57 579.52 470.33 577.44 481.93 C 582.48 479.70 588.15 464.95 593.05 475.05 C 599.53 484.02 580.16 479.63 579.17 484.83 C 589.82 486.67 603.98 491.95 612.36 482.28 C 623.52 472.39 612.78 450.11 598.11 453.55 M 342.63 601.52 C 323.07 600.73 320.15 631.50 339.18 635.58 C 355.84 638.52 363.81 620.71 365.56 607.07 C 360.52 609.29 354.85 624.05 349.95 613.95 C 343.46 604.99 362.86 609.36 363.79 604.16 C 356.22 604.67 350.50 597.89 342.63 601.52 M 590.01 601.44 C 586.68 603.07 583.31 604.83 579.39 604.18 C 579.58 609.59 598.62 604.73 593.45 613.34 C 588.71 624.32 582.54 609.79 577.46 607.13 C 580.04 618.27 583.73 633.70 597.21 635.51 C 610.23 638.67 621.36 622.27 615.42 610.75 C 611.04 601.45 599.11 599.99 590.01 601.44 M 316.14 603.19 C 291.82 605.64 262.75 617.78 255.19 643.01 C 265.33 640.87 266.04 626.42 274.98 621.95 C 288.11 614.30 302.75 604.78 318.69 608.41 C 324.93 609.06 319.92 601.64 316.14 603.19 M 624.40 603.17 C 621.34 604.35 619.51 608.97 624.31 608.43 C 639.32 604.72 652.98 613.65 665.70 620.30 C 675.80 625.01 677.27 639.71 687.79 642.98 C 680.04 617.22 649.47 604.41 624.40 603.17 M 311.04 615.34 C 297.61 614.82 284.43 620.37 273.98 628.42 C 274.42 632.36 284.06 623.98 282.87 631.55 C 268.23 637.35 272.66 655.15 263.09 664.91 C 273.51 662.12 283.11 669.38 293.41 668.39 C 297.32 668.49 300.07 661.80 303.77 665.37 C 306.44 669.90 293.44 672.47 300.85 673.56 C 314.15 667.47 327.02 658.05 331.84 643.72 C 333.69 637.78 326.69 636.63 324.25 632.72 C 319.04 626.73 323.23 612.89 311.04 615.34 M 630.26 615.38 C 620.01 614.16 623.71 626.12 619.57 631.53 C 617.38 636.50 608.50 637.51 611.37 644.40 C 616.81 658.10 628.92 667.69 642.15 673.56 C 649.93 672.61 635.08 669.18 639.84 664.93 C 643.14 662.49 645.45 667.88 648.71 668.22 C 659.28 669.30 669.29 662.36 679.89 664.91 C 670.16 655.16 674.68 637.29 660.12 631.55 C 658.95 623.99 668.58 632.36 669.02 628.42 C 658.13 620.00 644.26 614.43 630.26 615.38 M 340.35 643.15 C 335.86 661.00 317.41 669.83 302.30 677.40 C 295.06 680.36 281.99 675.36 278.39 682.98 C 303.01 687.88 327.36 670.45 341.56 651.56 C 344.76 649.51 345.46 641.92 340.35 643.15 M 600.28 643.28 C 600.15 658.97 620.79 671.79 634.54 678.45 C 643.88 682.31 655.50 687.52 664.82 682.19 C 658.71 675.41 647.13 680.66 639.27 676.84 C 627.37 671.21 615.81 663.84 607.08 653.88 C 604.16 651.08 605.51 642.23 600.28 643.28 M 469.51 668.41 C 461.39 675.45 452.14 685.26 454.92 696.95 C 457.40 711.65 479.75 713.80 486.50 701.32 C 493.09 688.11 482.64 674.63 472.05 667.97 C 473.60 673.70 482.09 687.45 469.56 684.82 C 460.83 683.61 473.46 669.69 469.51 668.41 M 448.44 705.25 C 431.97 725.29 432.10 760.70 448.24 781.09 C 452.96 773.80 441.80 765.22 440.96 757.20 C 439.58 742.69 439.21 726.68 446.53 713.68 C 448.87 711.95 454.03 704.93 448.44 705.25 M 492.20 705.29 C 499.45 719.16 505.75 735.65 502.42 752.70 C 504.72 762.76 489.54 772.32 494.76 781.09 C 509.03 765.01 508.76 739.81 502.92 720.09 C 500.14 714.98 499.81 704.44 492.20 705.29 M 457.46 713.36 C 445.56 724.06 443.14 741.89 445.03 757.09 C 449.92 761.42 446.50 747.06 452.57 750.55 C 449.11 765.93 468.80 772.94 471.86 785.46 C 473.95 771.65 494.28 766.19 490.42 750.57 C 496.46 746.94 493.52 761.22 498.00 757.10 C 499.58 741.80 497.67 723.12 484.83 713.08 C 475.90 716.89 466.38 715.22 457.46 713.36 Z" />
<path fill="#000000" opacity="1.00" d=" M 102.25 330.35 C 120.28 330.76 138.52 330.99 155.71 337.19 C 178.39 337.40 207.62 358.92 198.16 384.01 C 186.91 406.30 157.00 398.45 142.01 384.99 C 128.84 367.83 107.42 350.54 102.25 330.35 M 114.20 335.59 C 112.20 335.90 106.95 335.07 112.11 339.16 C 125.95 362.38 145.24 385.98 172.01 394.10 C 190.20 399.57 205.56 371.35 190.53 359.44 C 169.74 341.55 141.15 336.26 114.20 335.59 Z" />
<path fill="#000000" opacity="1.00" d=" M 831.69 330.64 C 834.94 330.65 838.18 330.51 841.42 330.33 C 833.59 352.28 814.13 367.29 800.52 385.52 C 785.43 397.82 757.75 405.96 745.40 385.46 C 734.30 360.47 763.58 337.55 786.54 337.34 C 801.16 332.79 816.31 330.08 831.69 330.64 M 828.03 335.63 C 801.54 336.54 773.86 341.93 752.94 358.87 C 741.35 367.46 746.46 386.93 758.48 392.56 C 767.95 398.78 779.14 390.77 787.96 387.01 C 806.20 373.34 822.27 356.24 832.75 335.92 C 831.18 335.68 829.60 335.58 828.03 335.63 Z" />
<path fill="#000000" opacity="1.00" d=" M 121.28 342.13 C 142.56 343.40 165.42 347.72 182.01 362.02 C 187.81 367.35 194.06 383.53 181.66 384.80 C 154.62 388.81 134.39 362.00 121.28 342.13 M 130.25 347.11 C 141.17 362.42 160.62 390.58 183.62 381.07 C 190.00 372.57 181.29 363.25 174.33 358.61 C 160.32 352.62 145.64 347.77 130.25 347.11 Z" />
<path fill="#000000" opacity="1.00" d=" M 814.28 342.55 C 816.51 342.60 820.63 341.10 821.69 342.91 C 807.26 361.98 788.72 389.08 761.34 384.80 C 748.58 383.20 755.57 366.03 762.02 361.02 C 776.61 348.94 795.98 345.01 814.28 342.55 M 807.69 347.61 C 794.15 349.17 781.16 353.35 768.67 358.61 C 761.71 363.26 753.00 372.58 759.39 381.07 C 777.82 389.79 793.69 370.16 804.96 358.05 C 807.61 354.88 819.34 344.71 807.69 347.61 Z" />
<path fill="#000000" opacity="1.00" d=" M 163.32 361.41 C 172.08 360.43 182.31 366.98 181.93 376.51 C 173.72 388.67 148.39 366.51 163.32 361.41 M 163.19 365.56 C 160.95 370.15 172.67 382.59 178.67 375.57 C 180.71 367.02 169.43 364.69 163.19 365.56 Z" />
<path fill="#000000" opacity="1.00" d=" M 778.12 361.37 C 795.38 364.25 771.68 387.61 762.05 377.65 C 758.30 368.67 770.21 361.20 778.12 361.37 M 774.19 365.57 C 769.39 366.48 762.08 369.06 764.32 375.57 C 771.09 384.82 789.36 361.81 774.19 365.57 Z" />
<path fill="#000000" opacity="1.00" d=" M 469.60 457.35 C 480.02 456.71 482.69 471.97 487.69 476.71 C 490.96 466.75 505.43 471.53 508.63 479.34 C 518.23 478.66 528.91 488.99 522.35 497.74 C 530.43 495.71 538.83 496.54 546.69 499.32 C 550.34 508.52 541.10 516.86 538.31 524.43 C 549.12 522.33 551.38 538.03 546.37 544.87 C 551.71 551.26 548.67 566.77 538.33 564.60 C 541.39 571.89 550.13 580.61 546.71 589.72 C 538.81 592.08 530.47 593.31 522.40 591.27 C 528.84 599.93 518.24 610.57 508.56 609.55 C 505.65 617.63 490.90 622.20 487.69 612.30 C 483.30 616.99 480.79 627.63 473.40 631.65 C 462.98 632.29 460.30 617.02 455.31 612.29 C 452.04 622.25 437.57 617.46 434.37 609.66 C 424.77 610.34 414.09 600.01 420.65 591.26 C 412.57 593.29 404.16 592.45 396.31 589.68 C 392.66 580.48 401.90 572.13 404.69 564.57 C 393.88 566.67 391.61 550.96 396.63 544.13 C 391.29 537.74 394.33 522.23 404.67 524.40 C 401.61 517.11 392.87 508.39 396.29 499.28 C 404.19 496.91 412.53 495.69 420.60 497.73 C 414.15 489.07 424.75 478.42 434.44 479.45 C 437.34 471.36 452.10 466.80 455.31 476.70 C 459.69 472.01 462.21 461.37 469.60 457.35 M 470.54 465.45 C 456.72 476.21 460.96 496.75 451.45 509.89 C 435.03 510.77 419.59 498.07 403.17 504.30 C 402.74 522.72 424.60 529.52 431.89 544.12 C 425.52 559.33 402.73 566.11 403.18 584.54 C 419.54 592.35 435.46 576.44 451.91 579.58 C 460.78 593.04 456.91 613.61 471.14 623.94 C 486.61 614.86 481.74 592.21 491.55 579.11 C 507.96 578.23 523.41 590.93 539.83 584.70 C 540.26 566.28 518.40 559.48 511.11 544.88 C 517.47 529.67 540.26 522.89 539.82 504.46 C 523.46 496.65 507.53 512.55 491.09 509.42 C 481.96 496.60 486.35 472.12 470.54 465.45 M 445.75 477.41 C 439.61 482.34 432.96 485.77 425.86 488.97 C 416.16 497.84 442.51 502.44 434.03 491.97 C 437.65 490.27 444.91 482.06 447.22 489.86 C 453.98 489.91 455.34 473.02 445.75 477.41 M 492.55 477.37 C 486.02 481.07 494.41 496.31 498.36 486.10 C 501.95 488.75 512.43 489.54 507.09 496.21 C 509.93 502.79 525.99 493.37 515.95 488.01 C 507.10 486.28 501.12 477.78 492.55 477.37 M 443.14 490.49 C 435.33 491.45 442.40 498.22 437.18 502.04 C 445.01 508.91 454.39 504.78 452.02 493.35 C 447.91 495.17 445.36 492.44 443.14 490.49 M 499.20 490.24 C 498.16 496.78 488.40 490.18 491.47 497.45 C 489.83 507.95 500.42 506.42 505.82 502.04 C 500.77 497.91 507.58 491.06 499.20 490.24 M 402.51 529.36 C 398.58 532.65 399.99 539.88 402.51 544.14 C 400.30 548.86 399.02 554.57 401.69 559.44 C 407.00 563.56 414.93 554.12 411.99 550.51 C 402.26 552.89 410.33 543.08 406.62 538.51 C 417.96 542.00 410.62 525.48 402.51 529.36 M 535.73 529.01 C 532.87 530.37 528.55 536.33 531.01 538.49 C 540.73 536.11 532.67 545.91 536.38 550.49 C 524.58 546.99 533.05 564.42 541.28 559.47 C 543.82 554.95 543.07 549.19 540.49 544.86 C 543.34 539.55 545.40 526.72 535.73 529.01 M 417.54 536.43 C 416.83 541.37 409.48 539.24 410.17 544.13 C 409.07 549.70 417.07 547.76 417.97 553.17 C 428.65 549.26 427.28 538.58 417.54 536.43 M 524.81 536.52 C 519.45 539.04 512.81 545.39 520.55 549.39 C 525.26 556.94 527.12 547.39 532.58 547.06 C 535.20 540.39 526.88 540.39 524.81 536.52 M 444.23 583.85 C 434.17 584.30 440.80 591.00 438.95 596.39 C 444.28 601.96 445.89 592.49 452.02 595.65 C 451.41 590.65 451.66 580.73 444.23 583.85 M 494.10 583.55 C 491.56 586.41 491.51 591.63 490.98 595.65 C 494.53 594.71 497.76 594.94 499.20 598.76 C 507.58 597.94 500.77 591.08 505.82 586.96 C 502.51 584.64 498.18 583.08 494.10 583.55 M 429.69 591.39 C 422.40 590.97 422.77 600.75 429.06 602.08 C 436.11 603.22 440.72 608.54 446.62 612.00 C 457.85 615.57 450.81 591.80 445.75 601.87 C 442.66 605.69 440.91 598.92 437.68 599.37 C 429.18 599.43 442.24 586.42 429.69 591.39 M 507.41 591.16 C 512.71 598.41 498.37 606.55 495.02 599.07 C 490.70 600.32 488.91 608.05 491.84 611.43 C 500.73 613.03 505.69 602.51 514.64 601.76 C 524.14 597.73 515.18 587.59 507.41 591.16 Z" />
<path fill="#000000" opacity="1.00" d=" M 471.13 470.89 C 485.33 480.10 476.78 515.55 499.13 512.48 C 510.89 509.98 522.72 507.23 534.78 506.68 C 535.20 522.71 495.13 537.85 515.81 555.25 C 523.01 563.50 531.17 571.43 535.68 581.57 C 520.76 584.65 504.54 573.82 489.22 577.06 C 480.99 589.52 481.26 606.20 471.87 618.11 C 457.67 608.90 466.22 573.45 443.87 576.52 C 431.82 579.06 419.70 581.94 407.34 582.34 C 411.78 566.54 431.65 558.57 433.92 542.37 C 425.84 530.42 413.31 521.00 407.32 507.43 C 422.24 504.35 438.46 515.18 453.78 511.94 C 462.01 499.47 461.74 482.80 471.13 470.89 M 471.11 476.13 C 464.11 488.45 463.87 503.91 454.71 515.24 C 440.27 517.81 426.66 509.65 412.29 510.19 C 418.38 522.51 433.09 530.35 437.29 544.25 C 434.01 558.81 418.30 566.23 412.25 578.84 C 426.47 578.45 440.28 571.20 454.72 573.75 C 463.78 585.14 464.53 600.49 471.16 612.89 C 479.73 602.13 478.40 583.84 488.89 573.62 C 503.15 571.47 516.52 579.31 530.71 578.81 C 524.62 566.49 509.91 558.65 505.71 544.75 C 508.99 530.19 524.69 522.77 530.75 510.16 C 516.71 510.55 503.15 517.57 488.89 515.37 C 478.45 505.19 479.33 486.85 471.11 476.13 Z" />
<path fill="#000000" opacity="1.00" d=" M 471.15 504.29 C 480.30 515.64 493.58 519.53 505.96 525.25 C 502.92 538.05 501.44 550.92 505.95 563.70 C 494.06 569.72 480.16 572.61 471.85 584.71 C 462.70 573.36 449.42 569.47 437.04 563.75 C 440.08 550.94 441.56 538.07 437.05 525.30 C 448.94 519.28 462.84 516.39 471.15 504.29 M 463.10 530.44 C 454.03 538.92 454.47 552.85 465.13 558.81 C 477.45 563.32 484.09 555.04 487.51 544.86 C 484.91 533.22 475.86 525.48 463.10 530.44 Z" />
<path fill="#000000" opacity="1.00" d=" M 468.30 536.44 C 478.72 532.36 484.92 548.64 474.70 552.56 C 464.28 556.64 458.08 540.36 468.30 536.44 M 468.56 539.80 C 461.83 543.81 469.21 553.08 474.93 548.74 C 480.64 544.65 474.16 536.74 468.56 539.80 Z" />
<path fill="#000000" opacity="1.00" d=" M 168.85 691.65 C 187.14 685.54 205.34 705.60 199.06 723.00 C 191.78 739.90 173.15 751.69 154.96 751.99 C 137.81 758.24 119.56 758.17 101.58 758.67 C 108.52 741.84 120.72 726.66 134.20 714.20 C 141.04 701.34 154.86 693.92 168.85 691.65 M 174.52 694.50 C 145.09 701.51 124.75 728.19 110.25 753.08 C 138.45 753.55 168.41 747.77 190.59 729.65 C 204.68 718.33 191.82 691.87 174.52 694.50 Z" />
<path fill="#000000" opacity="1.00" d=" M 761.71 691.41 C 775.97 688.97 790.09 695.19 800.99 704.01 C 814.96 721.68 833.64 737.00 841.42 758.67 C 819.04 759.55 797.19 754.24 775.67 750.34 C 762.02 744.96 748.24 736.13 743.41 721.56 C 740.48 708.81 748.46 694.29 761.71 691.41 M 763.58 694.43 C 749.89 697.06 740.68 716.44 750.42 727.55 C 771.10 747.21 801.00 752.63 828.80 753.41 C 837.89 754.21 825.02 743.20 824.64 739.38 C 809.32 719.81 790.47 695.57 763.58 694.43 Z" />
<path fill="#000000" opacity="1.00" d=" M 169.78 703.64 C 176.96 702.28 192.65 703.70 188.48 715.22 C 178.74 741.13 145.13 744.40 121.30 746.81 C 132.99 729.17 148.12 709.87 169.78 703.64 M 174.44 705.68 C 154.74 707.75 140.07 727.43 130.27 741.86 C 149.19 738.68 173.96 737.30 185.09 719.04 C 188.44 711.73 182.15 704.11 174.44 705.68 Z" />
<path fill="#000000" opacity="1.00" d=" M 764.65 703.54 C 790.29 703.02 809.08 727.53 821.72 746.87 C 800.81 745.72 778.74 741.32 762.02 727.98 C 753.56 721.85 749.39 702.74 764.65 703.54 M 764.85 705.55 C 751.31 708.67 758.64 724.92 767.42 729.61 C 781.34 735.88 798.52 742.41 812.81 741.06 C 801.06 726.75 786.54 704.55 764.85 705.55 Z" />
<path fill="#000000" opacity="1.00" d=" M 176.13 709.35 C 192.07 714.83 168.21 735.11 158.22 725.52 C 157.76 716.05 167.09 709.13 176.13 709.35 M 172.30 711.29 C 167.92 713.65 163.41 717.92 162.28 722.77 C 169.97 728.90 188.26 712.87 172.30 711.29 Z" />
<path fill="#000000" opacity="1.00" d=" M 765.40 709.26 C 774.85 708.29 785.22 715.58 784.82 725.54 C 775.22 734.20 752.58 717.50 765.40 709.26 M 769.19 711.37 C 755.67 715.30 773.41 727.94 781.11 722.86 C 778.48 718.52 775.03 711.46 769.19 711.37 Z" />
<path fill="#000000" opacity="1.00" d=" M 469.45 861.52 C 494.59 860.39 502.08 889.26 497.77 909.15 C 490.91 930.42 484.75 953.93 471.13 971.82 C 462.08 956.15 453.12 940.18 450.07 922.01 C 438.99 902.14 442.01 865.74 469.45 861.52 M 469.01 865.67 C 461.16 866.37 452.40 871.67 451.77 880.18 C 447.25 907.96 455.93 938.54 471.86 960.92 C 487.15 936.32 496.88 906.17 490.64 877.26 C 487.82 868.64 477.45 864.84 469.01 865.67 Z" />
<path fill="#000000" opacity="1.00" d=" M 470.40 871.29 C 481.81 873.01 486.72 887.74 486.47 898.07 C 485.12 915.79 479.47 932.92 471.87 948.89 C 464.09 936.80 460.02 920.19 457.46 905.64 C 454.81 893.17 458.09 877.34 470.40 871.29 M 471.14 875.46 C 462.85 876.57 460.81 885.48 459.24 892.32 C 460.16 908.97 464.73 925.24 471.13 940.66 C 478.62 927.26 482.11 909.80 483.81 894.02 C 482.89 886.48 480.33 876.06 471.14 875.46 Z" />
<path fill="#000000" opacity="1.00" d=" M 471.15 879.37 C 482.80 882.17 481.15 902.67 471.16 906.71 C 462.24 901.37 460.39 883.48 471.15 879.37 M 469.72 883.44 C 462.84 887.06 467.77 896.80 471.15 901.76 C 476.14 898.42 481.10 881.92 469.72 883.44 Z" />
</svg>
