<svg id="visual" viewBox="0 0 960 300" width="960" height="300" xmlns="http://www.w3.org/2000/svg" xmlns:xlink="http://www.w3.org/1999/xlink" version="1.1"><path d="M0 130L8.8 120.8C17.7 111.7 35.3 93.3 53.2 86.7C71 80 89 85 106.8 84.3C124.7 83.7 142.3 77.3 160 80.5C177.7 83.7 195.3 96.3 213.2 99.8C231 103.3 249 97.7 266.8 87.7C284.7 77.7 302.3 63.3 320 55.7C337.7 48 355.3 47 373.2 50.8C391 54.7 409 63.3 426.8 67.5C444.7 71.7 462.3 71.3 480 81.3C497.7 91.3 515.3 111.7 533.2 115C551 118.3 569 104.7 586.8 100.8C604.7 97 622.3 103 640 103.5C657.7 104 675.3 99 693.2 104.7C711 110.3 729 126.7 746.8 132C764.7 137.3 782.3 131.7 800 131.7C817.7 131.7 835.3 137.3 853.2 123.5C871 109.7 889 76.3 906.8 73C924.7 69.7 942.3 96.3 951.2 109.7L960 123L960 301L951.2 301C942.3 301 924.7 301 906.8 301C889 301 871 301 853.2 301C835.3 301 817.7 301 800 301C782.3 301 764.7 301 746.8 301C729 301 711 301 693.2 301C675.3 301 657.7 301 640 301C622.3 301 604.7 301 586.8 301C569 301 551 301 533.2 301C515.3 301 497.7 301 480 301C462.3 301 444.7 301 426.8 301C409 301 391 301 373.2 301C355.3 301 337.7 301 320 301C302.3 301 284.7 301 266.8 301C249 301 231 301 213.2 301C195.3 301 177.7 301 160 301C142.3 301 124.7 301 106.8 301C89 301 71 301 53.2 301C35.3 301 17.7 301 8.8 301L0 301Z" fill="#a9c2be"></path><path d="M0 141L8.8 134.8C17.7 128.7 35.3 116.3 53.2 114C71 111.7 89 119.3 106.8 116.8C124.7 114.3 142.3 101.7 160 105.2C177.7 108.7 195.3 128.3 213.2 127.3C231 126.3 249 104.7 266.8 104.3C284.7 104 302.3 125 320 126C337.7 127 355.3 108 373.2 97.7C391 87.3 409 85.7 426.8 84.5C444.7 83.3 462.3 82.7 480 92.5C497.7 102.3 515.3 122.7 533.2 135.7C551 148.7 569 154.3 586.8 150C604.7 145.7 622.3 131.3 640 132C657.7 132.7 675.3 148.3 693.2 148C711 147.7 729 131.3 746.8 117.7C764.7 104 782.3 93 800 88.3C817.7 83.7 835.3 85.3 853.2 84C871 82.7 889 78.3 906.8 81.3C924.7 84.3 942.3 94.7 951.2 99.8L960 105L960 301L951.2 301C942.3 301 924.7 301 906.8 301C889 301 871 301 853.2 301C835.3 301 817.7 301 800 301C782.3 301 764.7 301 746.8 301C729 301 711 301 693.2 301C675.3 301 657.7 301 640 301C622.3 301 604.7 301 586.8 301C569 301 551 301 533.2 301C515.3 301 497.7 301 480 301C462.3 301 444.7 301 426.8 301C409 301 391 301 373.2 301C355.3 301 337.7 301 320 301C302.3 301 284.7 301 266.8 301C249 301 231 301 213.2 301C195.3 301 177.7 301 160 301C142.3 301 124.7 301 106.8 301C89 301 71 301 53.2 301C35.3 301 17.7 301 8.8 301L0 301Z" fill="#9fb6ad"></path><path d="M0 185L8.8 184.3C17.7 183.7 35.3 182.3 53.2 168.7C71 155 89 129 106.8 117.7C124.7 106.3 142.3 109.7 160 117.3C177.7 125 195.3 137 213.2 135.3C231 133.7 249 118.3 266.8 112.3C284.7 106.3 302.3 109.7 320 123.3C337.7 137 355.3 161 373.2 160.7C391 160.3 409 135.7 426.8 128.5C444.7 121.3 462.3 131.7 480 137.3C497.7 143 515.3 144 533.2 139.8C551 135.7 569 126.3 586.8 132.5C604.7 138.7 622.3 160.3 640 164.5C657.7 168.7 675.3 155.3 693.2 149C711 142.7 729 143.3 746.8 141.3C764.7 139.3 782.3 134.7 800 131.5C817.7 128.3 835.3 126.7 853.2 129C871 131.3 889 137.7 906.8 138.7C924.7 139.7 942.3 135.3 951.2 133.2L960 131L960 301L951.2 301C942.3 301 924.7 301 906.8 301C889 301 871 301 853.2 301C835.3 301 817.7 301 800 301C782.3 301 764.7 301 746.8 301C729 301 711 301 693.2 301C675.3 301 657.7 301 640 301C622.3 301 604.7 301 586.8 301C569 301 551 301 533.2 301C515.3 301 497.7 301 480 301C462.3 301 444.7 301 426.8 301C409 301 391 301 373.2 301C355.3 301 337.7 301 320 301C302.3 301 284.7 301 266.8 301C249 301 231 301 213.2 301C195.3 301 177.7 301 160 301C142.3 301 124.7 301 106.8 301C89 301 71 301 53.2 301C35.3 301 17.7 301 8.8 301L0 301Z" fill="#97aa9d"></path><path d="M0 157L8.8 155C17.7 153 35.3 149 53.2 156C71 163 89 181 106.8 180.2C124.7 179.3 142.3 159.7 160 156.5C177.7 153.3 195.3 166.7 213.2 166.7C231 166.7 249 153.3 266.8 144.7C284.7 136 302.3 132 320 131.2C337.7 130.3 355.3 132.7 373.2 144C391 155.3 409 175.7 426.8 180.7C444.7 185.7 462.3 175.3 480 169C497.7 162.7 515.3 160.3 533.2 157.7C551 155 569 152 586.8 150.8C604.7 149.7 622.3 150.3 640 157.2C657.7 164 675.3 177 693.2 176.2C711 175.3 729 160.7 746.8 159.7C764.7 158.7 782.3 171.3 800 173.3C817.7 175.3 835.3 166.7 853.2 162C871 157.3 889 156.7 906.8 157.5C924.7 158.3 942.3 160.7 951.2 161.8L960 163L960 301L951.2 301C942.3 301 924.7 301 906.8 301C889 301 871 301 853.2 301C835.3 301 817.7 301 800 301C782.3 301 764.7 301 746.8 301C729 301 711 301 693.2 301C675.3 301 657.7 301 640 301C622.3 301 604.7 301 586.8 301C569 301 551 301 533.2 301C515.3 301 497.7 301 480 301C462.3 301 444.7 301 426.8 301C409 301 391 301 373.2 301C355.3 301 337.7 301 320 301C302.3 301 284.7 301 266.8 301C249 301 231 301 213.2 301C195.3 301 177.7 301 160 301C142.3 301 124.7 301 106.8 301C89 301 71 301 53.2 301C35.3 301 17.7 301 8.8 301L0 301Z" fill="#909d8d"></path><path d="M0 187L8.8 189.8C17.7 192.7 35.3 198.3 53.2 195C71 191.7 89 179.3 106.8 172.5C124.7 165.7 142.3 164.3 160 163.3C177.7 162.3 195.3 161.7 213.2 161.8C231 162 249 163 266.8 172C284.7 181 302.3 198 320 202.5C337.7 207 355.3 199 373.2 189.3C391 179.7 409 168.3 426.8 162.8C444.7 157.3 462.3 157.7 480 166.7C497.7 175.7 515.3 193.3 533.2 195C551 196.7 569 182.3 586.8 181.3C604.7 180.3 622.3 192.7 640 199.3C657.7 206 675.3 207 693.2 200.8C711 194.7 729 181.3 746.8 179.2C764.7 177 782.3 186 800 186C817.7 186 835.3 177 853.2 175C871 173 889 178 906.8 181.3C924.7 184.7 942.3 186.3 951.2 187.2L960 188L960 301L951.2 301C942.3 301 924.7 301 906.8 301C889 301 871 301 853.2 301C835.3 301 817.7 301 800 301C782.3 301 764.7 301 746.8 301C729 301 711 301 693.2 301C675.3 301 657.7 301 640 301C622.3 301 604.7 301 586.8 301C569 301 551 301 533.2 301C515.3 301 497.7 301 480 301C462.3 301 444.7 301 426.8 301C409 301 391 301 373.2 301C355.3 301 337.7 301 320 301C302.3 301 284.7 301 266.8 301C249 301 231 301 213.2 301C195.3 301 177.7 301 160 301C142.3 301 124.7 301 106.8 301C89 301 71 301 53.2 301C35.3 301 17.7 301 8.8 301L0 301Z" fill="#8a917e"></path><path d="M0 221L8.8 217C17.7 213 35.3 205 53.2 203.5C71 202 89 207 106.8 207.3C124.7 207.7 142.3 203.3 160 208.5C177.7 213.7 195.3 228.3 213.2 234.3C231 240.3 249 237.7 266.8 233.2C284.7 228.7 302.3 222.3 320 214.3C337.7 206.3 355.3 196.7 373.2 197.3C391 198 409 209 426.8 212.7C444.7 216.3 462.3 212.7 480 214.8C497.7 217 515.3 225 533.2 224.8C551 224.7 569 216.3 586.8 208.5C604.7 200.7 622.3 193.3 640 191.3C657.7 189.3 675.3 192.7 693.2 200C711 207.3 729 218.7 746.8 221C764.7 223.3 782.3 216.7 800 211.3C817.7 206 835.3 202 853.2 205.5C871 209 889 220 906.8 219.5C924.7 219 942.3 207 951.2 201L960 195L960 301L951.2 301C942.3 301 924.7 301 906.8 301C889 301 871 301 853.2 301C835.3 301 817.7 301 800 301C782.3 301 764.7 301 746.8 301C729 301 711 301 693.2 301C675.3 301 657.7 301 640 301C622.3 301 604.7 301 586.8 301C569 301 551 301 533.2 301C515.3 301 497.7 301 480 301C462.3 301 444.7 301 426.8 301C409 301 391 301 373.2 301C355.3 301 337.7 301 320 301C302.3 301 284.7 301 266.8 301C249 301 231 301 213.2 301C195.3 301 177.7 301 160 301C142.3 301 124.7 301 106.8 301C89 301 71 301 53.2 301C35.3 301 17.7 301 8.8 301L0 301Z" fill="#848470"></path><path d="M0 264L8.8 257.3C17.7 250.7 35.3 237.3 53.2 236.7C71 236 89 248 106.8 249.8C124.7 251.7 142.3 243.3 160 242.3C177.7 241.3 195.3 247.7 213.2 245C231 242.3 249 230.7 266.8 226.2C284.7 221.7 302.3 224.3 320 229.3C337.7 234.3 355.3 241.7 373.2 240.8C391 240 409 231 426.8 225.7C444.7 220.3 462.3 218.7 480 225C497.7 231.3 515.3 245.7 533.2 250.3C551 255 569 250 586.8 244.7C604.7 239.3 622.3 233.7 640 237C657.7 240.3 675.3 252.7 693.2 254.5C711 256.3 729 247.7 746.8 244.7C764.7 241.7 782.3 244.3 800 247.7C817.7 251 835.3 255 853.2 251C871 247 889 235 906.8 230C924.7 225 942.3 227 951.2 228L960 229L960 301L951.2 301C942.3 301 924.7 301 906.8 301C889 301 871 301 853.2 301C835.3 301 817.7 301 800 301C782.3 301 764.7 301 746.8 301C729 301 711 301 693.2 301C675.3 301 657.7 301 640 301C622.3 301 604.7 301 586.8 301C569 301 551 301 533.2 301C515.3 301 497.7 301 480 301C462.3 301 444.7 301 426.8 301C409 301 391 301 373.2 301C355.3 301 337.7 301 320 301C302.3 301 284.7 301 266.8 301C249 301 231 301 213.2 301C195.3 301 177.7 301 160 301C142.3 301 124.7 301 106.8 301C89 301 71 301 53.2 301C35.3 301 17.7 301 8.8 301L0 301Z" fill="#7e7764"></path><path d="M0 285L8.8 278.8C17.7 272.7 35.3 260.3 53.2 254.7C71 249 89 250 106.8 256C124.7 262 142.3 273 160 278.2C177.7 283.3 195.3 282.7 213.2 280.3C231 278 249 274 266.8 273.3C284.7 272.7 302.3 275.3 320 274.8C337.7 274.3 355.3 270.7 373.2 271.2C391 271.7 409 276.3 426.8 278.3C444.7 280.3 462.3 279.7 480 279.7C497.7 279.7 515.3 280.3 533.2 278.7C551 277 569 273 586.8 271.2C604.7 269.3 622.3 269.7 640 270.2C657.7 270.7 675.3 271.3 693.2 269.5C711 267.7 729 263.3 746.8 261.8C764.7 260.3 782.3 261.7 800 262C817.7 262.3 835.3 261.7 853.2 264C871 266.3 889 271.7 906.8 272C924.7 272.3 942.3 267.7 951.2 265.3L960 263L960 301L951.2 301C942.3 301 924.7 301 906.8 301C889 301 871 301 853.2 301C835.3 301 817.7 301 800 301C782.3 301 764.7 301 746.8 301C729 301 711 301 693.2 301C675.3 301 657.7 301 640 301C622.3 301 604.7 301 586.8 301C569 301 551 301 533.2 301C515.3 301 497.7 301 480 301C462.3 301 444.7 301 426.8 301C409 301 391 301 373.2 301C355.3 301 337.7 301 320 301C302.3 301 284.7 301 266.8 301C249 301 231 301 213.2 301C195.3 301 177.7 301 160 301C142.3 301 124.7 301 106.8 301C89 301 71 301 53.2 301C35.3 301 17.7 301 8.8 301L0 301Z" fill="#786a59"></path></svg>