<?xml version="1.0" encoding="UTF-8" standalone="no"?>
<!-- Created with Inkscape (http://www.inkscape.org/) -->

<svg
   xmlns:dc="http://purl.org/dc/elements/1.1/"
   xmlns:cc="http://creativecommons.org/ns#"
   xmlns:rdf="http://www.w3.org/1999/02/22-rdf-syntax-ns#"
   xmlns:svg="http://www.w3.org/2000/svg"
   xmlns="http://www.w3.org/2000/svg"
   xmlns:sodipodi="http://sodipodi.sourceforge.net/DTD/sodipodi-0.dtd"
   xmlns:inkscape="http://www.inkscape.org/namespaces/inkscape"
   id="svg2"
   version="1.1"
   inkscape:version="0.91 r13725"
   width="2048"
   height="2048"
   viewBox="0 0 2048 2048"
   sodipodi:docname="Magic Circle 06.svg">
  <metadata
     id="metadata8">
    <rdf:RDF>
      <cc:Work
         rdf:about="">
        <dc:format>image/svg+xml</dc:format>
        <dc:type
           rdf:resource="http://purl.org/dc/dcmitype/StillImage" />
        <dc:title></dc:title>
      </cc:Work>
    </rdf:RDF>
  </metadata>
  <defs
     id="defs6" />
  <sodipodi:namedview
     pagecolor="#ffffff"
     bordercolor="#666666"
     borderopacity="1"
     objecttolerance="10"
     gridtolerance="10"
     guidetolerance="10"
     inkscape:pageopacity="0"
     inkscape:pageshadow="2"
     inkscape:window-width="640"
     inkscape:window-height="480"
     id="namedview4"
     showgrid="false"
     inkscape:zoom="0.27783203"
     inkscape:cx="1024"
     inkscape:cy="1024"
     inkscape:current-layer="svg2" />
  <path
     d="M 947.69173,2046.2311 C 774.44953,2033.6829 599.65974,1973.3708 454.6348,1876.0994 362.61387,1814.3789 272.89134,1729.6648 206.93878,1642.2301 96.57731,1495.9215 26.60515,1321.5302 6.68731,1143.1443 0.02753003,1083.4987 -1.85314,1009.2478 1.9283,955.25321 22.49098,661.64221 164.42775,395.71911 397.89412,213.39861 425.21945,192.05951 484.53459,152.42015 516.26692,134.292 616.22697,77.186468 731.00019,35.572708 843.01496,15.821768 1059.2019,-22.297292 1280.5845,8.8689685 1475.967,104.92879 c 168.283,82.73642 311.9357,211.68692 413.088,370.81062 141.3921,222.4251 190.925,491.2246 138.631,752.30819 -33.9421,169.4607 -109.0996,324.1241 -223.6189,460.1767 -26.5774,31.5747 -88.4742,93.2733 -119.6767,119.2935 -169.7925,141.5922 -370.9394,223.2947 -587.999,238.8356 -31.4239,2.2498 -116.9196,2.1795 -148.69967,-0.1213 z m 51.42943,-21.7306 0.55827,-18.9553 -21.10251,-0.6165 c -11.6064,-0.3392 -21.25368,-0.612 -21.43839,-0.6067 -0.18457,0 -0.96322,8.558 -1.72987,19.0057 l -1.39399,18.996 18.36076,0.6815 c 10.0984,0.3752 20.12168,0.6296 22.27391,0.5663 3.59599,-0.1057 3.95841,-1.6515 4.47162,-19.0707 z m 109.98804,15.84 c 204.5171,-16.6276 404.0547,-97.729 562.5153,-228.6332 149.3528,-123.3802 259.7332,-284.701 320.7569,-468.786 27.0038,-81.4604 45.7423,-181.6433 49.3563,-263.8753 l 1.2689,-28.8686 -18.5233,0 -18.5235,0 -2.4031,35.7188 c -6.648,98.8161 -25.5918,189.1069 -58.2969,277.8613 -111.4389,302.4183 -365.3183,531.5377 -678.2083,612.0649 -63.2799,16.2861 -153.4188,29.3791 -202.7331,29.448 l -14.4639,0.02 1.257,12.0303 c 0.6914,6.6167 1.257,15.3266 1.257,19.3555 l 0,7.3253 16.1418,-0.8364 c 8.8779,-0.4599 27.1474,-1.7311 40.5989,-2.8248 z m -211.15895,-4.224 c 0.0828,-0.2688 1.24216,-8.66 2.57557,-18.6463 2.80279,-20.9903 5.54715,-18.3422 -22.89024,-22.0883 -9.47575,-1.2483 -17.64243,-1.8556 -18.14814,-1.3499 -1.14617,1.1465 -7.11946,34.9892 -6.3052,35.723 1.17369,1.0577 44.50433,7.215 44.76801,6.3615 z m -93.72667,-32.7966 c 1.87694,-8.066 3.44873,-16.0334 3.49281,-17.7054 0.0587,-2.2232 -4.78141,-4.2466 -18.0181,-7.5317 -9.95407,-2.4706 -19.06584,-4.8748 -20.24833,-5.3428 -1.81081,-0.7165 -13.50578,34.1784 -11.96974,35.7148 1.22162,1.2221 37.93284,10.1827 40.46471,9.8768 1.87284,-0.2264 4.04868,-5.4287 6.27865,-15.0117 z m 76.93208,-144.8285 -142.83925,-142.8847 -202.38063,0.4984 -202.38063,0.4985 28.54969,26.1011 c 118.13526,108.0028 252.1786,182.4234 403.85589,224.2196 62.67732,17.2713 118.26101,26.3409 203.25333,33.1653 4.30447,0.3458 18.39109,0.7764 31.30354,0.9575 l 23.4772,0.3288 -142.83914,-142.8848 z m 240.67124,137.9802 c 219.5516,-22.9681 414.8074,-112.7634 576.2114,-264.9908 l 16.6309,-15.6854 -202.5106,-0.085 -202.5105,-0.085 -142.825,143.0944 -142.8249,143.0945 34.24,-1.1359 c 18.8321,-0.625 47.447,-2.5178 63.5887,-4.2065 z m 43.0447,-141.8854 138.9065,-138.9611 -19.5666,0 -19.5665,0 -120.3184,120.3687 -120.3183,120.3686 -172.3936,-172.4403 -172.39357,-172.4403 -11.02648,8.524 -11.02641,8.5239 182.43276,182.5089 c 100.338,100.3798 183.3173,182.5088 184.3984,182.5088 1.0811,0 64.4736,-62.5325 140.8722,-138.9612 z m -455.56637,120.2643 c 6.35665,-19.5254 7.72378,-17.4898 -17.71418,-26.3756 -13.88601,-4.8506 -17.75103,-5.5616 -19.04491,-3.5036 -3.05095,4.8525 -12.05328,31.0529 -11.02354,32.083 1.42537,1.4258 37.14988,14.3181 40.00844,14.4382 1.27843,0.052 4.77678,-7.4352 7.77419,-16.642 z m -90.72998,-35.6267 c 4.14247,-9.5328 6.53392,-17.3563 5.41913,-17.728 -1.09744,-0.366 -9.79051,-4.4604 -19.31779,-9.099 l -17.32247,-8.4337 -8.25009,16.6403 c -4.53763,9.1522 -7.9857,16.9021 -7.66241,17.2221 1.11923,1.108 37.48342,18.5349 38.59892,18.4979 0.61632,-0.02 4.45676,-7.7153 8.53471,-17.0996 z m 523.79575,-107.1453 116.4039,-116.4534 -52.2436,0 -52.2436,0 -1.1647,7.3395 c -6.7941,42.8114 -33.7644,80.5223 -70.4276,98.4747 -21.1063,10.3348 -35.1162,13.575 -58.6972,13.575 -23.5811,0 -37.59106,-3.2402 -58.69729,-13.575 -36.9267,-18.0814 -63.3781,-55.0792 -70.40403,-98.4747 l -1.18829,-7.3395 -52.24356,0 -52.24355,0 116.40389,116.4534 c 64.02214,64.0493 117.28993,116.4533 118.37283,116.4533 1.0829,0 54.3506,-52.404 118.3728,-116.4533 z m -612.1447,62.7161 9.06801,-16.4961 -17.81944,-10.3882 c -9.80068,-5.7135 -18.42957,-10.6572 -19.17522,-10.9858 -1.31267,-0.578 -18.9227,25.334 -19.82559,29.1727 -0.36523,1.5524 34.39477,24.6665 37.70601,25.073 0.53806,0.067 5.05886,-7.303 10.04623,-16.3756 z m -72.73216,-67.5571 c -0.0907,-1.2379 -33.52487,-25.9168 -33.994,-25.0923 -0.18,0.3165 -5.44958,7.0313 -11.71036,14.9219 -10.70683,13.4945 -11.16715,14.5035 -7.74797,16.9809 1.99936,1.4487 10.20726,7.4289 18.23984,13.2894 l 14.60473,10.6553 10.34161,-14.8623 c 5.68789,-8.1743 10.30769,-15.3261 10.26615,-15.8929 z m 595.83756,-0.046 c 37.7639,-9.6615 66.6752,-33.1521 83.1097,-67.5273 9.4896,-19.8489 12.534,-32.9223 12.534,-53.8229 0,-20.9262 -3.0499,-33.9986 -12.5575,-53.823 -21.2266,-44.2598 -63.9394,-71.3799 -112.4197,-71.3799 -68.9562,0 -124.43358,55.1801 -124.89357,124.2242 -0.14479,21.7304 2.78388,34.5971 12.47381,54.8016 25.83743,53.8741 84.98567,82.0505 141.75326,67.5273 z m -63.5736,-4.5874 c -21.57581,-6.427 -34.41322,-14.1233 -51.05565,-30.6087 -33.99856,-33.6779 -45.12045,-80.9259 -29.6309,-125.8783 6.95308,-20.1788 16.59411,-34.8998 32.76905,-50.0355 22.10936,-20.6888 50.45922,-31.5891 82.1576,-31.5891 34.1564,0 61.4604,11.2204 85.2957,35.0519 38.5714,38.5653 47.2455,91.6756 23.0441,141.096 -9.7849,19.9815 -31.0965,42.3919 -49.6565,52.2169 -27.7666,14.6987 -63.6607,18.4638 -92.9234,9.7468 z m 57.6628,-2.2915 c 29.9089,-6.3376 56.6177,-24.1422 73.0238,-48.6791 13.0392,-19.5016 18.1348,-34.8176 19.4382,-58.4265 1.7441,-31.5925 -4.9576,-54.1347 -23.5298,-79.1457 -14.0396,-18.9071 -38.1708,-34.967 -63.0063,-41.9322 -16.2502,-4.5575 -48.1336,-3.518 -65.51697,2.1361 -38.34085,12.4705 -69.66092,46.9746 -78.31466,86.2763 -3.53331,16.0469 -1.67685,48.8652 3.58249,63.3299 20.43571,56.2042 77.24787,88.5351 134.32324,76.4412 z m -666.21024,-52.1254 c 0.0867,-2.076 -31.05619,-29.4813 -32.68426,-28.7618 -0.82678,0.3654 -6.78599,6.2754 -13.24268,13.1335 l -11.73946,12.4692 16.63089,15.4838 16.63089,15.4839 12.17603,-13.2741 c 6.69683,-7.3006 12.1997,-13.8412 12.22859,-14.5345 z m -82.52664,-82.2339 c -7.61779,-8.4392 -14.25221,-15.3441 -14.74305,-15.3441 -1.37345,0 -27.61921,22.354 -27.76772,23.6502 -0.0717,0.6283 6.60729,8.3977 14.84278,17.2652 l 14.9736,16.1228 13.27243,-13.175 13.27249,-13.1749 -13.85053,-15.3442 z m 35.62141,-173.393 0,-201.1072 -143.80827,-143.8441 -143.80827,-143.8442 0.0287,9.781 c 0.0646,22.2891 4.1902,80.3775 7.80104,109.8421 13.66232,111.4852 44.8559,215.1551 94.94211,315.5341 33.01219,66.1606 67.14138,119.7485 111.35248,174.8399 25.46619,31.7338 68.69378,79.9057 71.70397,79.9057 1.06836,0 1.78825,-80.958 1.78825,-201.1073 z M 1742.291,1686.167 c 48.8243,-53.5817 96.5827,-118.5526 129.408,-176.0478 65.6801,-115.0421 107.9116,-243.9357 122.8033,-374.8037 2.6057,-22.8987 6.5032,-84.0037 6.7408,-105.6838 0.059,-5.238 -15.3423,9.544 -143.7439,137.9776 l -143.8083,143.8442 0,201.1071 c 0,118.6714 0.7257,201.1073 1.7704,201.1073 0.9738,0 13.0471,-12.3754 26.8297,-27.5009 z m -1022.52977,10.8753 -12.59415,-12.7112 -170.82074,-0.4997 -170.82076,-0.4998 0.0652,-170.3083 0.0652,-170.3083 -13.7167,-13.6159 -13.7167,-13.6159 0,197.1353 0,197.1353 197.06841,0 197.06846,0 -12.59421,-12.7111 z m 174.15136,4.3931 c 0.013,-4.5749 0.55763,-10.2998 1.20656,-12.7218 l 1.17975,-4.4037 -69.14093,0 -69.141,0 12.60472,12.7218 12.60471,12.7218 55.32973,0 55.32979,0 0.0261,-8.3181 z m 815.86511,-269.4372 0,-277.7553 -12.8883,-0.6563 c -7.0886,-0.3607 -13.2518,-0.2896 -13.696,0.1592 -0.4442,0.4482 -0.8077,120.009 -0.8077,265.6898 l 0,264.8744 -265.3441,0 -265.3442,0 1.1798,4.4037 c 0.6489,2.422 1.1918,8.1468 1.2065,12.7218 l 0.026,8.3181 277.8336,0 277.8337,0 0,-277.7553 z m -1032.4763,222.5905 -23.84198,-23.8495 -15.27954,7.1703 c -8.40382,3.9437 -22.10428,8.9154 -30.44562,11.0483 -17.52374,4.4809 -48.57139,6.23 -49.77305,2.8039 -0.46436,-1.3235 2.80064,-2.748 8.13113,-3.5476 21.03338,-3.1552 56.52213,-19.3196 66.40923,-30.2482 3.59579,-3.9746 3.60199,-4.2488 0.18131,-8.0296 -4.65274,-5.1428 -5.25393,-5.0422 -16.13725,2.7016 -29.17534,20.7589 -68.88305,28.3033 -104.92714,19.9357 -33.11922,-7.6885 -68.16643,-34.8628 -83.97054,-65.1076 -23.12743,-44.2595 -19.4972,-97.1771 9.4588,-137.8794 l 6.47014,-9.0949 -4.38019,-4.1162 c -2.4088,-2.264 -5.0012,-4.1163 -5.76068,-4.1163 -2.62422,0 -20.66319,29.5632 -24.83174,40.6955 -2.30054,6.1437 -5.5268,17.1153 -7.16961,24.3814 -1.64274,7.2661 -3.77175,13.2111 -4.73113,13.2111 -0.95937,0 -1.74428,-6.933 -1.74428,-15.4066 0,-19.1593 6.9579,-47.6938 16.21133,-66.483 l 6.71823,-13.6414 -24.18249,-24.1322 -24.18255,-24.1322 0,165.8432 0,165.8433 165.80977,0 165.80976,0 -23.84191,-23.8496 z m 223.86611,9.4886 c 8.22909,-27.1186 33.03423,-57.509 57.74896,-70.752 5.6637,-3.0348 10.61501,-5.7738 11.003,-6.0867 0.38805,-0.3131 -6.59985,-18.2331 -15.52836,-39.8228 l -16.23377,-39.2538 -101.11247,0 -101.11248,0 -3.35526,13.8094 c -6.91826,28.4734 -20.94599,54.9247 -40.94095,77.2003 l -8.78411,9.786 34.57073,34.7403 34.57066,34.7403 72.41363,-0.02 72.41369,-0.02 4.34673,-14.3244 z m 429.37749,-20.2325 34.6225,-34.5934 -8.9872,-9.9329 c -19.2954,-21.3255 -34.0461,-49.2174 -40.7134,-76.984 l -3.4113,-14.2068 -102.7591,0.5062 -102.759,0.5063 -15.3451,36.9388 c -8.4397,20.3163 -15.345,37.6592 -15.345,38.5399 0,0.8806 5.2475,4.3989 11.6611,7.8184 25.8935,13.8055 50.9303,43.9979 59.2694,71.4742 l 4.3977,14.4898 72.3734,0.02 72.3735,0.02 34.6225,-34.5935 z m 35.5358,9.4687 25.0611,-25.1248 -5.5235,-3.5079 c -3.038,-1.9294 -7.9715,-5.7862 -10.9634,-8.5706 l -5.4398,-5.0626 -33.6846,33.6954 -33.6845,33.6953 19.5868,0 19.5869,0 25.061,-25.1248 z m 312.3917,-140.7185 0,-165.8432 -24.3194,24.2688 -24.3194,24.2688 6.9123,13.7305 c 9.3588,18.5899 16.2911,46.726 16.2911,66.1207 0,15.2211 -2.7246,20.7198 -4.9671,10.0243 -5.8607,-27.9524 -10.3283,-39.5 -22.4948,-58.143 -5.2987,-8.1195 -10.2554,-14.7627 -11.0149,-14.7627 -0.7595,0 -3.3963,1.8941 -5.8597,4.209 l -4.4788,4.209 6.789,9.2514 c 28.1291,38.3318 32.1861,90.8242 10.4312,134.9679 -15.7867,32.0334 -50.5033,59.6539 -85.0644,67.6771 -19.0142,4.4141 -47.0511,3.9108 -65.302,-1.1723 -14.9322,-4.1588 -36.8381,-14.9014 -44.1491,-21.6505 -5.12,-4.7265 -6.4404,-4.6757 -11.9029,0.458 l -4.4551,4.1866 7.0901,5.6363 c 16.4461,13.0738 43.9108,25.1323 64.1607,28.17 8.9223,1.3384 11.3746,3.9364 5.7526,6.0944 -4.9587,1.9034 -40.0457,-2.8034 -54.7716,-7.3475 -7.4657,-2.3037 -19.1276,-6.8946 -25.9155,-10.202 l -12.3416,-6.0134 -23.8451,23.8527 -23.8451,23.8527 165.8098,0 165.8097,0 0,-165.8433 z M 235.98753,1638.3711 c 6.72573,-5.1921 12.22859,-10.0362 12.22859,-10.7647 0,-0.7286 -4.908,-7.8647 -10.90666,-15.8582 -5.99867,-7.9936 -11.57921,-15.7108 -12.40117,-17.1496 -1.1277,-1.9739 -5.16484,-0.052 -16.45056,7.8288 -8.22583,5.7446 -14.97177,11.1711 -14.99088,12.0589 -0.0196,0.8878 5.82752,9.4672 12.99263,19.0652 8.29027,11.1052 13.80423,16.8708 15.16346,15.8554 1.17479,-0.8775 7.63886,-5.8437 14.36459,-11.0358 z m 382.38705,2.1807 c 69.0624,-23.8173 113.50098,-85.6131 113.50098,-157.8334 0,-34.9906 -9.98218,-66.7573 -30.20215,-96.1138 l -8.90776,-12.9328 95.18699,-95.2024 c 52.35279,-52.3614 95.79731,-95.2025 96.54335,-95.2025 0.74604,0 6.9673,4.2482 13.82503,9.4405 36.48641,27.6253 78.26378,41.4467 125.27928,41.4467 46.3003,0 89.655,-14.059 124.7148,-40.4424 7.6338,-5.7446 14.4786,-10.4448 15.2106,-10.4448 0.7321,0 44.1925,42.8684 96.5786,95.263 l 95.2476,95.2631 -8.7075,12.2062 c -55.8938,78.3532 -32.4369,190.6916 50.0536,239.7139 13.5031,8.0246 48.0914,21.3567 55.4998,21.3925 1.9927,0.013 -4.6023,-4.1013 -14.6554,-9.1355 -15.1944,-7.6088 -21.2526,-12.1493 -35.9068,-26.9115 -19.9985,-20.1458 -28.1383,-32.7908 -36.9297,-57.3698 -5.8724,-16.4177 -6.1334,-18.4385 -6.1334,-47.484 0,-29.0456 0.2609,-31.0664 6.1334,-47.484 8.121,-22.7048 16.4602,-36.3517 32.8864,-53.8176 17.7178,-18.8394 37.4088,-31.6196 61.2995,-39.7861 17.8286,-6.0942 20.7017,-6.508 45.4456,-6.546 29.7604,-0.046 42.7215,2.6342 65.5452,13.5516 29.794,14.2516 53.0241,37.1857 67.9178,67.0522 4.4299,8.883 8.3375,15.8677 8.6837,15.5214 1.303,-1.3034 -7.4599,-29.5216 -12.8829,-41.4855 -19.8443,-43.7797 -62.138,-79.3425 -109.6981,-92.2401 -20.1609,-5.4673 -64.7056,-5.0048 -85.111,0.8838 -19.7003,5.6851 -40.4159,15.5724 -53.9683,25.7589 -5.7714,4.3379 -10.9607,7.887 -11.5318,7.887 -0.5713,0 -44.0522,-43.0341 -96.6245,-95.6315 l -95.5862,-95.6315 10.0788,-12.5038 c 5.5433,-6.877 14.8874,-22.1918 20.7648,-34.0329 41.3795,-83.3668 24.1123,-181.13389 -43.4054,-245.76269 -32.0393,-30.6685 -78.1465,-52.4494 -118.5967,-56.0249 l -13.2069,-1.1674 0,-136.7201 0,-136.72 6.535,0 c 9.6661,0 34.0872,-6.6911 48.8348,-13.3802 36.2157,-16.4262 64.3835,-43.8885 81.7394,-79.6924 23.9184,-49.3416 22.0202,-106.2387 -5.1665,-154.8686 -6.7818,-12.1309 -13.5763,-19.836 -8.0743,-9.1566 9.2681,17.9897 14.263,52.1541 11.0695,75.7141 -8.5566,63.126 -51.797,112.202 -112.4373,127.6116 -9.0291,2.2944 -21.0298,3.4803 -35.2183,3.4803 -43.89182,0 -80.31555,-15.9984 -109.81829,-48.2357 -21.49552,-23.4878 -33.95493,-51.0699 -38.13574,-84.4228 -2.88503,-23.016 2.29989,-56.5448 11.50864,-74.4214 2.76399,-5.3656 2.75532,-5.6481 -0.10044,-3.2785 -5.25855,4.3634 -20.65758,37.5927 -25.10122,54.1657 -5.9009,22.0081 -5.92269,60.04 -0.0456,82.2023 12.40116,46.7762 44.24742,86.103 87.12628,107.5919 18.05867,9.0503 43.37936,16.6903 55.31502,16.6903 l 6.5351,0 0,136.72 0,136.7201 -13.20686,1.1674 c -41.03407,3.6271 -86.80763,25.455 -119.52254,56.9965 -26.31554,25.3717 -42.53457,51.0377 -53.89047,85.2794 -17.74411,53.50429 -13.84016,108.32409 11.35955,159.51169 5.82935,11.8411 15.16548,27.1559 20.74693,34.0329 l 10.14811,12.5038 -95.58613,95.6315 c -52.57233,52.5974 -96.0908,95.6315 -96.70764,95.6315 -0.61697,0 -5.90299,-3.5837 -11.74695,-7.9639 -13.76105,-10.3141 -34.03652,-20.0162 -53.67003,-25.682 -20.40545,-5.8886 -64.95021,-6.3511 -85.11102,-0.8838 -47.56011,12.8976 -89.85383,48.4604 -109.69813,92.2401 -5.96494,13.1595 -14.13723,40.2307 -12.60706,41.7614 0.49762,0.4978 1.4628,-0.7617 2.14402,-2.7996 6.48285,-19.3927 25.71285,-46.1192 43.85474,-60.9509 14.5877,-11.926 38.27054,-24.0997 56.74068,-29.1663 19.96111,-5.4756 59.19879,-4.991 78.263,0.9666 26.66441,8.3327 44.12997,18.8835 63.58915,38.4136 19.96326,20.036 28.10966,32.6791 36.91086,57.2852 5.87233,16.4176 6.13334,18.4384 6.13334,47.484 0,29.0455 -0.26088,31.0663 -6.13334,47.484 -8.79148,24.579 -16.93129,37.224 -36.92971,57.3698 -14.65429,14.7622 -20.71243,19.3027 -35.90687,26.9115 -21.47837,10.7555 -18.54924,11.7102 7.92068,2.5817 z m 369.42694,-447.4674 c -63.9138,-13.8639 -114.55166,-62.5467 -131.34156,-126.2708 -5.57454,-21.1576 -6.0509,-58.2533 -1.02576,-79.87439 14.94242,-64.2904 63.00628,-113.7323 126.13491,-129.7513 26.07409,-6.6163 58.89449,-6.5882 85.14449,0.072 56.2584,14.2757 102.2094,56.8853 120.4519,111.693 37.7339,113.36729 -45.7679,228.79309 -164.8509,227.87599 -9.8352,-0.076 -25.36609,-1.7611 -34.51308,-3.7451 z m 75.73758,-5.9591 c 40.5192,-9.4528 76.1287,-34.3905 99.692,-69.8153 37.5748,-56.4895 37.7883,-129.65959 0.5413,-185.34279 -23.1278,-34.5751 -56.2482,-58.427 -97.401,-70.1442 -21.4754,-6.1145 -63.2704,-6.1145 -84.74581,0 -30.4218,8.6618 -54.20384,22.4079 -75.91681,43.88 -56.47112,55.8449 -65.46185,145.11709 -21.27077,211.20449 39.86306,59.615 108.76249,86.6274 179.10139,70.2178 z m -482.16043,437.7664 c 51.81983,-17.6343 85.54453,-64.298 85.54453,-118.3651 0,-32.9684 -10.58252,-60.5987 -32.12357,-83.8724 -15.60584,-16.8612 -32.38314,-27.9965 -52.98744,-35.1686 -13.69355,-4.7665 -18.59118,-5.4555 -39.13151,-5.5057 -18.87651,-0.046 -26.16358,0.7888 -37.17492,4.259 -38.37047,12.0924 -69.9524,43.2768 -82.41806,81.3807 -4.45428,13.6153 -5.26639,19.5241 -5.30336,38.5852 -0.0391,19.5268 0.66934,24.5815 5.33923,38.1654 14.87812,43.2776 48.98116,74.5071 92.09045,84.331 18.38313,4.1891 47.6038,2.5068 66.16465,-3.8095 z m -69.0249,-0.4254 c -32.60359,-8.5654 -64.74686,-34.3987 -78.96066,-63.4601 -8.28636,-16.9423 -12.93042,-36.6246 -12.93042,-54.8016 0,-33.2168 11.77904,-61.1115 36.13931,-85.5836 24.57028,-24.6831 51.23828,-35.7627 86.07868,-35.7627 34.03991,0 61.14559,11.2052 85.15094,35.2005 24.26172,24.2515 35.67612,51.3146 35.92102,85.1672 0.15718,21.7039 -2.77729,34.3557 -12.90185,55.6292 -14.59951,30.6761 -44.639,54.8393 -79.10388,63.6296 -14.93147,3.8083 -44.86218,3.799 -59.39314,-0.02 z m 53.74966,-3.7879 c 23.46508,-4.9721 40.58211,-14.5472 58.64358,-32.8045 23.82789,-24.0864 34.29204,-49.0076 34.29204,-81.6693 0,-31.3659 -10.46493,-57.1089 -32.70871,-80.4608 -21.49683,-22.5679 -46.46162,-34.3674 -76.80164,-36.3002 -55.08229,-3.5091 -104.29883,31.7804 -120.53215,86.4245 -4.68188,15.7601 -4.68593,44.925 -0.007,60.5708 18.35581,61.3978 76.45618,97.0928 137.11523,84.2395 z m 978.99837,4.3241 c 19.2721,-6.719 33.6742,-15.6251 48.1016,-29.7453 14.664,-14.3519 24.5593,-30.2583 31.668,-50.906 4.6561,-13.524 5.3842,-18.6824 5.3842,-38.1466 0,-19.4641 -0.7281,-24.6225 -5.3842,-38.1466 -13.4982,-39.2064 -40.6429,-66.7102 -79.7696,-80.8249 -12.7711,-4.6071 -17.1503,-5.1729 -39.7862,-5.1405 -23.6658,0.033 -26.551,0.46 -41.4698,6.1182 -20.849,7.9078 -34.8435,17.3663 -50.1276,33.8798 -22.3566,24.1548 -32.6451,50.6645 -32.6451,84.114 0,36.2405 10.8131,61.9333 37.0792,88.1032 18.5151,18.4474 32.5941,26.6508 57.182,33.318 20.1774,5.4714 49.7377,4.3599 69.7675,-2.6233 z m -74.0262,-2.0164 c -20.6273,-6.1219 -35.9602,-15.4338 -51.8613,-31.4964 -23.6786,-23.9191 -34.8856,-51.317 -34.8856,-85.2851 0,-34.6157 11.1864,-61.5066 35.836,-86.1458 24.0054,-23.9953 51.111,-35.2005 85.1509,-35.2005 34.6884,0 61.3869,11.1454 86.2968,36.0251 12.176,12.161 17.5339,19.3347 23.0656,30.8826 8.3737,17.4809 12.8556,36.46 12.8556,54.4387 0,55.2378 -38.7161,104.631 -92.7913,118.3811 -17.3962,4.4234 -45.7748,3.7104 -63.6667,-1.5997 z m 72.3419,-6.0072 c 40.7938,-13.9291 70.3447,-49.2161 77.6852,-92.7643 2.7432,-16.2748 2.7432,-19.7451 0,-36.0199 -3.6352,-21.5664 -14.2372,-44.4051 -27.7097,-59.6922 -12.0533,-13.6766 -34.198,-28.1516 -51.9791,-33.9764 -18.9943,-6.2222 -51.6888,-6.7423 -68.3817,-1.0878 -50.4614,17.093 -81.2044,56.3862 -83.6344,106.8947 -1.7287,35.9294 8.3303,62.0258 33.7433,87.5409 17.806,17.8776 35.0469,27.6678 57.8582,32.8545 18.0501,4.104 43.9794,2.5465 62.4182,-3.7495 z m -893.27767,-15.2238 c 3.85028,-4.4996 7.0005,-9.0541 7.0005,-10.1212 0,-2.2769 -5.86555,-9.0985 -7.82324,-9.0985 -0.74089,0 -5.09968,4.4518 -9.68622,9.8929 -8.04602,9.5452 -8.21807,10.0267 -4.89444,13.7004 4.99064,5.5163 7.56654,4.785 15.4034,-4.3736 z m 763.17897,4.3085 c 3.7219,-4.1139 3.9653,-3.6913 -12.9092,-22.4055 -1.8682,-2.0719 -9.5536,4.0708 -9.5536,7.6358 0,3.3086 13.5552,18.6423 16.4801,18.6423 1.3635,0 4.0558,-1.7427 5.9827,-3.8726 z m -742.59664,-35.7607 c 8.59693,-17.5677 12.55064,-30.9558 14.73875,-49.9086 l 1.41225,-12.2324 -6.85649,0 c -6.79864,0 -6.86777,0.087 -8.18253,10.2752 -2.28691,17.722 -6.94193,33.3086 -13.85144,46.3798 l -6.66996,12.6181 4.23311,4.5074 c 2.32826,2.479 4.91753,4.5074 5.7539,4.5074 0.83643,0 5.07646,-7.2661 9.42241,-16.1469 z m 721.30024,12.0558 4.3534,-4.0912 -7.8425,-16.3495 c -5.4778,-11.4198 -8.8016,-21.9888 -11.0234,-35.0528 l -3.1808,-18.7033 -6.6636,0 -6.6636,0 1.3206,11.6758 c 0.7263,6.4218 2.6097,16.7705 4.1853,22.9971 2.884,11.397 17.5946,43.615 19.9146,43.615 0.6856,0 3.2056,-1.841 5.6,-4.0911 z m -399.40751,-2.6955 c 14.79671,-3.8058 47.64891,-3.8999 61.93621,-0.1774 5.957,1.552 11.9181,3.0933 13.2468,3.4251 1.4889,0.3718 8.3692,-13.6634 17.9341,-36.5837 8.5351,-20.4528 15.5257,-37.407 15.5346,-37.6761 0.01,-0.2695 -35.2021,-0.4893 -78.2467,-0.4893 -43.04468,0 -78.26479,0.6605 -78.26694,1.4679 -0.002,0.8073 6.78781,17.9819 15.08878,38.1656 11.58547,28.1699 15.7921,36.4852 18.10223,35.7825 1.65526,-0.5036 8.25714,-2.265 14.67092,-3.9146 z m -814.40731,-19.9439 c 7.83537,-5.0137 14.56905,-9.3733 14.96363,-9.6882 1.17929,-0.941 -20.14588,-35.995 -21.89845,-35.9964 -1.41017,-9e-4 -28.11224,14.8631 -30.63634,17.0543 -1.45837,1.2661 20.17427,37.746 22.38338,37.746 0.51784,0 7.35235,-4.1021 15.18778,-9.1157 z m 508.26657,-58.8969 c -0.0587,-13.6364 -8.46134,-47.4621 -11.7898,-47.4621 -0.93902,0 -3.8101,0.9584 -6.38019,2.1298 l -4.67296,2.1298 3.32911,12.0599 c 1.83103,6.6329 3.95581,17.1241 4.72168,23.3138 1.39093,11.2409 1.40025,11.2538 8.09976,11.2538 5.08905,0 6.70362,-0.8263 6.6924,-3.425 z m 240.59391,-19.572 c -5.24786,-12.6484 -17.7222,-43.0492 -27.72075,-67.5573 -16.19999,-39.7089 -18.61134,-44.4578 -22.14922,-43.619 -4.10985,0.9745 -145.8315,59.271 -147.04744,60.4873 -0.37697,0.3771 0.79939,6.3219 2.61431,13.2102 2.16977,8.2353 3.35409,20.7338 3.45824,36.4959 l 0.15849,23.9714 100.11403,0 100.11404,0 -9.54163,-22.9971 z m 204.83904,-46.2894 c 15.5461,-37.5693 27.5619,-68.9553 26.7019,-69.7467 -2.9854,-2.7472 -132.4096,-55.507 -135.4582,-55.2196 -1.6862,0.1592 -32.96539,12.6646 -69.50938,27.7903 -36.54393,15.1257 -66.80237,27.5013 -67.24084,27.5013 -1.661,0 1.84871,9.084 28.26058,73.1444 l 27.15341,65.8589 80.91343,-0.5102 80.9135,-0.5102 28.2656,-68.3078 z m 179.8385,45.3047 c 0.088,-16.0914 1.239,-28.1424 3.5021,-36.6654 1.8543,-6.9826 2.6758,-12.9625 1.8257,-13.2886 -0.85,-0.3262 -35.003,-14.5302 -75.8954,-31.5647 -40.8924,-17.0344 -75.0097,-30.3873 -75.8161,-29.6731 -1.2765,1.1307 -56.2527,132.5253 -56.2527,134.4454 0,0.4006 45.5637,0.7254 101.2527,0.7221 l 101.2528,-0.01 0.1311,-23.9696 z m 64.4418,11.7493 c 0.7525,-6.7279 2.9173,-16.8973 4.8105,-22.5988 l 3.4424,-10.3662 -5.4996,-2.8449 c -3.0247,-1.5646 -5.9127,-2.8448 -6.4177,-2.8448 -2.6059,0 -11.0156,35.388 -11.0156,46.3536 0,3.8515 1.0014,4.5336 6.6559,4.5336 l 6.6559,0 1.3682,-12.2325 z m -1245.43094,-19.05 15.5006,-7.796 -8.97886,-19.1155 c -4.93836,-10.5135 -9.28663,-19.4772 -9.6628,-19.9194 -0.82914,-0.9747 -33.96871,13.637 -33.96871,14.9773 0,2.8515 18.47288,39.6497 19.90437,39.6497 0.93765,0 8.68008,-3.5083 17.2054,-7.7961 z m 542.03647,-26.2016 c 0,-5.8111 -16.06485,-28.8603 -29.44098,-42.2407 -13.37612,-13.3804 -36.41799,-29.4504 -42.22726,-29.4504 -1.26434,0 -3.19378,2.568 -4.28757,5.7068 -1.94705,5.587 -1.7152,5.8642 11.04734,13.2111 16.95686,9.7613 38.72291,31.5955 46.87126,47.018 6.30213,11.9281 6.48859,12.0819 12.21849,10.0838 3.2003,-1.116 5.81872,-3.0639 5.81872,-4.3286 z m 715.52197,3.1718 c 2.274,-6.2353 13.9737,-23.6246 21.5221,-31.9886 8.5448,-9.468 24.5769,-21.7439 34.71,-26.5775 7.7375,-3.6909 7.939,-4.1836 4.6577,-11.3873 -2.6391,-5.794 -3.6286,-5.6123 -19.0697,3.5036 -14.7379,8.7007 -38.8198,33.1401 -47.5944,48.3011 -8.5687,14.8052 -8.8055,16.3528 -2.9349,19.185 6.1842,2.9835 7.2911,2.8518 8.7092,-1.0363 z m -582.47486,-56.2543 c 38.20213,-15.79 70.06932,-29.2989 70.81595,-30.0197 0.74663,-0.7209 -8.99731,-26.4118 -21.65309,-57.0909 -12.65584,-30.6791 -23.6518,-57.497 -24.43554,-59.5954 -1.20335,-3.2219 -11.58605,6.3458 -66.77562,61.5345 l -65.35065,65.3497 6.50111,8.9247 c 7.34087,10.0776 17.11494,27.9204 20.29836,37.0553 1.8637,5.3479 2.68468,5.8834 6.63396,4.3271 2.47892,-0.9769 35.76339,-14.6953 73.96552,-30.4853 z m 519.35436,20.0461 c 2.9077,-6.7279 9.5286,-18.5002 14.7131,-26.1607 l 9.4265,-13.9281 -65.9942,-65.9938 -65.9942,-65.9939 -4.0292,9.4628 c -19.1473,44.969 -45.5883,110.8327 -44.8073,111.6138 1.0127,1.0131 148.0745,62.7615 150.187,63.0608 0.6665,0.095 3.5907,-5.333 6.4983,-12.0609 z m -868.11388,-5.502 c 4.57349,-4.3177 8.31544,-8.5629 8.31544,-9.4337 0,-0.8707 -1.68768,-3.1109 -3.75036,-4.9783 -4.51513,-4.0874 -7.87254,-2.6629 -17.62496,7.4778 -6.54898,6.8098 -6.61981,7.0577 -3.12074,10.9253 4.92301,5.4416 6.63729,5.0188 16.18062,-3.9911 z m 1150.01588,3.9911 c 3.4991,-3.8676 3.4283,-4.1155 -3.1207,-10.9253 -10.2471,-10.655 -13.1003,-11.6649 -18.5331,-6.5595 l -4.6148,4.3369 9.2017,8.4749 c 10.5198,9.6889 12.1302,10.1299 17.0669,4.673 z M 484.36496,1389.9394 c 15.32337,-7.6671 25.59807,-10.7097 42.44412,-12.5688 l 11.95845,-1.3197 0,-6.8502 0,-6.8502 -9.78287,0.7009 c -14.72884,1.0553 -36.2378,7.0885 -50.17351,14.0735 -17.87944,8.9618 -18.27467,9.4093 -13.13931,14.8774 2.37567,2.5295 4.55771,4.5992 4.84898,4.5992 0.29153,0 6.52113,-2.9979 13.84414,-6.6621 z m 1097.95954,2.0629 c 5.1353,-5.4681 4.7401,-5.9156 -13.1393,-14.8774 -14.3579,-7.1966 -35.6658,-13.0579 -51.1518,-14.0706 l -10.7612,-0.7038 0,6.8502 0,6.8502 13.3008,1.3152 c 16.0017,1.5824 30.1533,5.8388 44.5111,13.3878 5.8675,3.085 11.1751,5.6627 11.7947,5.7283 0.6195,0.066 3.07,-1.9504 5.4457,-4.4799 z M 88.79988,1384.7336 c 8.58438,-3.2981 16.2465,-6.6231 17.0269,-7.3889 1.14743,-1.1259 -10.85833,-36.7909 -13.17601,-39.1415 -1.51611,-1.5375 -34.22243,10.48 -34.22243,12.5746 0,2.671 13.49997,39.9522 14.46717,39.9522 0.16298,0 7.31999,-2.6984 15.90437,-5.9964 z m 340.16015,-5.0777 7.58701,-10.9255 -172.42937,-172.4926 -172.42936,-172.4927 121.30855,-121.33539 121.30857,-121.3354 0,-17.1314 c 0,-9.4223 -0.66269,-17.1314 -1.47259,-17.1314 -0.80995,0 -63.98085,62.5327 -140.37976,138.9618 L 53.546,1024.735 236.47732,1207.7326 c 100.61218,100.6485 183.37329,182.964 183.9135,182.9232 0.54001,-0.039 4.39636,-4.9908 8.56921,-10.9999 z m 1224.53897,-13.8519 24.9735,-24.9261 0,-19.5932 0,-19.5931 -33.5103,33.5212 -33.5105,33.521 7.5858,10.9239 c 4.1722,6.0081 8.0138,10.9572 8.5369,10.9981 0.5231,0.039 12.1891,-11.1425 25.9246,-24.8518 z m -1061.10826,12.8654 c 1.18627,-3.4039 1.77513,-6.5707 1.30855,-7.0375 -2.00131,-2.0019 -28.43758,-7.9166 -38.30087,-8.5692 l -10.76116,-0.7121 0,6.8502 0,6.8502 13.69603,1.3832 c 7.53281,0.7608 17.21786,2.6804 21.52232,4.2658 10.52175,3.8754 10.09228,3.9792 12.53513,-3.0306 z m 882.51996,1.2475 c 5.8756,-1.588 14.4601,-2.8873 19.0766,-2.8873 l 8.3935,0 0,-7.8519 0,-7.8519 -8.3155,1.1489 c -15.8898,2.1953 -29.8736,5.2059 -36.0823,7.7682 -5.9977,2.4752 -6.1532,2.8194 -3.9335,8.7019 1.8131,4.8049 3.1588,5.8807 6.2446,4.9921 2.1634,-0.623 8.7408,-2.4321 14.6166,-4.02 z M 450.75204,1355.8132 c 24.34671,-22.2586 40.9611,-30.4357 86.54806,-42.5959 1.91686,-0.5115 2.44572,-22.6585 2.44572,-102.4193 l 0,-101.7669 -4.27609,-2.2892 c -2.35181,-1.2591 -19.8355,-8.6735 -38.85263,-16.4765 l -34.5766,-14.1872 -3.94706,8.0895 c -14.04704,28.7892 -43.01837,53.3935 -75.36278,64.0028 l -13.20688,4.332 0,71.6318 0,71.6319 34.70879,34.7601 c 19.08985,19.1181 35.03483,34.7601 35.43319,34.7601 0.39849,0 5.38717,-4.2629 11.08628,-9.4732 z m 1192.97146,-25.2466 34.749,-34.72 0,-71.702 0,-71.702 -13.7677,-4.4283 c -31.0834,-9.9979 -59.7775,-34.0715 -74.0407,-62.1181 -2.3265,-4.5749 -4.8106,-8.3181 -5.5201,-8.3181 -2.3411,0 -73.9061,29.7681 -76.4043,31.7811 -1.8993,1.5303 -2.4458,24.4302 -2.4458,102.4895 l 0,100.5188 5.3806,1.1649 c 12.1283,2.6259 32.9007,9.2345 42.8219,13.6234 12.9999,5.751 36.6399,21.9162 45.6516,31.2169 3.6844,3.8026 7.1776,6.9137 7.7627,6.9137 0.585,0 16.7008,-15.6239 35.8128,-34.7198 z m -692.27456,3.0155 c 34.52149,-14.1349 63.35376,-26.2151 64.07156,-26.845 0.7179,-0.6302 -38.46253,-17.5846 -87.06757,-37.6771 -86.07653,-35.5826 -88.46929,-36.4383 -92.08491,-32.9299 -3.63525,3.5275 -3.19208,4.8623 21.41263,64.4857 19.37642,46.9539 25.78564,60.63 28.0134,59.7749 1.58873,-0.61 31.13348,-12.6737 65.65489,-26.8086 z m 236.84356,-34.76 c 13.5411,-32.7878 24.1427,-60.8587 23.5592,-62.3797 -0.7176,-1.8706 -2.7923,-2.4014 -6.4113,-1.6402 -2.9428,0.6191 -43.6504,16.9812 -90.4615,36.3604 -80.0627,33.145 -84.7629,35.3608 -79.2413,37.357 3.2284,1.1671 32.7237,13.3814 65.5453,27.1429 32.8215,13.7616 60.2862,24.5153 61.0325,23.8974 0.7463,-0.6179 12.436,-27.95 25.9771,-60.7378 z m -384.40904,-80.334 c 0,-2.2627 -117.70938,-49.3831 -119.25625,-47.7396 -0.90792,0.9646 -14.01769,31.6989 -29.13282,68.2986 -15.11519,36.5996 -28.80965,69.7169 -30.43218,73.5938 l -2.95012,7.0491 18.0033,8.9636 c 9.90177,4.93 21.52506,11.6289 25.82953,14.8865 l 7.8263,5.9228 65.05612,-64.983 c 35.78087,-35.7406 65.05612,-65.4369 65.05612,-65.9918 z m 607.05644,108.6079 c 9.1203,-4.0286 13.0095,-6.7594 12.5081,-8.7823 -0.7858,-3.1704 -60.0675,-147.344 -61.0262,-148.4164 -0.527,-0.5891 -116.1452,46.3971 -118.2219,48.0444 -0.4905,0.3888 28.4691,30.0865 64.3539,65.9949 l 65.2454,65.288 11.9524,-8.141 c 6.5739,-4.4776 17.9086,-10.772 25.1883,-13.9876 z m -762.79264,-82.6666 c 16.90774,-40.6364 31.14561,-74.7783 31.63964,-75.8709 0.72726,-1.6086 -130.33744,-57.708 -134.82283,-57.708 -0.7178,0 -1.3051,45.1408 -1.3051,100.3128 l 0,100.3128 22.98976,0.3484 c 12.64437,0.1918 28.27251,1.6155 34.72921,3.1642 6.4567,1.5487 12.70437,2.9303 13.88366,3.0704 1.17929,0.1402 15.97785,-32.9934 32.88559,-73.6297 z m 810.21054,68.8487 c 12.1505,-1.9434 24.2003,-2.6741 31.7944,-1.9282 l 12.2286,1.2012 0,-100.6924 0,-100.6923 -25.9246,10.7534 c -14.2586,5.9144 -44.4143,18.317 -67.0127,27.5615 -22.5985,9.2443 -41.4198,17.0698 -41.8253,17.3899 -0.4056,0.3197 13.2417,34.5682 30.3269,76.1072 30.2862,73.6341 31.1866,75.4991 35.9556,74.4772 2.6902,-0.5767 13.696,-2.4563 24.4571,-4.1775 z m -344.2401,-46.9966 c 48.3609,-20.006 88.3242,-36.7685 88.8073,-37.2501 0.923,-0.9198 -37.2105,-39.8929 -39.0335,-39.8929 -0.5798,0 -6.3189,3.9943 -12.7544,8.8762 -24.9456,18.9233 -65.4758,35.1618 -99.6184,39.912 -51.73283,7.1978 -107.38513,-6.7984 -152.34696,-38.314 l -15.57812,-10.9194 -19.80015,20.0086 c -10.8901,11.0047 -18.91976,20.3852 -17.84364,20.8457 48.31266,20.6729 174.99397,72.8239 177.18707,72.9429 1.6787,0.091 42.62,-16.203 90.9808,-36.209 z m 741.4269,-102.5885 138.9084,-138.9632 -196.6326,-196.56699 -196.6326,-196.5671 -9.7557,8.7012 -9.7558,8.7012 187.3063,187.3785 187.3064,187.37859 -121.2991,121.3793 -121.299,121.3793 0,18.0711 c 0,9.9391 0.6627,18.0712 1.4726,18.0712 0.8099,0 63.9814,-62.5335 140.3811,-138.9631 z M 58.46766,1290.8498 c 8.04924,-2.1875 15.6302,-4.3213 16.84657,-4.7417 1.56506,-0.5408 1.16874,-4.6705 -1.3557,-14.1266 -1.96201,-7.3493 -4.49969,-16.9857 -5.63932,-21.4142 l -2.07203,-8.0518 -17.11631,3.8907 c -9.41397,2.14 -17.47774,4.2165 -17.91948,4.6147 -1.8528,1.6698 8.97159,43.8064 11.25337,43.8064 0.75236,0 7.95365,-1.7899 16.0029,-3.9775 z m 307.14297,-69.0913 c 0,-36.9585 -0.36327,-67.5642 -0.80767,-68.0127 -0.44415,-0.4482 -6.60749,-0.52 -13.69603,-0.1592 l -12.88835,0.6563 0,55.0713 0,55.0712 12.17205,12.2851 c 6.69468,6.7569 12.85789,12.2852 13.69602,12.2852 0.8382,0 1.52398,-30.2388 1.52398,-67.1972 z m -31.76187,-15.3437 -0.52175,-51.2257 -16.63089,-3.5262 c -49.23069,-10.4383 -89.41085,-49.3822 -100.66859,-97.5711 -9.79175,-41.9137 2.75205,-87.08459 33.05659,-119.03849 20.4228,-21.5344 42.23261,-33.3869 70.54686,-38.3385 l 13.69603,-2.3952 0.51197,-52.7142 0.51197,-52.7141 -117.90217,117.9191 -117.90213,117.91929 116.40593,116.4553 c 64.02338,64.0505 117.08381,116.4555 117.91209,116.4555 0.82842,0 1.27138,-23.0516 0.98448,-51.2257 z M 1833.0441,1141.185 1949.45,1024.7297 1831.5479,906.81041 l -117.9022,-117.9191 0.512,52.7141 0.5119,52.7142 13.7231,2.3122 c 27.7232,4.6711 50.8391,17.4888 71.9927,39.9199 38.8555,41.202 45.7336,104.95039 16.6538,154.35299 -3.5735,6.0709 -13.1008,17.6853 -21.1717,25.8098 -17.8772,17.9958 -39.299,29.5909 -64.567,34.9484 l -16.6309,3.5262 -0.5217,51.2257 c -0.287,28.1741 0.1559,51.2257 0.9844,51.2257 0.8284,0 53.8888,-52.405 117.9122,-116.4555 z m -1020.17122,64.7349 c -2.43659,-9.4658 -71.22827,-173.5802 -72.12855,-172.0751 -1.52418,2.548 -51.89033,124.6107 -52.62724,127.5424 -0.43697,1.7378 19.22843,10.8295 59.99029,27.735 62.24159,25.8139 67.43297,27.1604 64.7655,16.7977 z m 487.98062,-16.7424 c 31.7455,-13.1417 58.069,-24.2345 58.4968,-24.6508 1.0376,-1.0097 -53.0572,-131.9641 -54.5119,-131.9641 -0.9402,0 -65.8674,154.7883 -71.1984,169.7387 -1.235,3.4636 -0.759,5.6835 1.8332,8.5487 1.9257,2.1286 4.4373,3.4991 5.5813,3.0457 1.1441,-0.4534 28.0536,-11.5767 59.799,-24.7182 z m -445.65194,-30.81 c -9.07473,-11.4428 -24.09346,-37.0535 -29.87292,-50.9408 -13.0649,-31.3934 -17.93808,-64.7659 -15.10568,-103.447 1.87531,-25.61059 8.7125,-49.35329 21.92238,-76.12729 31.54691,-63.9397 93.3409,-107.6623 165.9282,-117.4032 l 9.29376,-1.2472 0,-28.2595 c 0,-21.3876 -0.5948,-28.2207 -2.4457,-28.1003 -1.3452,0.087 -42.02239,16.6014 -90.39381,36.6975 l -87.94799,36.5383 -40.62933,97.86 c -22.34611,53.823 -40.66324,99.18109 -40.70485,100.79579 -0.0391,1.6147 16.37999,42.8409 36.49222,91.6138 l 36.56767,88.6781 20.60397,-20.6106 20.60398,-20.6105 -4.3119,-5.4371 z m 410.54504,-46.5384 c 19.6269,-47.3642 35.7018,-86.9977 35.7222,-88.0745 0.02,-1.0768 -17.8807,-45.39499 -39.7801,-98.48489 -33.557,-81.3513 -40.6064,-96.9297 -44.8382,-99.0874 -9.4648,-4.826 -171.6845,-71.542 -173.9541,-71.542 -1.6103,0 -2.2673,7.9054 -2.2673,27.2808 l 0,27.2809 9.2937,1.2472 c 95.5846,12.827 171.4161,85.8107 186.4054,179.4056 3.8235,23.87349 1.538,68.83859 -4.6185,90.86959 -7.7612,27.7733 -19.4553,51.0999 -38.4302,76.6583 l -4.7586,6.4096 19.4175,19.4969 c 12.8219,12.8743 19.877,18.6748 20.7703,17.0768 0.7439,-1.331 17.411,-41.1726 37.0379,-88.5369 z M 55.49347,1189.0387 c 0,-1.5598 -1.1918,-11.0842 -2.64846,-21.1654 l -2.64845,-18.3293 -10.06928,1.247 c -5.5381,0.6858 -13.91881,1.784 -18.62379,2.4405 l -8.5545,1.1936 1.25399,10.9958 c 0.68969,6.0477 2.19666,15.8777 3.3488,21.8446 l 2.09481,10.8487 17.92344,-3.1198 c 12.9122,-2.2475 17.92344,-3.9127 17.92344,-5.9557 z m 632.60112,-41.4907 c 3.23617,-7.8043 15.99878,-38.5702 28.3614,-68.3687 l 22.47746,-54.1791 -27.962,-67.49259 c -15.37914,-37.1209 -28.49263,-68.3514 -29.14117,-69.401 -0.6786,-1.0985 -15.09569,3.8611 -33.9677,11.6848 -18.03376,7.4764 -48.85699,20.2505 -68.49611,28.387 l -35.7075,14.7936 0,80.75339 0,80.7534 46.46866,19.2147 c 25.55776,10.5681 56.15371,23.368 67.99099,28.4443 11.83728,5.0762 22.10049,9.3129 22.80714,9.4148 0.70672,0.1017 3.93265,-6.2003 7.16883,-14.0046 z m 748.27281,-14.3598 66.0555,-27.2137 -0.51,-81.1083 -0.51,-81.10819 -68.0594,-28.2719 c -37.4327,-15.5495 -68.5594,-27.7717 -69.1704,-27.1605 -1.7988,1.7994 -55.4883,132.22659 -55.5407,134.92439 -0.026,1.3543 12.5202,33.1013 27.8812,70.5489 21.0148,51.2307 28.6556,67.903 30.8639,67.3448 1.6142,-0.4077 32.6598,-12.988 68.9903,-27.9555 z m -1069.46145,13.9061 c 42.58896,-8.0544 81.18365,-42.0532 94.74154,-83.4598 4.07783,-12.4539 4.71515,-18.0632 4.6421,-40.8579 -0.0756,-23.56659 -0.63001,-27.84819 -5.1317,-39.61679 -14.56651,-38.081 -44.11966,-66.7185 -80.87295,-78.3673 -18.44607,-5.8464 -57.05653,-6.1932 -73.37156,-0.659 -40.79714,13.8388 -70.84022,43.4033 -83.34241,82.0151 -6.61113,20.41789 -7.50216,52.26729 -1.9796,70.76199 19.33716,64.7593 80.1588,102.5057 145.31458,90.1837 z m -53.12063,-4.1734 c -43.48768,-10.5162 -80.87542,-48.7229 -90.0451,-92.0176 -16.34602,-77.17759 40.91296,-148.21099 119.3698,-148.08589 33.7757,0.052 60.79398,11.3664 85.29571,35.7134 33.87882,33.6649 45.01786,81.67429 29.31752,126.35869 -13.23427,37.666 -48.02029,69.121 -86.46601,78.1865 -15.52431,3.6607 -41.98817,3.5893 -57.47192,-0.1553 z m 50.2714,-3.5811 c 44.522,-7.9416 82.23915,-43.9972 92.77322,-88.6863 4.19131,-17.7813 2.6599,-47.6092 -3.33413,-64.93759 -5.96886,-17.2558 -22.03658,-40.2069 -36.12157,-51.5959 -23.93942,-19.3573 -50.34014,-27.8942 -81.11224,-26.2283 -49.14029,2.6604 -88.74568,33.2593 -104.92903,81.0675 -6.3172,18.66209 -7.13537,45.27529 -1.99486,64.88909 10.27997,39.2238 42.65986,72.2661 81.48842,83.1554 19.81899,5.5583 32.13596,6.0988 53.23019,2.3361 z m 1375.06968,5.6492 c 42.1076,-12.4217 76.3289,-47.347 87.3855,-89.1835 5.2466,-19.8516 4.3473,-49.7071 -2.098,-69.65689 -12.4681,-38.5914 -42.5244,-68.1731 -83.331,-82.0151 -16.315,-5.5342 -54.9254,-5.1874 -73.3715,0.659 -37.1528,11.7755 -66.5767,40.3349 -80.7393,78.3673 -6.5759,17.65909 -8.1937,49.93019 -3.5069,69.95339 8.2318,35.1685 33.422,66.965 65.683,82.9089 9.1336,4.5141 22.7698,9.4816 30.3026,11.039 16.5606,3.424 44.3112,2.4604 59.6756,-2.0721 z m -63.2827,-2.004 c -32.5937,-7.8936 -64.9835,-33.9924 -79.3691,-63.9536 -7.8306,-16.3088 -13.8742,-39.8501 -13.8742,-54.0429 0,-15.5824 5.7865,-38.39549 13.9649,-55.05629 14.9443,-30.4442 45.5568,-55.4238 78.2374,-63.8412 16.3258,-4.205 44.1886,-4.2126 60.2692,-0.013 94.2103,24.5836 123.4637,142.74459 51.6386,208.58029 -14.2374,13.0501 -34.89,24.0143 -53.4539,28.3779 -15.6397,3.6764 -42.1267,3.6543 -57.4129,-0.046 z m 61.5358,-5.953 c 40.0483,-11.886 70.4561,-43.0313 81.1132,-83.08 4.4095,-16.5705 4.395,-44.2681 -0.033,-59.59419 -8.1204,-28.1185 -29.7828,-57.0712 -52.6877,-70.4193 -34.3357,-20.0093 -76.2837,-21.8757 -111.5622,-4.9637 -26.2368,12.5776 -50.1436,39.2736 -59.7678,66.7411 -6.0041,17.13569 -7.5018,46.90789 -3.2667,64.93759 10.3626,44.1167 47.899,80.3768 91.8576,88.7344 16.4394,3.1255 39.2003,2.1387 54.3445,-2.3559 z m -190.8683,-49.4379 c 25.5867,-10.6492 36.8417,-16.2566 36.3386,-18.1041 -0.4011,-1.4721 -2.1279,-7.5205 -3.8377,-13.441 -4.3708,-15.1348 -4.1632,-50.2066 0.3868,-65.33779 1.9044,-6.3332 2.7434,-12.2014 1.8646,-13.0406 -1.5634,-1.4927 -71.9966,-31.2248 -73.9694,-31.2248 -0.5498,0 -1.0001,35.2296 -1.0001,78.28799 0,43.0584 0.7087,78.2879 1.5749,78.2879 0.8662,0 18.2552,-6.9424 38.6424,-15.4276 z m -1006.76538,-64.8438 0,-78.31419 -7.33715,3.0905 c -11.83207,4.9839 -59.7816,24.6641 -64.39703,26.4309 l -4.23233,1.6201 3.74586,12.0391 c 5.7537,18.49259 6.82943,41.10539 2.88243,60.59079 -1.83181,9.0435 -4.12955,17.936 -5.10608,19.7611 -1.53415,2.8676 3.07039,5.3318 33.88873,18.1357 19.61526,8.1494 36.76471,14.8493 38.10985,14.8887 1.91699,0.059 2.44572,-16.858 2.44572,-78.2427 z m -512.95181,74.3699 c 7.17577,-0.013 14.18461,-0.752 15.57519,-1.6345 1.95098,-1.2382 2.22026,-6.371 1.17927,-22.4778 l -1.34906,-20.8733 -18.29931,0 -18.29929,0 0.0215,16.1469 c 0.0294,21.9304 1.69464,31.3369 5.3029,29.9518 1.55205,-0.5956 8.693,-1.0967 15.86877,-1.1131 z m 165.18877,-216.76129 142.32265,-142.4178 0,-202.0493 0,-202.0493 202.01143,0 202.01136,0 142.34586,-142.3812 c 78.2902,-78.3097 142.34662,-142.823882 142.34762,-143.364872 0,-1.52491 -72.86507,1.36287 -95.874,3.79953 -181.61994,19.23361 -343.3895,82.305572 -489.14379,190.711242 -69.37063,51.5947 -145.20638,127.8757 -198.69333,199.8598 -102.11139,137.4242 -166.6868,301.2201 -185.5727,470.7064 -5.42193,48.6576 -8.63171,109.60319 -5.77241,109.60319 0.9321,0 65.73989,-64.08799 144.01731,-142.41769 z M 2001.2808,1018.3729 c -0.1311,-21.79249 -4.6394,-86.90949 -7.7736,-112.29369 -27.4653,-222.439 -127.2604,-424.0591 -287.2626,-580.3689 -162.8154,-159.058 -371.3977,-254.983602 -597.1354,-274.618402 -18.832,-1.63802 -45.6838,-2.98324 -59.6705,-2.98937 l -25.4305,-0.0111 142.82,142.875572 142.8199,142.8755 202.0214,0 202.0214,0 0,202.0494 0,202.0493 142.3226,142.4177 c 78.2775,78.3297 142.9913,142.41769 143.8083,142.41769 0.8171,0 1.4737,-1.9816 1.459,-4.4037 z M 780.91999,923.59581 c 21.22121,-51.3201 38.36765,-93.5257 38.10326,-93.7901 -1.2273,-1.2277 -131.55601,53.9447 -131.55601,55.692 0,2.8999 52.64042,131.32159 53.84815,131.36809 0.56153,0.02 18.38339,-41.94999 39.6046,-93.26999 z m 551.76201,26.4416 c 14.7815,-35.7008 26.6539,-65.0711 26.383,-65.2673 -2.0503,-1.4858 -129.4767,-53.6227 -129.9356,-53.1636 -0.8485,0.8487 74.4579,183.29079 75.668,183.31839 0.555,0.013 13.1031,-29.18679 27.8846,-64.88749 z M 44.38181,962.86291 c 7.08486,-107.9496 27.63735,-199.906 67.15979,-300.4878 48.43012,-123.2512 122.94413,-236.4515 218.85068,-332.474 C 490.92692,169.17251 700.178,69.958388 926.67642,47.179568 c 16.42056,-1.65141 34.46996,-3.01021 40.10979,-3.01957 5.63976,-0.01 14.77703,-0.56061 20.30495,-1.22501 l 10.05073,-1.208 -0.98273,-17.85768 C 995.6185,14.047578 994.8163,5.6231785 994.37614,5.1484085 992.91673,3.5742285 907.06932,10.833368 879.21161,14.886568 610.69874,53.954278 371.10202,196.13281 208.13418,413.10901 129.43317,517.89191 70.35789,640.77461 36.94824,769.19331 19.28177,837.09911 5.60081,931.23791 5.60081,984.89541 l 0,14.3948 18.19512,0 18.19512,0 2.39076,-36.4273 z m 1997.99219,18.3232 c -0.02,-8.8808 -0.5805,-19.533 -1.2643,-23.6716 l -1.2429,-7.5245 -17.8122,1.3823 c -9.7968,0.7602 -18.0856,1.6307 -18.4196,1.9344 -0.3339,0.3034 0.02,10.3337 0.7676,22.2892 l 1.375,21.7371 18.3089,0 18.309,0 -0.02,-16.1469 z m -1519.25907,-35.1593 15.6526,-6.5709 0.50284,-133.509 0.50284,-133.509 -6.54859,0 c -10.2908,0 -36.29102,-7.2594 -49.96637,-13.9508 l -12.46482,-6.0991 -50.63473,50.6227 -50.63466,50.6227 0,71.7089 0,71.7088 9.14269,2.3029 c 29.39493,7.4041 59.36431,30.8566 76.53287,59.8907 l 7.13602,12.0678 22.56348,-9.3574 c 12.40991,-5.1465 29.60716,-12.3142 38.21609,-15.9283 z m 1069.16197,13.9716 c 15.246,-26.6277 43.7122,-50.0345 71.5777,-58.8558 l 14.5477,-4.6054 0.033,-71.4519 0.033,-71.4519 -50.7646,-50.7526 -50.7647,-50.7528 -9.4,5.0848 c -11.748,6.3549 -33.1492,12.8677 -48.5316,14.7691 l -11.7394,1.4511 0,133.7353 0,133.7353 37.1749,15.417 c 20.4462,8.4794 38.0554,15.4249 39.1315,15.4347 1.0761,0.01 4.9904,-5.2809 8.6983,-11.7569 z m -89.8961,-154.471 0,-133.0895 -6.4755,0 c -3.5616,0 -13.7539,-1.8411 -22.6498,-4.0914 -8.8958,-2.2503 -16.4698,-3.7916 -16.8309,-3.4252 -1.2956,1.3144 -87.6291,210.1719 -88.4598,214.0011 -0.753,3.4713 6.7512,7.0651 66.2943,31.7483 36.9289,15.3087 67.3635,27.8593 67.6325,27.8901 0.2694,0.033 0.4892,-59.8341 0.4892,-133.0334 z m -887.80055,102.788 c 51.43165,-21.2936 63.05846,-26.7904 62.85746,-29.7168 -0.21131,-3.0742 -85.71136,-211.5748 -87.49074,-213.3547 -0.35218,-0.3523 -7.52975,1.1225 -15.95065,3.2769 -8.4209,2.1545 -18.69168,3.9171 -22.82403,3.9171 l -7.51332,0 0,132.2429 c 0,131.3008 0.0261,132.234 3.90859,131.0018 2.14975,-0.6824 32.30547,-12.9977 67.01269,-27.3672 z m 1404.82555,-11.8859 c 13.7725,-1.2087 15.1603,-1.7136 15.1292,-5.5046 -0.039,-4.7148 -5.4452,-38.7155 -6.2751,-39.4634 -0.2961,-0.2668 -8.7121,0.924 -18.702,2.6464 -17.7964,3.0685 -18.1435,3.2321 -17.1867,8.1015 0.5374,2.7334 1.992,12.2619 3.2332,21.1745 1.8736,13.4524 2.7989,16.0494 5.4475,15.2905 1.7547,-0.503 10.014,-1.513 18.3539,-2.2449 z m -1653.79517,-266.0714 0,-265.2005 243.36815,0 243.36814,0 1.3829,-11.0714 c 0.76052,-6.0893 1.83664,-12.2545 2.39133,-13.7004 0.841,-2.1923 -42.08221,-2.6289 -258.44701,-2.6289 l -259.45556,0 0,277.8097 0,277.8097 8.31544,0.7493 c 4.5735,0.4123 10.73671,0.903 13.69603,1.0911 l 5.38058,0.3418 0,-265.2004 z m 1339.54877,263.2433 4.6183,0 0,-54.3648 0,-54.3647 -13.696,-13.5954 -13.696,-13.5955 0,69.2048 0,69.2048 9.0777,-1.2445 c 4.9927,-0.6846 11.1559,-1.2447 13.696,-1.2447 z m -930.39799,-51.4452 48.16266,-19.8674 26.7951,-64.893 c 14.73725,-35.6911 27.20292,-66.5452 27.70139,-68.5645 0.78797,-3.1922 -13.03229,-9.421 -105.85567,-47.7086 -58.71911,-24.2203 -107.47259,-44.2862 -108.34105,-44.5908 -0.86852,-0.3047 -4.9772,5.2585 -9.13042,12.3624 -9.10864,15.5801 -32.89805,38.8083 -47.84648,46.718 -5.90631,3.1251 -10.99158,5.8735 -11.30066,6.1075 -0.30913,0.2342 5.54024,15.2918 12.99838,33.4618 28.44117,69.2899 75.052,181.8404 75.8347,183.1169 0.45001,0.7333 10.26798,-2.6286 21.81849,-7.4709 11.55051,-4.8421 42.67407,-17.7443 69.16356,-28.6714 z m 632.08089,-71.0055 c 24.5192,-59.1361 44.6001,-108.0647 44.624,-108.7301 0.026,-0.6655 -5.7641,-4.6075 -12.8623,-8.76 -16.5297,-9.67 -34.996,-28.1661 -44.7109,-44.783 -5.2673,-9.0097 -8.584,-12.794 -10.7137,-12.2244 -2.8734,0.7685 -213.8715,87.5528 -214.8322,88.3612 -0.2407,0.2023 8.8455,22.7769 20.1914,50.1653 11.3459,27.3885 23.7044,57.411 27.4634,66.7168 3.759,9.3058 7.8798,18.3076 9.1572,20.004 2.3957,3.1811 131.9659,57.9807 135.2579,57.205 1.0145,-0.2387 21.9058,-48.8187 46.4252,-107.9548 z m -190.7511,43.6734 c -1.4513,-3.4984 -13.4903,-32.783 -26.7532,-65.0768 -13.263,-32.2938 -24.8086,-59.5071 -25.6567,-60.4741 -0.8721,-0.9942 -27.938,9.1324 -62.2972,23.3084 -54.6324,22.5402 -60.755,25.5164 -60.755,29.5326 0,2.4564 0.9606,5.0602 2.1348,5.7861 1.8774,1.1606 174.133,73.0446 175.4506,73.2172 0.2837,0.039 -0.6721,-2.7949 -2.1233,-6.2934 z m -295.21805,-32.9601 c 74.28007,-30.7212 86.58085,-36.3763 86.08935,-39.5781 -0.4468,-2.9096 -13.97553,-9.2996 -61.19075,-28.9017 -33.33946,-13.8414 -61.22776,-24.5332 -61.974,-23.7595 -0.74624,0.7736 -12.50701,28.2692 -26.13508,61.1012 -31.41699,75.6883 -28.92164,69.1489 -25.93453,67.9648 1.36523,-0.5415 41.4805,-17.1133 89.14501,-36.8267 z m 1077.86705,20.6364 c 7.3307,-1.6649 14.7908,-3.4608 16.5783,-3.991 2.9327,-0.8699 2.694,-3.0824 -2.4457,-22.6794 -3.1327,-11.9437 -5.6956,-21.9544 -5.6956,-22.2462 0,-0.7263 -32.7502,8.338 -34.8774,9.653 -1.3439,0.8309 4.2163,26.8648 8.5098,39.8441 1.026,3.1017 1.8329,3.0755 17.9306,-0.5806 z m -1542.17655,-162.1962 -9.75515,-8.6929 -38.64236,38.499 -38.64236,38.4991 0,18.6068 0,18.6068 48.39752,-48.413 48.39751,-48.4129 -9.75516,-8.6929 z m 550.80365,-0.071 0,-92.8783 -6.3589,-1.1598 c -3.49737,-0.6381 -18.11658,-0.898 -32.4871,-0.578 l -26.12823,0.5819 -28.24395,68.2617 c -15.53409,37.5439 -27.96115,68.5444 -27.61562,68.8901 0.91437,0.9146 117.626,49.4133 119.3663,49.6018 0.8071,0.087 1.4675,-41.6363 1.4675,-92.7194 z m 702.4104,-104.7991 0,-197.6771 -196.6358,0 c -108.1496,0 -196.6358,0.6367 -196.6358,1.4152 0,0.7784 5.4775,6.9436 12.1721,13.7004 l 12.1721,12.2852 170.7677,0 170.7677,0 0,170.4666 0,170.4666 13.0387,13.5101 c 7.1713,7.4305 13.3346,13.5101 13.6961,13.5101 0.3613,0 0.6572,-88.9547 0.6572,-197.6771 z m -611.3349,173.0309 c 30.0791,-12.479 56.6062,-23.4421 58.949,-24.3623 4.2339,-1.6632 4.2086,-1.7954 -4.1868,-21.8373 -4.6455,-11.0902 -17.4464,-41.9623 -28.4463,-68.6046 l -20.0001,-48.4407 -27.6624,0.026 c -15.2144,0.013 -29.6436,0.5578 -32.0648,1.2068 l -4.4023,1.1802 0,91.7601 c 0,50.4681 0.703,91.7602 1.5622,91.7602 0.8591,0 26.1723,-10.2101 56.2515,-22.689 z m 875.9617,-3.7319 c 8.3399,-2.8687 15.1635,-5.9781 15.1635,-6.9099 0,-2.5728 -12.0764,-35.9293 -13.6461,-37.6926 -0.9912,-1.1132 -28.9587,8.0411 -34.7877,11.3866 -1.6772,0.9627 14.1857,40.0388 15.9588,39.3121 1.1813,-0.4841 8.9716,-3.2276 17.3115,-6.0962 z M 437.11667,618.60131 c -15.32377,-20.0815 -22.49514,-40.8591 -23.98683,-69.497 -0.88242,-16.9402 -0.34631,-23.4527 3.03223,-36.8162 10.17178,-40.2367 34.61619,-70.0917 71.7345,-87.6124 40.95791,-19.3331 88.89218,-15.5088 127.12757,10.1425 l 13.36693,8.9676 35.89695,-35.8691 c 19.74335,-19.728 35.89696,-36.5385 35.89696,-37.3567 0,-0.8183 -74.39877,-1.4878 -165.3306,-1.4878 l -165.3306,0 0,166.8448 0,166.8449 37.37658,-37.3885 37.37659,-37.3885 -7.16028,-9.3836 z m 1241.35583,-83.1672 0,-166.3619 -165.3306,0 c -90.9318,0 -165.3305,0.6695 -165.3305,1.4878 0,0.8182 16.1536,17.6287 35.8969,37.3567 l 35.897,35.8691 13.3669,-8.9676 c 38.2348,-25.651 86.1663,-29.4754 127.1276,-10.1434 49.3142,23.2742 77.7751,70.958 74.7627,125.2583 -1.5269,27.5248 -9.0784,49.1361 -24.0035,68.6953 l -7.1287,9.3421 36.8627,36.9127 c 20.2744,20.3021 37.0914,36.9128 37.3711,36.9128 0.2798,0 0.5087,-74.8629 0.5087,-166.3619 z m -795.77969,142.3861 c 0.53088,-1.3456 12.95142,-31.4113 27.6014,-66.8128 14.64999,-35.4015 26.63636,-64.6861 26.63636,-65.0769 0,-0.3908 -59.36764,-0.7105 -131.92801,-0.7105 l -131.92808,0 -1.36712,11.2538 c -0.75192,6.1897 -2.98085,16.5005 -4.95314,22.9131 -1.97236,6.4126 -3.4015,11.7709 -3.17598,11.9074 3.06107,1.853 214.30433,88.8067 215.91316,88.876 1.23003,0.052 2.67066,-1.0045 3.20141,-2.3501 z m 390.76869,-41.5923 c 56.4961,-23.3859 104.6168,-43.2473 106.9349,-44.1364 4.0304,-1.5457 4.0934,-1.9686 1.4392,-9.6749 -1.5265,-4.4322 -3.7503,-14.6146 -4.9417,-22.6276 l -2.1662,-14.569 -131.831,0 c -72.507,0 -131.8309,0.5284 -131.8309,1.1736 0,0.9298 37.0928,91.6146 51.8263,126.7054 1.7887,4.26 4.17,7.1082 5.5015,6.58 1.2912,-0.5121 48.5718,-20.0652 105.0679,-43.4511 z m -692.24855,25.2086 c 29.89288,-9.4462 56.85416,-32.4949 71.93923,-61.4996 9.8327,-18.9057 13.70522,-35.1742 13.74213,-57.7308 0.0789,-48.178 -26.33811,-90.8265 -68.9169,-111.2624 -21.46937,-10.3043 -33.71335,-13.1384 -56.66502,-13.1164 -34.27059,0.033 -62.06486,11.681 -86.92725,36.4305 -12.78381,12.7256 -17.44476,19.0707 -23.76782,32.3562 -10.34305,21.7315 -13.10638,33.9687 -13.01325,57.6274 0.13566,34.5364 11.18952,60.3708 36.93903,86.3343 21.31884,21.496 40.81885,31.012 75.41985,36.8048 10.25317,1.7166 36.72263,-1.3534 51.25,-5.944 z m -64.94603,0.2603 c -30.57847,-6.8846 -60.9695,-28.3716 -76.97604,-54.4236 -13.89801,-22.6201 -17.9071,-37.1712 -17.9056,-64.9889 9.1e-4,-17.7949 0.8877,-26.0949 3.65938,-34.2509 15.76263,-46.3833 51.0282,-77.6285 96.47097,-85.4731 21.59648,-3.728 39.75421,-2.2263 60.66668,5.0173 37.35023,12.9373 66.31759,43.9151 78.0888,83.5085 5.46902,18.3956 4.65502,48.5913 -1.84772,68.5385 -12.19429,37.4062 -42.49616,67.6209 -79.54607,79.3172 -16.76067,5.2912 -45.69137,6.5642 -62.6104,2.755 z m 55.66006,-5.9505 c 30.61088,-7.9756 60.78394,-32.2555 74.11442,-59.639 10.73429,-22.0502 13.74617,-36.4133 12.5179,-59.6945 -1.68735,-31.9839 -11.80832,-54.5646 -34.73638,-77.5 -9.8494,-9.8526 -17.28497,-15.1356 -29.54298,-20.9905 -19.35255,-9.2436 -31.71713,-12.1017 -52.18473,-12.0623 -32.84548,0.065 -57.68636,10.4547 -81.80682,34.222 -23.94359,23.5932 -34.8305,49.287 -34.8305,82.2023 0,8.6117 1.1581,20.5017 2.57362,26.4222 9.67396,40.4636 43.95048,76.1745 83.55541,87.0523 13.3458,3.6656 46.24985,3.6587 60.34006,-0.013 z m 963.71562,8.5289 c 4.8425,-1.1382 16.2884,-5.6142 25.4354,-9.9469 30.6006,-14.4945 56.657,-46.1245 65.6974,-79.7504 4.1683,-15.5045 4.7011,-45.6617 1.0717,-60.6731 -4.2991,-17.7818 -16.5506,-41.0046 -28.7058,-54.4124 -24.9604,-27.5321 -56.2456,-41.6306 -92.4574,-41.6651 -22.9516,-0.02 -35.1956,2.8121 -56.665,13.1164 -32.5296,15.6128 -56.8457,45.7924 -65.9915,81.9044 -3.7562,14.8315 -3.749,43.4332 0.013,59.4041 11.3643,48.2195 53.3177,86.5205 103.4318,94.4272 11.4916,1.8131 35.2756,0.6256 48.1684,-2.4042 z m -56.3325,-2.6511 c -41.9494,-9.112 -76.1483,-40.4002 -89.7957,-82.1532 -4.242,-12.978 -5.1253,-19.342 -5.1614,-37.1867 -0.039,-18.387 0.7312,-23.7831 5.2645,-36.9719 6.8749,-20.0005 13.0858,-30.3886 27.1817,-45.4619 33.9605,-36.3155 83.4159,-48.4668 130.2463,-32.002 27.7264,9.7481 53.4885,32.4009 66.5612,58.5278 24.5403,49.0456 15.9671,103.7143 -22.3053,142.2331 -28.9518,29.1383 -71.7513,41.7555 -111.9913,33.0148 z m 56.2438,-5.7741 c 20.2814,-5.3991 35.3193,-14.3936 52.1454,-31.1895 24.6178,-24.5735 34.9763,-49.8138 34.6101,-84.3335 -0.6713,-63.2924 -52.5894,-114.3447 -116.4083,-114.4672 -20.4802,-0.039 -32.8332,2.8191 -52.2374,12.0878 -30.1333,14.3936 -53.2245,43.1109 -61.8,76.8577 -3.7714,14.8413 -3.7519,39.5484 0.046,55.6565 9.3263,39.5778 43.5538,74.4666 83.6568,85.2734 13.5155,3.642 46.5023,3.7051 59.9895,0.1148 z m 402.8569,-40.1709 c 8.748,-3.7676 15.913,-7.5267 15.9222,-8.3536 0,-0.8269 -4.396,-10.2995 -9.7893,-21.0502 l -9.8058,-19.5467 -16.1188,8.0666 c -8.8653,4.4366 -16.3656,8.2845 -16.6673,8.5509 -0.9895,0.8737 18.1273,39.9453 19.3556,39.5595 0.6588,-0.2068 8.3554,-3.4589 17.1034,-7.2265 z m -995.85129,-81.4767 c 1.28912,-2.8302 2.09079,-5.3174 1.78146,-5.5269 -0.30914,-0.2094 -7.00147,-4.6042 -14.87154,-9.7658 -45.66737,-29.9514 -76.67159,-85.3646 -76.67159,-137.0333 l 0,-12.8044 -49.38996,0 -49.38989,0 -51.21289,51.2019 -51.2129,51.2019 5.54298,9.9606 c 6.66377,11.9748 12.69673,31.2967 14.56826,46.6581 l 1.37104,11.2539 133.57056,0 133.57056,0 2.34391,-5.146 z m 20.6585,2.3806 c -12.2121,-5.32 -14.193,-5.4697 -16.45421,-1.2431 -2.05734,3.8453 -1.64411,4.0053 10.15286,3.9319 11.96954,-0.074 12.13755,-0.1462 6.30135,-2.6888 z m 138.06489,-0.052 c 0,-4.8709 -3.3153,-5.1821 -13.0603,-1.2257 l -9.4403,3.8325 11.2503,0.107 c 8.5404,0.081 11.2503,-0.5728 11.2503,-2.7135 z m 275.01,-8.4336 c 1.8715,-15.3614 7.9045,-34.6833 14.5683,-46.658 l 5.5429,-9.9607 -51.2129,-51.2018 -51.2129,-51.2019 -49.0943,0 -49.0944,0 -1.2108,19.0827 c -3.3651,53.0363 -31.633,101.6236 -76.0858,130.7774 -7.8514,5.1493 -14.5283,9.5338 -14.8376,9.7433 -0.3092,0.2094 0.4924,2.6967 1.7814,5.527 l 2.3439,5.1459 133.5706,0 133.5706,0 1.371,-11.2539 z m 517.5272,-2.5191 c 7.4645,-4.3609 13.5717,-8.4928 13.5717,-9.182 0,-2.0968 -20.3378,-35.761 -21.6045,-35.761 -0.8761,0 -25.7994,15.1606 -30.9162,18.8061 -0.3691,0.2629 4.0329,8.4325 9.7829,18.1542 6.4976,10.986 11.427,17.3419 13.0243,16.7937 1.4136,-0.4854 8.6774,-4.4502 16.1418,-8.811 z m -835.3349,-43.1515 c 9.5492,-2.2427 17.3622,-4.9428 17.3622,-6.0003 0,-1.5663 -3.2772,-9.0014 -4.8331,-10.9649 -0.2145,-0.2707 -7.2796,1.2708 -15.7005,3.4251 -19.9379,5.1009 -42.7123,5.0961 -62.68319,-0.013 -8.44947,-2.1616 -16.01196,-3.2626 -16.80541,-2.4465 -0.79359,0.8162 -2.01919,3.8199 -2.72369,6.675 -1.25755,5.0967 -0.98428,5.263 15.025,9.147 22.14659,5.3728 47.96019,5.438 70.35869,0.1781 z m -89.37119,-13.3439 2.93539,-5.6781 -14.08245,-8.3689 c -27.0323,-16.0647 -49.05186,-44.0765 -58.3409,-74.2175 -3.1626,-10.262 -3.6541,-10.7963 -10.46696,-11.3791 -6.93501,-0.593 -7.10941,-0.4469 -5.83842,4.893 7.40544,31.1159 27.02396,62.6043 50.10085,80.4136 8.41999,6.4981 29.91297,19.7854 32.31831,19.9797 0.24132,0.02 1.75975,-2.5197 3.37418,-5.6427 z m 121.99069,0.9855 c 32.6745,-16.5627 59.3037,-48.9955 70.639,-86.034 2.2584,-7.3795 4.1062,-13.818 4.1062,-14.3079 0,-0.4899 -3.1863,-0.6171 -7.0806,-0.2831 -6.7248,0.5767 -7.2494,1.1485 -10.4391,11.3721 -7.7358,24.7943 -24.5686,49.6276 -43.2791,63.8494 -8.1888,6.2242 -24.9257,16.4386 -28.6805,17.5034 -0.6594,0.1872 4.1307,12.5928 4.8622,12.5928 0.3379,0 4.7803,-2.1117 9.8719,-4.6927 z m -36.7796,-5.4273 c 38.1636,-8.9695 74.9103,-42.6984 88.0084,-80.7807 20.1274,-58.5202 -5.7098,-123.0985 -60.701,-151.7171 -18.9108,-9.8416 -35.1954,-13.7175 -57.6343,-13.7175 -22.3996,0 -38.72314,3.8749 -57.49589,13.6484 -36.57817,19.0433 -60.47473,52.882 -66.70251,94.4539 -2.61914,17.4829 -1.44532,31.9201 4.17507,51.3515 6.24741,21.5995 14.7124,35.6183 32.05959,53.0942 21.39404,21.5526 40.5525,30.9174 75.24594,36.7804 6.9899,1.1812 32.6778,-0.6766 43.0447,-3.1131 z m -56.7407,-2.7096 c -57.85984,-12.4308 -99.09231,-67.4037 -95.09777,-126.7882 3.38899,-50.3816 36.21249,-92.6022 84.18321,-108.2839 22.61736,-7.3937 52.03926,-7.3937 74.65666,0 86.5357,28.2888 112.9627,136.9096 49.0642,201.6637 -29.2712,29.6631 -71.7218,42.2352 -112.8063,33.4085 z m 60.6538,-7.1317 c 37.5813,-11.3463 69.1531,-44.3639 79.1563,-82.7812 3.9028,-14.9882 3.8634,-43.1478 -0.082,-58.444 -8.2154,-31.8539 -32.2808,-61.2265 -61.6627,-75.2611 -19.4042,-9.2687 -31.7571,-12.1272 -52.2374,-12.0878 -31.94963,0.059 -58.83714,11.3016 -81.6705,34.1422 -23.18594,23.1934 -34.16017,49.7431 -34.16017,82.6428 0,31.5683 9.90907,56.8895 31.05815,79.3646 31.62895,33.612 75.90552,45.6159 119.59812,32.4245 z m -331.04211,-85.317 -18.03689,-0.5682 -39.0398,39.0521 -39.0398,39.0523 8.6281,9.8141 8.62804,9.8141 48.44865,-48.2982 48.44865,-48.2983 -18.03695,-0.5682 z m 689.01771,77.8738 c 0.046,-0.5402 -88.1903,-89.2751 -196.0733,-197.1886 L 1023.9894,53.961498 884.10376,193.90201 l -139.8856,139.9405 18.58831,0 18.58831,0 120.31744,-120.3678 C 967.88678,147.27248 1022.9146,93.106988 1023.996,93.106988 c 1.0815,0 85.9726,84.036522 188.6469,186.747722 l 186.6805,186.7477 8.4064,-9.1319 c 4.6234,-5.0225 8.4413,-9.5739 8.484,-10.1141 z m 424.3477,-2.0045 c 7.7015,-5.4104 14.0028,-10.3759 14.0028,-11.0346 0,-1.6763 -21.6812,-31.6255 -24.7227,-34.1505 -1.8572,-1.5418 -5.9891,0.597 -16.1703,8.3714 -7.5215,5.7434 -13.724,11.2096 -13.7833,12.1474 -0.1343,2.1304 23.719,34.5032 25.4234,34.5032 0.6859,0 7.5484,-4.4266 15.2501,-9.8369 z m -59.7246,-80.7014 11.3837,-10.3397 -14.1817,-15.9949 -14.1815,-15.995 -13.3438,11.834 c -7.3391,6.5087 -13.3438,12.711 -13.3438,13.7831 0,1.072 5.9431,8.3631 13.2069,16.2023 14.9435,16.1275 13.2963,16.1 30.4602,0.5102 z m -885.71775,-3.8966 c -0.64893,-2.422 -1.19182,-8.5872 -1.20656,-13.7004 l -0.0261,-9.2967 -6.84801,0 -6.84801,0 0,10.6046 c 0,14.7566 1.12229,16.7962 9.24214,16.7962 6.16634,0 6.74647,-0.4495 5.68711,-4.4037 z m 271.49965,1.3079 c 0.6532,-1.7028 1.1876,-7.8679 1.1876,-13.7004 l 0,-10.6046 -6.848,0 -6.848,0 -0.026,9.2967 c -0.013,5.1132 -0.5576,11.2784 -1.2065,13.7004 -1.0594,3.9546 -0.4793,4.4037 5.6871,4.4037 4.4568,0 7.2837,-1.0865 8.0545,-3.0958 z m 109.7776,-10.6046 -13.5911,-13.7004 -35.8918,0 c -33.2473,0 -35.8205,0.2525 -34.9233,3.4251 0.5329,1.8839 1.5552,8.049 2.2721,13.7004 l 1.3034,10.2753 47.2109,0 47.2108,0 -13.591,-13.7004 z m -415.44571,-29.2849 c 7.90796,-23.2842 21.43996,-45.7087 38.133,-63.1917 9.28304,-9.7224 15.19907,-10.8676 9.18058,-1.7772 -15.70047,23.7142 -24.09203,44.2943 -27.05983,66.3636 l -1.38173,10.2753 6.72299,0 6.72292,0 3.17369,-16.1469 c 5.0674,-25.7813 16.1949,-46.0537 36.37998,-66.2779 13.69185,-13.7185 19.92386,-18.3426 33.45691,-24.8249 38.385,-18.3866 77.0529,-18.3866 115.4379,0 13.5162,6.4742 19.7873,11.1236 33.4842,24.8249 22.2157,22.2227 32.8453,43.2724 37.9165,75.0853 1.0901,6.839 1.6308,7.3395 7.9293,7.3395 7.7845,0 7.5999,0.8247 4.0122,-17.9319 -3.5129,-18.3653 -10.8784,-36.7119 -20.6412,-51.4148 -4.2397,-6.3851 -7.2124,-12.4125 -6.6059,-13.3941 1.5867,-2.5681 17.2786,13.2506 26.5141,26.7281 8.9268,13.027 22.469,40.8947 24.284,49.9727 l 1.2076,6.04 33.9955,0 c 18.6975,0 33.9955,-0.2232 33.9955,-0.4952 0,-0.2727 -52.6102,-53.1168 -116.9114,-117.432 L 1023.986,98.978528 906.59759,216.44481 l -117.38844,117.4662 34.05523,-0.5233 34.05524,-0.5238 3.63107,-10.6914 z m 850.58191,-24.3346 c 6.8216,-6.885 12.0789,-13.3342 11.6829,-14.3316 -1.1668,-2.9385 -31.6389,-30.0454 -33.1208,-29.463 -0.7453,0.293 -6.4543,6.53 -12.6869,13.8602 l -11.3317,13.3276 15.4919,14.4672 c 8.5206,7.9569 15.9577,14.5101 16.5268,14.5625 0.5694,0.052 6.6161,-5.5379 13.4378,-12.4229 z m -77.8073,-63.2549 c 4.7029,-6.1521 9.6205,-12.6425 10.928,-14.4231 2.0588,-2.8035 0.1037,-4.9114 -14.5877,-15.7259 -9.3309,-6.8686 -17.2941,-12.4885 -17.696,-12.4885 -0.4018,0 -5.4778,6.7531 -11.2796,15.0067 l -10.5487,15.0067 15.953,11.9048 c 8.7742,6.5477 16.5667,11.9048 17.3168,11.9048 0.7501,0 5.2115,-5.0335 9.9142,-11.1855 z m -75.7592,-59.0064 c 5.0545,-7.9265 8.923,-14.6201 8.5967,-14.8748 -4.058,-3.1673 -39.0505,-22.92523 -39.6061,-22.36287 -2.7023,2.73534 -16.8652,29.77327 -16.3716,31.25457 0.9444,2.8341 35.6676,23.2156 37.0049,21.7208 0.6524,-0.7293 5.3217,-7.8112 10.3761,-15.7377 z m -88.8689,-47.19658 c 4.3164,-8.58778 7.8481,-16.12995 7.8481,-16.76034 0,-1.06836 -35.4655,-18.512702 -37.6375,-18.512702 -2.0949,0 -16.0041,33.982912 -14.1819,34.649182 1.0597,0.38746 8.9704,4.12456 17.5793,8.30471 8.609,4.18015 16.3031,7.6752 17.0982,7.76677 0.7951,0.0916 4.9773,-6.85984 9.2938,-15.44762 z m -87.993,-38.289182 c 3.8726,-10.02018 5.7483,-17.42692 4.6822,-18.4899 -1.6143,-1.60968 -40.5459,-15.85813 -41.114,-15.04716 -0.2948,0.42067 -10.7071,31.98424 -11.1909,33.92339 -0.2687,1.0772 34.7184,15.185322 39.9745,16.119222 0.6532,0.11606 4.0948,-7.311452 7.6482,-16.505552 z m -99.0535,-18.02375 c 5.196,-17.33605 8.5147,-31.87432 7.4188,-32.49888 -3.1424,-1.79078 -39.4828,-9.7481 -40.3872,-8.84343 -0.779,0.77921 -6.1246,24.50139 -7.6201,33.81555 -0.2661,1.65635 29.0366,10.35315 36.2697,10.76459 1.8107,0.10295 3.7542,-1.35403 4.3188,-3.23783 z m -90.9182,-29.35799 c 1.213,-7.2661 2.6724,-15.53431 3.243,-18.37379 1.0015,-4.98369 0.6098,-5.2364 -11.2984,-7.28805 -6.7847,-1.16894 -17.2754,-2.69567 -23.3128,-3.39273 l -10.9769,-1.26738 -1.4076,16.14139 c -0.7742,8.87776 -1.8169,17.2085 -2.3173,18.51272 -0.6307,1.64505 4.9598,3.28483 18.2543,5.35394 10.5402,1.64045 20.6144,3.10465 22.3871,3.25381 2.5089,0.21111 3.7119,-2.65643 5.4286,-12.93991 z m -98.6455,-16.25663 c 0.7713,-9.74849 1.0121,-18.1148695 0.5354,-18.5919695 -0.4767,-0.4771 -10.1959,-1.43842 -21.5977,-2.13627 l -20.7305,-1.26881 -0.63,18.7980095 -0.63,18.79801 7.8263,0.72084 c 4.3044,0.39646 13.6759,0.87471 20.8254,1.06278 l 12.9992,0.34192 1.4024,-17.72453 z"
     id="path4138"
     inkscape:connector-curvature="0" />
</svg>
