<?xml version="1.0" encoding="UTF-8" ?>
<!DOCTYPE svg PUBLIC "-//W3C//DTD SVG 1.1//EN" "http://www.w3.org/Graphics/SVG/1.1/DTD/svg11.dtd">
<svg width="549pt" height="476pt" viewBox="0 0 549 476" version="1.1" xmlns="http://www.w3.org/2000/svg">
<path fill="#000000" opacity="1.00" d=" M 0.00 0.00 L 2.82 0.00 C 14.87 1.20 27.07 1.89 39.09 0.00 L 42.95 0.00 C 125.08 3.61 207.32 2.36 289.47 2.29 C 361.67 2.58 433.97 3.24 506.13 0.00 L 510.00 0.00 C 522.01 1.47 534.17 1.61 546.19 0.00 L 549.00 0.00 L 549.00 0.91 C 454.67 154.37 366.09 312.23 277.19 469.23 C 276.82 471.38 274.71 477.29 272.99 472.78 C 216.04 367.40 155.04 264.44 95.37 160.60 C 68.11 110.12 35.43 62.63 8.15 11.99 C 5.75 8.10 4.27 3.19 0.00 0.91 L 0.00 0.00 M 14.71 6.32 C 12.31 5.78 11.59 7.33 12.46 9.39 C 99.02 153.67 183.31 299.99 265.29 446.76 C 268.40 450.74 269.83 461.79 276.07 460.06 C 356.92 315.52 439.97 171.27 524.77 28.83 C 528.83 21.56 535.70 15.15 536.83 6.66 C 363.00 8.33 188.61 9.05 14.71 6.32 Z" />
<path fill="#000000" opacity="1.00" d=" M 38.40 20.30 C 94.94 19.34 151.44 21.65 208.00 20.90 C 211.24 16.39 215.36 23.27 211.61 23.55 C 192.44 30.49 175.53 42.84 161.66 57.65 C 133.07 83.48 123.70 123.98 124.58 161.22 C 123.78 164.41 129.31 173.56 124.46 173.57 C 96.36 123.92 66.28 75.55 38.00 25.99 C 37.00 24.46 36.01 20.66 38.40 20.30 M 67.52 26.20 C 62.07 37.84 82.40 26.85 67.52 26.20 M 76.44 26.22 C 69.89 34.19 91.06 27.72 76.44 26.22 M 86.48 26.15 C 82.50 27.64 84.61 34.32 88.65 32.84 C 92.74 31.20 91.17 24.17 86.48 26.15 M 95.42 26.31 C 91.23 28.30 96.26 36.02 100.71 32.96 C 103.76 29.25 101.28 22.98 95.42 26.31 M 117.34 25.97 C 112.05 37.04 129.27 26.44 117.34 25.97 M 58.20 27.21 C 56.54 30.83 48.95 38.50 57.74 39.72 C 59.18 35.62 67.32 27.88 58.20 27.21 M 105.10 27.24 C 103.24 41.99 116.46 25.13 105.10 27.24 M 126.30 27.24 C 118.21 40.26 142.63 29.63 126.30 27.24 M 135.23 27.30 C 133.12 28.43 132.52 35.79 136.14 35.99 C 145.48 40.19 143.27 22.52 135.23 27.30 M 184.24 27.20 C 178.99 36.26 194.91 28.19 184.24 27.20 M 153.12 29.48 C 151.44 34.52 158.16 29.35 153.12 29.48 M 158.68 29.30 C 154.63 33.21 160.24 40.02 164.00 35.00 C 169.22 31.94 163.24 26.03 158.68 29.30 M 174.13 30.21 C 168.46 31.01 171.41 40.40 176.39 37.48 C 181.29 36.01 178.63 29.56 174.13 30.21 M 146.46 32.17 C 142.41 33.58 141.41 40.29 146.29 40.98 C 154.82 44.75 153.43 29.32 146.46 32.17 M 112.33 33.27 C 107.44 33.01 106.27 39.85 110.42 41.90 C 117.68 45.66 119.58 31.24 112.33 33.27 M 78.58 34.19 C 71.80 36.66 80.32 47.40 84.67 41.74 C 87.96 37.51 84.23 31.53 78.58 34.19 M 90.40 34.14 C 86.15 36.12 87.35 44.93 93.45 41.86 C 98.07 39.89 95.22 32.10 90.40 34.14 M 66.45 35.12 C 62.79 37.32 63.32 44.52 67.94 44.89 C 74.56 44.54 74.91 31.84 66.45 35.12 M 121.26 35.10 C 114.94 38.91 121.31 50.81 127.11 43.19 C 130.35 34.09 129.27 50.65 134.78 44.90 C 141.89 36.78 125.62 36.86 121.26 35.10 M 99.43 36.35 C 96.50 37.52 97.18 44.02 101.28 43.75 C 108.41 46.11 107.01 31.11 99.43 36.35 M 163.31 38.22 C 160.76 52.07 177.25 35.64 163.31 38.22 M 155.47 40.22 C 151.92 41.60 150.40 45.66 148.85 48.85 C 151.45 46.60 153.93 45.72 156.33 48.71 C 163.08 49.99 161.95 37.62 155.47 40.22 M 58.19 42.18 C 53.91 44.93 58.22 51.40 62.31 48.31 C 64.65 45.16 61.39 42.21 58.19 42.18 M 139.30 43.40 C 135.69 45.41 138.61 54.68 144.33 50.86 C 150.16 48.64 143.96 40.17 139.30 43.40 M 82.43 45.26 C 77.75 45.51 81.05 52.98 85.01 51.98 C 90.79 52.07 86.83 43.31 82.43 45.26 M 109.55 45.19 C 103.60 47.48 109.20 56.23 113.98 53.00 C 120.23 51.30 115.18 41.45 109.55 45.19 M 92.46 46.47 C 91.92 51.73 81.12 57.63 90.20 61.75 C 97.11 67.93 92.61 53.90 98.64 52.65 C 108.49 48.54 96.34 46.91 92.46 46.47 M 70.54 47.35 C 65.89 49.72 72.49 59.77 76.49 54.61 C 82.45 51.54 75.79 43.51 70.54 47.35 M 123.62 48.13 C 118.22 49.97 122.36 59.63 127.50 57.54 C 134.57 56.73 131.13 43.42 123.62 48.13 M 61.27 51.26 C 59.91 63.17 73.36 50.10 61.27 51.26 M 135.19 51.51 C 132.80 57.60 140.69 52.36 135.19 51.51 M 151.35 52.25 C 147.79 54.18 151.55 61.40 155.08 58.14 C 159.30 55.71 155.19 50.40 151.35 52.25 M 78.37 56.22 C 72.96 56.76 73.98 67.27 80.47 63.85 C 85.04 62.70 82.62 54.55 78.37 56.22 M 140.84 56.10 C 136.10 57.09 132.20 62.93 138.08 65.00 C 144.21 69.34 148.37 56.17 140.84 56.10 M 102.35 57.28 C 97.87 61.27 104.93 65.55 108.93 63.43 C 109.27 59.74 106.38 55.67 102.35 57.28 M 67.42 58.19 C 60.90 71.52 82.24 58.52 67.42 58.19 M 113.54 58.29 C 112.40 62.55 107.03 66.17 107.53 70.38 C 114.08 83.31 129.09 54.87 113.54 58.29 M 125.42 62.21 C 120.63 64.15 125.28 71.76 119.74 72.24 C 113.64 74.97 117.56 84.73 123.58 80.67 C 128.33 76.51 137.33 61.89 125.42 62.21 M 84.37 64.31 C 78.49 65.18 81.94 75.66 86.93 72.01 C 92.24 70.31 88.81 63.30 84.37 64.31 M 73.18 66.30 C 66.82 67.56 73.20 78.38 77.25 73.26 C 80.83 70.37 76.73 66.08 73.18 66.30 M 97.12 67.21 C 91.09 68.44 94.66 79.60 100.57 76.85 C 105.36 74.55 101.99 66.77 97.12 67.21 M 135.23 68.15 C 129.96 69.48 135.44 77.39 129.72 77.81 C 124.61 79.12 127.39 88.47 132.42 85.46 C 137.55 84.39 130.74 76.41 136.62 77.11 C 142.84 76.70 140.77 67.42 135.23 68.15 M 87.50 74.21 C 81.35 75.16 85.18 86.74 91.08 82.39 C 96.32 80.08 92.35 72.48 87.50 74.21 M 79.42 75.36 C 76.32 76.02 74.86 79.77 78.58 80.75 C 82.86 82.59 84.36 73.64 79.42 75.36 M 108.26 78.29 C 99.30 77.62 105.33 93.00 111.21 87.21 C 116.40 85.82 112.83 76.74 108.26 78.29 M 97.63 81.52 C 83.02 83.84 98.89 99.50 105.10 97.07 C 108.80 90.13 103.58 89.26 99.13 92.13 C 101.87 88.82 102.61 82.67 97.63 81.52 M 83.50 86.26 C 78.58 87.01 82.97 94.26 86.26 91.38 C 89.88 89.87 86.77 84.25 83.50 86.26 M 120.29 86.12 C 117.93 89.73 117.97 96.96 123.80 96.03 C 130.31 94.02 127.87 83.36 120.29 86.12 M 113.22 90.01 C 110.13 94.97 120.13 89.66 113.22 90.01 M 90.34 92.26 C 84.76 92.38 87.13 102.78 91.61 98.61 C 96.46 98.35 94.18 91.12 90.34 92.26 M 111.39 95.29 C 105.31 95.49 106.61 103.29 111.89 103.53 C 118.02 106.27 116.77 93.22 111.39 95.29 M 96.90 99.24 C 87.92 98.72 90.88 109.71 97.59 107.76 C 102.85 107.57 101.56 98.32 96.90 99.24 M 122.47 102.46 C 118.64 104.14 123.38 110.17 126.36 108.46 C 129.55 106.16 127.57 98.73 122.47 102.46 M 103.47 105.31 C 99.61 107.57 100.47 117.49 107.19 113.44 C 114.35 112.35 108.87 102.58 103.47 105.31 M 115.60 105.79 C 112.93 109.44 109.60 117.66 116.94 118.00 C 126.11 116.17 115.01 107.04 115.60 105.79 M 103.20 116.95 C 99.72 120.95 108.43 117.94 103.20 116.95 M 107.22 119.77 C 101.18 121.66 107.92 131.78 111.55 126.57 C 115.14 123.09 111.36 117.01 107.22 119.77 M 117.27 120.11 C 113.48 121.61 115.41 126.80 118.98 126.91 C 122.58 125.48 121.27 119.37 117.27 120.11 M 116.18 130.34 C 110.62 131.31 113.64 138.60 117.88 138.67 C 122.51 137.41 121.20 129.63 116.18 130.34 M 117.17 143.29 C 112.10 152.76 127.33 145.36 117.17 143.29 Z" />
<path fill="#000000" opacity="1.00" d=" M 268.56 20.40 C 323.19 18.39 379.22 50.66 402.59 100.51 C 414.47 132.43 415.64 168.52 406.02 201.08 C 389.77 253.87 339.23 290.76 285.84 298.57 C 248.34 302.37 212.16 285.34 183.64 262.38 C 136.10 222.66 123.72 149.72 149.59 94.54 C 172.25 51.30 220.30 23.36 268.56 20.40 M 245.26 30.06 C 244.32 38.67 253.80 28.82 245.26 30.06 M 251.88 30.06 C 250.80 38.43 259.36 30.20 251.88 30.06 M 258.91 30.12 C 255.10 33.31 265.19 40.38 264.95 34.23 C 263.66 32.11 261.06 31.18 258.91 30.12 M 289.41 30.41 C 287.17 31.66 282.71 33.08 284.46 36.43 C 287.41 38.37 293.79 31.27 289.41 30.41 M 295.24 30.20 C 290.05 36.45 301.80 32.26 295.24 30.20 M 300.21 30.03 C 298.67 38.91 308.97 28.59 300.21 30.03 M 240.08 31.99 C 236.07 39.28 245.92 35.60 240.08 31.99 M 308.16 32.26 C 303.94 38.53 313.66 36.02 308.16 32.26 M 270.12 33.17 C 265.76 39.66 278.56 35.00 270.12 33.17 M 277.15 33.26 C 272.12 40.27 285.50 34.18 277.15 33.26 M 231.12 34.48 C 229.44 39.52 236.16 34.35 231.12 34.48 M 317.17 34.24 C 312.78 37.21 321.25 37.22 317.17 34.24 M 248.15 38.32 C 247.28 44.40 253.68 40.15 256.91 40.51 C 257.26 36.30 250.90 38.80 248.15 38.32 M 292.26 38.36 C 291.10 41.51 302.59 44.00 300.85 38.32 C 297.99 38.08 295.11 38.11 292.26 38.36 M 265.11 39.16 C 260.33 46.31 273.70 40.64 265.11 39.16 M 282.11 39.16 C 277.33 46.31 290.70 40.64 282.11 39.16 M 223.07 40.17 C 218.87 48.56 233.65 42.17 223.07 40.17 M 231.03 40.02 C 230.48 47.88 239.94 38.27 231.03 40.02 M 314.03 40.02 C 313.48 47.88 322.94 38.27 314.03 40.02 M 324.25 40.19 C 315.87 47.52 333.41 43.25 324.25 40.19 M 271.54 41.36 C 272.91 55.68 282.88 37.89 271.54 41.36 M 213.67 42.11 C 213.06 49.77 221.31 42.94 213.67 42.11 M 257.15 42.14 C 252.37 50.31 267.77 42.59 257.15 42.14 M 289.15 42.14 C 284.36 50.31 299.77 42.59 289.15 42.14 M 334.45 42.36 C 326.97 45.66 338.51 46.94 334.45 42.36 M 240.02 42.92 C 235.17 49.39 236.74 58.21 234.02 65.10 C 230.09 60.95 226.45 56.08 220.92 53.95 C 218.45 68.04 227.39 81.25 234.04 93.07 C 236.17 95.95 234.43 102.27 229.59 99.82 C 220.19 89.80 209.70 78.40 195.18 77.18 C 199.27 89.95 188.51 84.66 180.20 82.91 C 188.26 91.11 202.86 93.58 213.01 99.80 C 213.05 91.44 203.12 89.93 199.93 84.16 C 211.25 86.12 215.87 97.23 221.12 105.91 C 228.79 109.00 236.55 113.07 244.84 113.92 C 248.14 94.65 232.01 84.29 225.95 68.11 C 233.50 70.64 233.69 82.97 241.02 84.84 C 239.65 73.89 238.87 62.68 240.78 51.78 C 243.54 65.69 243.50 80.00 245.98 93.98 C 251.84 88.92 252.36 76.89 252.73 68.80 C 239.40 66.70 253.56 46.22 240.02 42.92 M 308.28 43.21 C 296.44 47.52 308.60 67.27 296.10 69.31 C 297.77 76.73 296.75 89.51 302.94 94.03 C 306.43 80.20 305.54 65.71 308.05 51.73 C 311.44 61.98 308.62 74.12 307.97 84.89 C 315.32 82.88 315.49 70.67 323.05 68.11 C 317.72 84.38 299.64 94.32 304.14 113.89 C 312.37 112.85 320.20 109.01 327.88 105.92 C 332.91 97.10 337.76 86.13 349.08 84.14 C 345.69 89.60 335.59 90.94 336.02 99.79 C 346.15 93.57 360.79 91.11 368.78 82.90 C 361.02 84.56 350.39 89.08 353.83 77.20 C 339.34 78.52 328.53 89.69 319.24 99.85 C 315.01 101.93 312.98 96.60 314.63 93.81 C 320.92 81.43 330.93 68.64 328.21 53.92 C 322.60 56.02 319.32 61.26 315.03 65.08 C 311.69 58.96 314.43 47.47 308.28 43.21 M 233.22 46.26 C 226.34 51.45 239.02 51.10 233.22 46.26 M 264.20 46.20 C 259.34 55.93 276.67 46.61 264.20 46.20 M 282.32 46.22 C 273.78 54.07 294.06 48.67 282.32 46.22 M 315.07 45.94 C 311.33 54.02 322.89 48.86 315.07 45.94 M 207.14 47.14 C 205.26 56.54 216.54 45.26 207.14 47.14 M 251.86 47.03 C 251.61 53.80 258.64 46.78 251.86 47.03 M 295.28 47.20 C 290.31 52.34 301.52 48.23 295.28 47.20 M 338.06 46.94 C 337.22 56.20 347.31 46.05 338.06 46.94 M 223.92 48.02 C 224.02 55.49 232.30 46.97 223.92 48.02 M 273.18 48.05 C 271.69 56.32 280.13 47.46 273.18 48.05 M 322.25 48.17 C 317.28 54.24 330.78 48.28 322.25 48.17 M 256.05 50.12 C 254.53 60.32 265.42 49.74 256.05 50.12 M 290.30 50.23 C 284.76 58.43 299.06 51.79 290.30 50.23 M 201.37 51.12 C 197.67 58.72 212.95 51.52 201.37 51.12 M 344.30 51.23 C 339.18 59.86 356.10 50.01 344.30 51.23 M 211.20 53.13 C 206.78 60.74 221.55 53.93 211.20 53.13 M 335.19 53.20 C 330.16 61.24 345.59 53.25 335.19 53.20 M 196.52 54.38 C 187.29 58.05 200.01 60.72 196.52 54.38 M 267.36 54.17 C 262.26 62.07 277.70 54.02 267.36 54.17 M 278.12 54.05 C 277.74 63.42 288.32 52.53 278.12 54.05 M 351.65 54.18 C 351.65 63.37 360.73 55.42 351.65 54.18 M 202.16 57.24 C 198.05 63.48 209.63 59.00 202.16 57.24 M 345.24 57.02 C 341.03 64.35 352.87 58.35 345.24 57.02 M 259.36 60.08 C 254.02 71.99 256.66 88.87 248.40 100.73 C 249.64 106.42 246.98 117.41 255.18 118.79 C 254.48 102.26 260.01 86.43 264.00 70.63 C 263.97 66.90 265.85 58.04 259.36 60.08 M 286.20 60.21 C 282.99 78.78 296.03 100.29 294.52 118.61 C 307.76 110.38 295.15 90.99 293.80 79.29 C 290.02 73.35 295.91 58.78 286.20 60.21 M 185.44 61.06 C 184.63 65.64 186.30 81.91 190.76 73.33 C 183.28 73.18 193.98 60.27 185.44 61.06 M 209.03 60.86 C 208.78 67.64 215.80 60.61 209.03 60.86 M 337.18 61.18 C 335.37 68.18 344.18 59.37 337.18 61.18 M 360.43 61.29 C 359.98 64.90 360.10 68.63 361.58 72.00 C 356.56 72.24 358.18 77.62 362.69 75.76 C 361.84 72.19 367.12 59.86 360.43 61.29 M 193.05 62.04 C 189.11 71.49 201.25 65.49 193.05 62.04 M 355.21 62.34 C 348.06 68.28 361.15 68.42 355.21 62.34 M 274.08 64.13 C 273.12 69.32 273.49 74.59 273.31 79.82 C 278.41 79.21 274.70 67.82 274.08 64.13 M 179.16 66.15 C 178.02 73.69 187.80 63.88 179.16 66.15 M 202.18 66.03 C 200.92 75.15 211.06 64.64 202.18 66.03 M 343.18 66.03 C 341.92 75.15 352.06 64.64 343.18 66.03 M 366.06 65.88 C 366.20 73.36 374.43 64.80 366.06 65.88 M 210.17 68.24 C 205.78 71.21 214.25 71.22 210.17 68.24 M 338.12 68.48 C 336.44 73.52 343.16 68.35 338.12 68.48 M 196.18 69.22 C 192.27 74.23 203.65 69.84 196.18 69.22 M 351.18 69.22 C 347.27 74.23 358.64 69.84 351.18 69.22 M 212.41 71.25 C 211.16 77.27 218.41 69.89 212.41 71.25 M 334.41 71.25 C 333.16 77.27 340.41 69.89 334.41 71.25 M 177.13 72.09 C 176.64 81.32 187.13 70.32 177.13 72.09 M 368.44 72.26 C 363.56 79.49 378.46 72.30 368.44 72.26 M 172.15 74.26 C 167.12 81.27 180.50 75.18 172.15 74.26 M 375.12 74.17 C 370.76 80.66 383.56 76.00 375.12 74.17 M 216.04 76.33 C 214.46 83.92 222.83 76.17 216.04 76.33 M 331.28 75.97 C 326.77 82.27 337.56 78.58 331.28 75.97 M 219.09 82.36 C 217.11 89.56 225.77 82.16 219.09 82.36 M 270.16 82.20 C 266.55 86.34 275.66 84.07 270.16 82.20 M 278.12 82.23 C 274.06 86.50 283.42 83.86 278.12 82.23 M 328.27 81.97 C 324.11 87.94 334.55 84.58 328.27 81.97 M 171.93 84.19 C 172.36 92.18 181.11 94.27 186.84 97.33 C 188.08 103.51 174.26 99.72 179.59 108.45 C 179.20 121.05 164.68 98.17 159.40 107.40 C 169.80 114.21 179.52 123.22 190.80 128.05 C 189.20 123.08 183.83 114.96 187.67 111.30 C 192.61 117.56 191.83 131.85 202.16 134.75 C 209.41 136.66 213.40 142.91 218.52 147.65 C 223.79 148.25 216.10 138.06 221.05 136.18 C 224.75 137.33 221.29 149.79 227.47 147.38 C 227.53 138.26 227.22 128.08 238.48 125.56 C 247.61 119.14 232.44 121.69 227.91 123.94 C 228.13 118.10 236.78 120.36 238.01 116.09 C 229.53 113.59 220.82 111.32 213.98 105.25 C 206.36 102.89 197.95 106.86 190.49 107.64 C 189.83 99.74 205.61 105.34 205.99 99.30 C 194.32 94.94 183.58 88.58 171.93 84.19 M 375.64 84.65 C 364.56 89.13 354.18 94.96 343.07 99.33 C 343.69 105.98 359.45 99.11 358.72 107.91 C 341.56 98.80 327.32 111.93 311.01 116.08 C 312.04 120.29 320.14 118.05 320.88 123.22 C 319.27 125.09 305.81 117.07 307.99 123.96 C 315.56 127.67 322.89 132.47 321.24 141.94 C 320.50 155.20 328.86 141.80 327.18 136.20 C 333.77 136.41 324.17 151.29 331.60 146.72 C 336.52 140.65 342.39 135.52 350.10 133.31 C 356.33 127.92 358.32 117.94 361.25 111.30 C 365.03 114.83 359.75 123.05 358.19 128.06 C 369.65 123.04 379.67 114.08 390.08 106.84 C 383.13 103.70 377.09 109.43 371.80 113.03 C 365.55 112.84 373.60 102.34 367.27 101.74 C 351.33 97.32 383.13 91.42 375.64 84.65 M 163.30 85.11 C 159.11 92.90 172.65 85.81 163.30 85.11 M 383.30 85.11 C 379.11 92.90 392.65 85.81 383.30 85.11 M 272.20 89.29 C 270.13 94.82 277.72 89.04 272.20 89.29 M 275.20 89.29 C 273.13 94.82 280.72 89.04 275.20 89.29 M 161.48 93.12 C 161.35 98.16 166.52 91.44 161.48 93.12 M 168.15 93.25 C 163.66 99.68 176.26 94.52 168.15 93.25 M 266.17 93.31 C 262.00 98.17 271.37 95.54 266.17 93.31 M 282.22 93.27 C 278.42 97.92 287.61 95.86 282.22 93.27 M 379.15 93.25 C 374.66 99.68 387.26 94.52 379.15 93.25 M 385.30 93.22 C 385.02 98.26 390.35 91.10 385.30 93.22 M 157.15 97.26 C 152.12 104.27 165.50 98.18 157.15 97.26 M 164.93 97.13 C 164.57 105.20 173.14 96.52 164.93 97.13 M 272.03 97.01 C 273.53 103.00 281.11 94.94 272.03 97.01 M 382.42 97.39 C 375.16 101.15 388.72 100.64 382.42 97.39 M 390.12 97.17 C 385.76 103.66 398.56 99.00 390.12 97.17 M 171.22 98.30 C 169.10 103.35 176.26 98.02 171.22 98.30 M 376.32 98.28 C 374.68 103.34 381.35 98.09 376.32 98.28 M 265.16 100.20 C 261.55 104.34 270.66 102.07 265.16 100.20 M 283.12 100.23 C 279.06 104.50 288.42 101.86 283.12 100.23 M 152.17 108.93 C 145.92 115.33 158.47 113.80 152.17 108.93 M 396.13 109.26 C 391.80 116.26 403.36 112.36 396.13 109.26 M 269.64 113.34 C 251.40 116.72 283.61 118.06 285.76 115.23 C 282.01 111.88 274.45 113.53 269.64 113.34 M 162.03 114.07 C 163.61 118.89 169.31 120.96 171.78 125.33 C 172.98 129.91 162.12 127.73 165.04 132.08 C 174.50 142.45 188.48 146.19 201.62 149.24 C 205.36 152.49 200.06 158.37 195.82 156.30 C 183.45 156.14 170.23 156.40 159.10 162.21 C 155.15 170.71 178.25 166.20 171.03 173.97 C 165.01 176.07 159.45 180.99 157.23 186.95 C 166.62 193.41 172.42 182.41 181.15 181.45 C 189.35 187.83 200.08 173.42 205.12 166.16 C 191.29 169.24 179.78 178.33 166.34 182.08 C 173.14 174.37 185.76 170.84 194.08 165.35 C 187.07 162.20 177.72 166.14 171.80 161.59 C 188.06 159.47 207.32 166.57 220.82 155.03 C 216.35 148.62 208.50 143.82 202.45 138.73 C 192.48 137.93 179.47 140.49 173.07 130.67 C 178.77 132.72 188.12 138.85 192.88 134.03 C 182.15 128.72 173.39 118.85 162.03 114.07 M 385.56 114.51 C 375.03 119.85 366.37 128.79 356.16 134.01 C 360.92 138.61 370.16 132.53 375.96 130.67 C 369.27 141.26 355.41 136.99 345.36 139.33 C 341.39 145.18 317.50 155.42 335.98 158.91 C 348.56 167.23 363.49 157.24 377.18 161.40 C 371.97 166.79 359.86 161.24 355.09 166.05 C 364.66 170.24 374.33 175.38 383.23 181.51 C 369.58 179.63 357.90 168.77 343.88 166.15 C 347.80 174.12 355.81 179.90 363.15 184.52 C 371.00 174.63 381.64 195.62 391.78 186.95 C 389.54 180.99 383.99 176.07 377.97 173.97 C 370.75 166.20 393.84 170.71 389.90 162.21 C 378.59 156.35 365.15 156.03 352.61 156.30 C 348.05 158.28 343.39 151.17 348.04 148.86 C 360.84 146.26 374.15 142.35 383.49 132.61 C 388.38 127.69 373.29 129.75 378.03 124.10 C 379.93 121.32 389.30 115.11 385.56 114.51 M 152.38 116.20 C 148.11 124.09 161.92 117.56 152.38 116.20 M 394.29 116.23 C 389.43 124.95 403.87 116.55 394.29 116.23 M 148.22 121.19 C 143.51 126.74 154.75 123.65 148.22 121.19 M 398.99 121.21 C 397.34 129.26 406.28 120.76 398.99 121.21 M 271.44 122.57 C 267.04 123.59 260.64 121.00 257.65 124.82 C 267.57 130.42 281.15 129.30 291.32 124.93 C 286.88 120.13 277.66 123.04 271.44 122.57 M 158.55 123.65 C 154.03 124.39 150.75 128.13 146.24 128.96 C 145.46 136.85 154.16 129.18 155.95 126.47 C 158.90 131.42 163.11 125.19 158.55 123.65 M 390.16 123.17 C 386.20 126.12 390.05 130.91 393.04 126.50 C 394.82 129.15 403.59 136.86 402.72 128.97 C 398.17 127.86 394.58 124.61 390.16 123.17 M 248.86 125.01 C 252.98 130.89 257.32 125.93 248.86 125.01 M 298.56 125.38 C 288.08 128.99 302.82 127.47 298.56 125.38 M 237.47 130.18 C 232.44 131.67 230.37 137.67 231.85 142.36 C 237.14 144.46 245.08 132.08 237.47 130.18 M 309.11 130.36 C 307.22 136.60 311.04 141.43 316.94 142.94 C 319.31 137.68 315.61 129.09 309.11 130.36 M 247.40 132.24 C 242.62 136.10 246.93 140.40 248.78 143.91 C 244.73 143.52 240.06 142.80 237.96 147.19 C 238.58 156.42 259.59 149.95 252.38 161.25 C 258.17 160.09 264.37 161.46 269.99 159.65 C 266.59 149.70 247.55 155.50 243.04 146.37 C 248.52 146.48 254.01 147.53 258.93 150.04 C 255.62 145.41 249.70 142.34 248.81 136.29 C 258.49 140.02 262.44 152.85 272.97 154.74 C 272.53 148.62 267.77 143.79 266.08 137.99 C 260.21 148.68 254.48 130.86 247.40 132.24 M 298.59 132.25 C 294.05 135.51 287.48 147.02 282.94 137.98 C 281.18 143.75 276.56 148.61 276.00 154.70 C 286.59 152.65 290.56 140.24 300.18 136.30 C 299.32 142.35 293.36 145.41 290.07 150.04 C 294.98 147.57 300.45 146.42 305.93 146.42 C 300.52 154.63 284.18 150.25 278.90 158.87 C 283.29 162.19 291.63 160.26 296.42 160.58 C 289.25 149.67 314.93 155.78 310.12 145.99 C 308.58 140.97 297.55 146.74 301.38 141.38 C 305.90 139.40 303.68 130.36 298.59 132.25 M 152.51 134.24 C 144.57 140.90 163.33 135.02 152.51 134.24 M 158.02 134.02 C 156.93 141.34 165.34 132.93 158.02 134.02 M 388.02 134.02 C 386.92 141.34 395.33 132.93 388.02 134.02 M 393.26 134.18 C 393.70 142.78 403.90 132.86 393.26 134.18 M 270.76 135.92 C 268.67 139.41 276.49 141.21 274.12 145.83 C 276.64 140.28 282.59 132.94 270.76 135.92 M 146.16 138.18 C 140.51 146.65 154.51 139.48 146.16 138.18 M 401.18 138.19 C 396.96 145.14 409.71 141.13 401.18 138.19 M 159.36 141.21 C 155.44 147.91 168.51 141.65 159.36 141.21 M 387.33 141.18 C 382.91 148.26 396.56 141.31 387.33 141.18 M 152.06 143.97 C 147.69 150.26 158.26 147.05 152.06 143.97 M 396.06 143.97 C 391.69 150.26 402.26 147.05 396.06 143.97 M 165.27 146.10 C 160.64 150.36 170.49 147.54 165.27 146.10 M 382.37 146.34 C 382.08 151.84 387.95 145.51 382.37 146.34 M 144.81 147.03 C 145.33 157.16 155.08 147.67 144.81 147.03 M 183.24 147.21 C 177.06 149.10 186.87 151.69 183.24 147.21 M 365.11 147.55 C 364.39 153.48 371.16 146.52 365.11 147.55 M 402.52 147.34 C 392.30 152.71 408.79 152.04 402.52 147.34 M 168.30 148.22 C 168.02 153.26 173.35 146.10 168.30 148.22 M 175.22 148.01 C 172.13 152.97 182.13 147.66 175.22 148.01 M 371.35 148.34 C 372.10 153.85 377.47 146.01 371.35 148.34 M 378.48 148.12 C 378.35 153.16 383.52 146.44 378.48 148.12 M 158.18 150.18 C 156.37 157.18 165.18 148.37 158.18 150.18 M 388.03 149.86 C 387.78 156.64 394.80 149.61 388.03 149.86 M 233.83 152.39 C 232.71 157.51 242.45 156.62 233.83 152.39 M 314.46 152.56 C 305.72 158.66 318.62 155.17 314.46 152.56 M 146.16 154.23 C 141.13 162.08 154.75 156.32 146.16 154.23 M 152.08 154.25 C 151.41 164.49 162.09 153.94 152.08 154.25 M 394.43 154.00 C 386.51 162.17 403.41 156.98 394.43 154.00 M 401.16 154.23 C 396.13 162.08 409.75 156.32 401.16 154.23 M 224.36 159.36 C 210.25 160.87 206.44 174.73 195.73 181.72 C 193.10 187.92 176.98 190.43 184.06 197.88 C 202.19 190.36 211.51 169.55 230.14 161.87 C 229.02 159.89 226.58 158.70 224.36 159.36 M 322.35 159.30 C 320.56 159.85 317.49 161.14 320.38 162.70 C 337.33 170.67 346.78 188.42 362.73 197.37 C 368.90 199.93 367.48 188.78 362.03 188.97 C 346.50 181.22 341.05 160.29 322.35 159.30 M 237.01 161.38 C 238.65 169.92 246.03 182.67 253.07 189.98 C 254.61 179.23 245.63 166.86 237.01 161.38 M 311.31 161.48 C 303.02 167.09 294.32 179.89 296.08 189.66 C 302.37 184.11 312.73 167.73 311.31 161.48 M 271.42 162.23 C 266.92 165.78 263.94 171.54 261.13 176.66 C 274.11 175.05 258.38 192.86 266.84 195.78 C 271.81 195.74 273.33 191.31 274.11 187.20 C 276.39 189.70 276.41 196.26 282.15 195.76 C 290.95 192.76 274.75 175.04 287.86 176.65 C 284.58 171.62 282.10 163.33 275.97 162.31 C 275.44 172.11 280.89 180.90 281.04 190.61 C 275.52 189.75 276.54 179.81 274.15 176.53 C 273.23 181.27 272.90 189.22 267.99 190.68 C 267.11 181.61 276.36 169.15 271.42 162.23 M 145.18 163.22 C 141.27 168.23 152.65 163.84 145.18 163.22 M 402.18 163.22 C 398.27 168.23 409.64 163.84 402.18 163.22 M 253.14 165.17 C 254.53 183.75 271.32 156.93 253.14 165.17 M 285.92 165.02 C 289.54 166.78 290.38 177.13 294.05 170.08 C 299.10 163.59 290.81 164.78 285.92 165.02 M 154.17 169.17 C 153.95 176.88 161.88 168.95 154.17 169.17 M 392.40 169.07 C 387.36 176.51 400.16 169.57 392.40 169.07 M 230.80 170.20 C 233.17 177.43 235.85 186.11 242.72 190.10 C 242.05 182.57 237.02 174.25 230.80 170.20 M 317.52 170.48 C 312.61 175.33 307.19 182.95 306.28 190.12 C 312.64 186.69 317.45 175.36 317.52 170.48 M 147.48 171.17 C 143.05 180.26 159.12 171.39 147.48 171.17 M 398.39 171.24 C 393.25 180.32 409.96 171.25 398.39 171.24 M 157.92 174.89 C 153.61 182.37 166.21 176.76 157.92 174.89 M 390.28 175.18 C 383.15 179.26 396.86 179.62 390.28 175.18 M 220.20 177.95 C 216.72 181.95 225.43 178.94 220.20 177.95 M 327.28 178.32 C 327.08 183.35 332.34 176.68 327.28 178.32 M 151.21 179.18 C 147.47 184.58 159.28 181.51 151.21 179.18 M 396.18 179.34 C 390.84 186.18 404.11 179.50 396.18 179.34 M 146.20 181.95 C 142.72 185.95 151.43 182.94 146.20 181.95 M 214.31 182.34 C 212.78 188.55 220.22 180.43 214.31 182.34 M 228.20 182.16 C 223.28 183.26 230.90 185.58 228.20 182.16 M 244.17 182.17 C 243.15 186.80 248.80 181.15 244.17 182.17 M 303.17 182.17 C 302.15 186.80 307.80 181.15 303.17 182.17 M 320.22 182.52 C 320.43 186.97 324.72 181.03 320.22 182.52 M 332.55 182.11 C 331.52 188.16 338.48 181.39 332.55 182.11 M 401.28 182.32 C 401.08 187.35 406.34 180.68 401.28 182.32 M 221.02 186.16 C 218.46 192.01 228.13 190.70 221.02 186.16 M 229.16 185.99 C 225.96 189.68 233.81 186.67 229.16 185.99 M 318.48 186.24 C 318.40 190.76 323.01 185.02 318.48 186.24 M 327.21 186.16 C 320.75 193.44 332.27 189.19 327.21 186.16 M 150.21 188.96 C 143.46 194.77 156.18 192.65 150.21 188.96 M 398.01 189.16 C 394.54 195.20 405.56 191.91 398.01 189.16 M 214.20 189.95 C 210.72 193.95 219.43 190.94 214.20 189.95 M 333.28 190.32 C 333.08 195.35 338.34 188.68 333.28 190.32 M 207.16 191.20 C 203.55 195.34 212.66 193.07 207.16 191.20 M 257.53 190.40 C 256.21 198.43 262.57 196.98 257.53 190.40 M 290.65 191.68 C 286.44 201.85 294.58 191.39 290.65 191.68 M 341.12 191.23 C 337.06 195.50 346.42 192.85 341.12 191.23 M 215.30 193.22 C 215.02 198.26 220.35 191.10 215.30 193.22 M 229.34 193.21 C 225.09 198.18 235.01 194.59 229.34 193.21 M 318.24 193.42 C 317.03 199.43 324.18 192.86 318.24 193.42 M 331.48 193.12 C 331.35 198.16 336.52 191.44 331.48 193.12 M 167.17 194.00 C 167.74 200.13 174.42 193.50 167.17 194.00 M 379.43 194.24 C 374.39 199.51 386.97 193.89 379.43 194.24 M 157.38 194.94 C 157.16 197.78 161.61 205.67 163.81 201.41 C 160.23 199.77 163.02 193.51 157.38 194.94 M 173.19 195.20 C 168.16 203.24 183.59 195.25 173.19 195.20 M 249.58 195.41 C 233.23 207.55 210.84 205.23 194.72 217.26 C 195.37 220.82 199.90 222.28 202.63 219.91 C 210.98 214.72 221.07 214.04 230.01 210.37 C 238.48 212.01 251.05 204.10 249.58 195.41 M 298.76 195.40 C 303.67 216.04 329.41 209.15 344.10 218.94 C 347.17 222.54 357.55 220.50 352.29 215.74 C 335.80 205.77 315.02 206.31 298.76 195.40 M 373.20 195.13 C 368.78 202.74 383.55 195.93 373.20 195.13 M 388.54 195.28 C 386.22 196.46 388.50 200.53 385.19 201.41 C 387.32 206.99 395.83 192.27 388.54 195.28 M 150.15 196.25 C 145.66 202.68 158.26 197.52 150.15 196.25 M 222.41 196.25 C 221.16 202.27 228.41 194.89 222.41 196.25 M 324.41 196.25 C 323.16 202.27 330.41 194.89 324.41 196.25 M 397.15 196.25 C 392.66 202.68 405.26 197.52 397.15 196.25 M 204.49 197.51 C 200.63 199.88 196.24 201.74 193.18 205.20 C 194.40 206.16 211.06 198.80 204.49 197.51 M 343.10 197.28 C 341.75 201.22 352.07 204.21 356.30 205.77 C 352.81 201.92 347.88 198.91 343.10 197.28 M 211.27 198.07 C 207.27 202.37 216.61 199.60 211.27 198.07 M 274.16 198.50 C 269.94 199.75 263.86 204.01 271.06 206.14 C 281.07 209.93 284.73 199.39 274.16 198.50 M 336.36 198.36 C 335.38 203.91 341.91 197.38 336.36 198.36 M 166.13 199.23 C 161.94 207.60 175.86 201.67 166.13 199.23 M 381.25 198.90 C 373.71 207.45 390.13 202.30 381.25 198.90 M 153.26 202.16 C 149.41 208.11 162.56 202.05 153.26 202.16 M 181.44 202.27 C 177.38 210.30 190.47 204.06 181.44 202.27 M 366.35 202.20 C 358.79 209.19 374.35 205.39 366.35 202.20 M 393.26 202.16 C 389.40 208.11 402.56 202.05 393.26 202.16 M 173.26 203.24 C 169.57 205.45 174.50 210.37 177.64 208.52 C 179.10 205.78 176.30 201.95 173.26 203.24 M 373.38 203.14 C 364.42 212.73 384.75 205.73 373.38 203.14 M 259.26 205.19 C 258.31 210.87 267.12 211.92 267.67 216.80 C 262.87 216.86 260.24 212.17 255.97 210.97 C 257.91 219.82 260.04 228.70 258.48 237.83 C 260.70 245.49 269.47 250.58 272.12 257.67 C 264.53 258.60 262.63 247.31 258.55 246.79 C 258.16 258.99 260.05 272.27 261.96 283.81 C 268.64 280.96 264.30 270.39 265.50 264.52 C 270.01 262.36 273.34 272.66 277.82 266.84 C 289.72 256.96 277.53 284.00 287.87 283.59 C 288.19 271.04 291.74 258.50 290.21 245.96 C 285.31 249.48 284.15 257.80 276.91 257.66 C 276.62 252.44 283.56 251.69 285.06 247.11 C 295.16 237.51 287.80 222.85 293.03 210.97 C 288.77 212.21 286.10 216.79 281.32 216.87 C 282.37 212.14 290.83 210.77 289.71 205.21 C 284.38 205.41 279.91 209.69 274.83 211.36 C 269.38 210.26 264.83 205.29 259.26 205.19 M 157.17 207.32 C 153.88 209.07 160.51 213.48 162.44 212.44 C 166.56 209.04 160.04 207.16 157.17 207.32 M 249.47 207.44 C 231.56 213.81 231.78 233.21 220.64 245.76 C 218.51 239.75 229.65 230.84 227.10 225.17 C 218.07 230.53 209.48 237.66 199.10 241.11 C 208.77 230.83 224.51 225.30 232.68 214.25 C 223.93 215.60 215.19 217.77 207.32 221.93 C 213.03 234.57 188.01 232.62 191.37 246.23 C 199.47 247.82 206.10 240.73 213.24 240.36 C 213.33 245.64 208.84 251.47 210.57 257.50 C 224.91 252.35 231.08 236.82 238.92 225.06 C 241.44 220.89 248.66 224.29 245.19 229.27 C 241.12 241.63 238.16 256.16 243.95 268.03 C 254.65 254.57 251.62 274.77 257.58 277.89 C 257.71 265.68 253.66 253.63 255.24 241.45 C 247.42 243.09 249.31 256.12 247.24 259.78 C 242.96 248.83 251.95 239.27 255.77 230.02 C 252.70 223.55 255.39 210.88 249.47 207.44 M 298.25 207.25 C 294.91 214.25 294.77 222.99 293.23 230.65 C 297.44 239.03 306.86 250.82 300.96 259.76 C 300.66 254.95 300.91 243.74 293.89 241.19 C 295.24 253.48 291.29 265.59 291.40 277.90 C 297.23 276.44 293.51 266.71 298.06 262.89 C 300.91 263.70 302.99 267.72 305.54 267.67 C 310.54 255.34 307.63 241.69 303.81 229.26 C 300.31 224.29 307.57 220.89 310.08 225.06 C 317.79 236.75 323.88 251.59 337.70 257.34 C 342.36 253.69 330.69 240.45 338.73 240.12 C 344.12 244.02 350.84 246.86 357.64 246.24 C 359.27 234.94 345.64 234.47 340.56 227.44 C 343.47 216.90 323.48 215.63 315.86 214.98 C 326.33 224.66 339.43 231.81 349.82 241.06 C 339.58 237.36 330.73 230.90 321.90 225.14 C 319.64 231.11 330.35 239.64 328.36 245.77 C 317.01 233.23 317.12 212.18 298.25 207.25 M 390.30 207.41 C 388.40 207.92 383.71 208.49 385.61 211.32 C 387.39 216.11 397.10 206.61 390.30 207.41 M 167.03 208.18 C 165.64 217.06 176.14 206.92 167.03 208.18 M 379.25 208.16 C 374.25 214.98 388.06 209.45 379.25 208.16 M 180.24 211.40 C 173.52 214.84 186.49 215.11 180.24 211.40 M 367.97 211.38 C 364.00 217.39 375.77 212.48 367.97 211.38 M 176.21 212.38 C 171.34 212.35 170.94 220.83 176.22 218.37 C 180.10 218.15 178.19 212.74 176.21 212.38 M 372.10 212.15 C 365.75 222.88 384.74 216.43 372.10 212.15 M 186.06 212.82 C 186.65 222.44 195.95 212.04 186.06 212.82 M 359.36 213.23 C 353.90 221.75 369.47 212.24 359.36 213.23 M 164.89 214.77 C 160.81 222.40 173.38 217.26 164.89 214.77 M 383.31 215.12 C 375.82 219.87 389.82 219.43 383.31 215.12 M 182.25 218.18 C 176.90 228.36 193.14 220.12 182.25 218.18 M 364.25 218.22 C 358.49 228.72 375.09 219.65 364.25 218.22 M 168.32 220.97 C 163.49 228.51 176.82 222.30 168.32 220.97 M 378.06 221.26 C 376.82 229.80 386.67 220.32 378.06 221.26 M 177.27 222.24 C 170.00 227.22 183.94 227.14 177.27 222.24 M 370.99 221.94 C 366.38 230.00 379.37 224.65 370.99 221.94 M 189.14 224.14 C 187.26 233.54 198.54 222.26 189.14 224.14 M 356.06 223.94 C 355.22 233.20 365.31 223.05 356.06 223.94 M 182.12 227.22 C 178.03 235.34 191.95 229.26 182.12 227.22 M 365.30 227.08 C 357.61 234.59 373.99 230.26 365.30 227.08 M 172.19 228.25 C 169.77 229.52 172.00 233.77 171.08 235.43 C 176.12 239.07 176.55 226.89 172.19 228.25 M 375.25 228.19 C 373.19 229.99 373.06 238.08 377.94 235.67 C 377.76 233.03 379.17 227.58 375.25 228.19 M 189.34 230.21 C 185.09 235.18 195.01 231.59 189.34 230.21 M 358.24 230.42 C 357.03 236.43 364.18 229.86 358.24 230.42 M 180.20 233.23 C 178.00 235.05 182.15 238.77 183.38 240.80 C 189.26 240.17 182.42 233.33 180.20 233.23 M 367.49 233.18 C 366.87 235.39 359.96 238.78 364.87 240.81 C 366.89 240.10 372.28 232.97 367.49 233.18 M 175.18 238.34 C 169.85 245.18 183.11 238.50 175.18 238.34 M 372.21 238.18 C 368.47 243.58 380.28 240.51 372.21 238.18 M 236.26 241.15 C 231.83 248.28 243.41 241.60 236.26 241.15 M 311.24 241.23 C 307.85 246.46 318.29 243.51 311.24 241.23 M 177.41 244.19 C 173.00 250.16 185.23 245.42 177.41 244.19 M 369.15 244.15 C 367.87 252.37 377.36 242.87 369.15 244.15 M 233.23 247.06 C 228.68 251.77 238.90 248.62 233.23 247.06 M 314.32 247.32 C 313.47 253.31 320.31 246.47 314.32 247.32 M 184.28 248.13 C 177.35 251.83 190.37 251.39 184.28 248.13 M 199.33 248.15 C 194.69 253.48 207.62 248.75 199.33 248.15 M 347.05 248.18 C 346.46 255.13 355.32 246.69 347.05 248.18 M 363.93 247.79 C 360.37 254.04 371.76 249.53 363.93 247.79 M 192.10 250.99 C 192.14 259.17 199.68 251.03 192.10 250.99 M 354.44 251.11 C 349.69 258.77 361.78 251.29 354.44 251.11 M 202.88 253.06 C 201.80 261.43 210.36 253.20 202.88 253.06 M 229.18 253.18 C 227.37 260.18 236.18 251.37 229.18 253.18 M 317.03 252.86 C 316.78 259.64 323.80 252.61 317.03 252.86 M 344.24 253.20 C 339.05 259.45 350.80 255.26 344.24 253.20 M 189.16 255.99 C 185.96 259.68 193.81 256.67 189.16 255.99 M 358.48 256.24 C 358.40 260.76 363.01 255.01 358.48 256.24 M 198.23 257.25 C 192.64 266.37 208.35 257.88 198.23 257.25 M 348.34 257.01 C 343.97 265.86 358.60 258.78 348.34 257.01 M 228.48 258.12 C 228.35 263.16 233.52 256.44 228.48 258.12 M 318.30 258.22 C 318.02 263.25 323.35 256.10 318.30 258.22 M 223.17 260.31 C 219.00 265.17 228.37 262.54 223.17 260.31 M 325.22 260.27 C 321.42 264.92 330.61 262.86 325.22 260.27 M 215.17 261.21 C 210.22 269.43 223.46 263.79 215.17 261.21 M 332.09 260.85 C 327.35 270.23 340.73 263.43 332.09 260.85 M 230.31 263.19 C 225.23 270.10 238.63 263.97 230.31 263.19 M 316.07 263.07 C 315.29 271.67 324.67 262.29 316.07 263.07 M 204.19 265.20 C 200.07 271.12 211.73 266.65 204.19 265.20 M 343.23 265.31 C 339.13 271.40 350.66 266.16 343.23 265.31 M 211.25 268.22 C 206.88 275.51 220.87 268.93 211.25 268.22 M 223.02 267.94 C 219.40 274.83 231.05 270.43 223.02 267.94 M 236.25 268.41 C 234.89 274.41 242.27 267.16 236.25 268.41 M 311.27 268.04 C 307.18 272.60 317.13 269.84 311.27 268.04 M 325.23 268.27 C 318.02 272.82 331.24 272.08 325.23 268.27 M 335.30 268.05 C 330.85 276.14 345.10 268.45 335.30 268.05 M 217.39 270.12 C 213.05 279.85 226.88 272.35 217.39 270.12 M 329.32 270.18 C 324.31 280.45 338.81 271.62 329.32 270.18 M 232.65 273.19 C 225.90 280.49 241.70 273.41 232.65 273.19 M 243.57 273.42 C 245.07 279.60 230.60 277.57 234.26 283.84 C 238.42 282.44 252.66 275.10 243.57 273.42 M 303.26 273.18 C 299.40 279.11 310.94 281.47 314.74 283.84 C 317.21 277.89 303.63 277.75 303.26 273.18 M 313.33 273.12 C 314.86 281.55 322.20 272.20 313.33 273.12 M 225.22 276.26 C 218.19 281.85 235.77 278.73 225.22 276.26 M 273.29 276.20 C 273.04 281.72 278.82 274.13 273.29 276.20 M 322.25 276.07 C 314.90 282.91 332.86 277.86 322.25 276.07 M 271.36 280.22 C 266.59 286.71 279.45 281.05 271.36 280.22 M 275.10 280.06 C 274.05 288.45 283.56 279.26 275.10 280.06 M 247.05 281.12 C 245.53 291.32 256.42 280.74 247.05 281.12 M 299.30 281.23 C 293.76 289.42 308.06 282.78 299.30 281.23 M 241.03 283.26 C 237.90 288.21 248.99 285.92 241.03 283.26 M 307.20 283.34 C 299.84 288.26 313.03 285.75 307.20 283.34 M 252.15 286.10 C 251.65 294.10 260.45 285.54 252.15 286.10 M 274.17 286.25 C 270.67 290.09 279.10 287.83 274.17 286.25 M 294.34 286.23 C 289.03 292.93 302.50 286.76 294.34 286.23 M 267.13 287.09 C 260.56 292.76 275.31 290.48 267.13 287.09 M 281.13 287.09 C 274.56 292.76 289.31 290.48 281.13 287.09 Z" />
<path fill="#000000" opacity="1.00" d=" M 406.12 20.63 C 440.68 20.86 475.22 19.46 509.79 20.08 C 513.04 19.86 512.20 24.20 511.01 25.99 C 482.91 75.37 452.80 123.42 424.99 172.97 C 422.38 176.13 422.15 170.54 422.92 168.75 C 432.58 108.92 396.47 46.23 339.68 24.46 C 338.11 23.69 334.72 23.44 336.19 20.96 C 359.50 20.78 382.82 21.45 406.12 20.63 M 428.27 26.29 C 423.34 40.04 440.40 25.28 428.27 26.29 M 448.42 26.31 C 445.04 27.56 447.82 36.49 452.51 32.96 C 457.69 30.76 454.32 22.38 448.42 26.31 M 459.37 26.26 C 455.24 28.50 460.61 35.97 463.75 31.87 C 466.62 29.12 462.70 24.46 459.37 26.26 M 468.08 26.24 C 466.41 40.29 481.95 22.09 468.08 26.24 M 477.38 26.16 C 471.30 38.14 492.29 26.59 477.38 26.16 M 362.24 27.20 C 356.99 36.26 372.91 28.19 362.24 27.20 M 409.43 26.94 C 406.15 28.34 405.10 35.67 409.14 35.96 C 417.25 40.20 417.82 23.12 409.43 26.94 M 418.03 27.16 C 415.71 44.71 432.81 24.35 418.03 27.16 M 440.30 26.89 C 434.40 38.00 452.08 29.70 440.30 26.89 M 489.28 27.28 C 481.96 29.81 490.57 34.89 490.68 39.30 C 499.76 40.41 493.33 28.06 489.28 27.28 M 384.57 29.32 C 379.48 31.96 388.25 40.15 391.08 35.19 C 393.21 31.32 389.28 26.30 384.57 29.32 M 395.17 29.24 C 390.78 32.21 399.25 32.22 395.17 29.24 M 374.12 30.33 C 369.24 30.05 368.44 37.15 373.35 37.76 C 378.71 39.67 379.82 29.61 374.12 30.33 M 399.40 32.13 C 394.42 34.52 396.73 44.56 403.43 40.89 C 409.18 38.65 404.33 30.25 399.40 32.13 M 434.28 33.05 C 428.60 35.99 434.50 46.45 439.83 40.83 C 444.12 36.41 438.59 32.35 434.28 33.05 M 455.42 34.11 C 452.46 35.82 452.41 40.33 455.55 41.86 C 463.71 45.51 461.97 31.41 455.42 34.11 M 465.60 34.18 C 459.58 36.23 465.47 47.49 470.73 41.92 C 475.62 38.51 471.39 31.17 465.60 34.18 M 425.46 35.47 C 421.55 38.34 409.18 36.10 413.23 43.71 C 417.10 49.37 419.61 43.25 420.57 40.05 C 423.32 53.72 437.77 36.20 425.46 35.47 M 478.41 35.34 C 472.72 36.50 477.60 46.96 482.47 44.55 C 487.35 42.17 484.58 32.04 478.41 35.34 M 444.47 36.08 C 441.44 38.74 443.19 45.43 447.71 43.74 C 454.24 43.86 451.02 31.78 444.47 36.08 M 381.47 38.35 C 374.63 47.39 396.10 41.47 381.47 38.35 M 390.39 40.17 C 382.00 51.68 397.58 46.06 399.85 48.19 C 398.13 44.44 395.49 38.81 390.39 40.17 M 490.09 42.34 C 485.78 41.83 484.10 49.01 488.94 49.03 C 493.18 49.62 493.78 42.66 490.09 42.34 M 405.59 43.05 C 401.95 44.48 400.76 50.30 405.34 50.99 C 413.00 54.76 413.33 39.46 405.59 43.05 M 434.58 45.24 C 428.00 48.46 435.94 57.04 440.36 52.28 C 444.97 49.06 439.30 42.08 434.58 45.24 M 464.39 45.23 C 460.31 45.76 459.73 53.26 464.77 51.92 C 469.95 51.89 470.24 43.16 464.39 45.23 M 452.79 46.51 C 438.31 49.23 458.18 53.18 454.84 62.93 C 457.19 64.49 466.89 57.12 460.86 54.18 C 455.92 52.73 460.06 43.48 452.79 46.51 M 472.67 47.23 C 465.55 50.17 475.35 60.43 478.75 53.70 C 482.40 49.53 477.89 44.25 472.67 47.23 M 419.47 48.35 C 414.70 51.38 419.59 60.67 425.17 57.18 C 430.88 53.38 426.55 44.30 419.47 48.35 M 413.18 51.30 C 408.38 55.20 417.53 55.23 413.18 51.30 M 484.50 51.16 C 480.28 52.66 482.41 56.71 486.00 57.08 C 488.60 55.15 488.98 49.50 484.50 51.16 M 394.47 52.20 C 388.82 53.55 394.82 61.85 397.89 57.84 C 400.72 55.38 398.15 50.36 394.47 52.20 M 407.24 56.20 C 400.70 57.56 405.36 69.14 410.94 64.98 C 417.35 62.82 411.91 55.90 407.24 56.20 M 468.33 56.14 C 463.32 59.30 467.59 67.16 473.52 63.52 C 476.12 59.47 472.24 55.18 468.33 56.14 M 443.43 57.21 C 439.94 58.02 438.33 65.37 443.52 63.76 C 449.21 64.80 449.44 54.83 443.43 57.21 M 431.48 58.29 C 423.78 61.52 432.40 69.32 434.45 73.85 C 447.47 75.23 438.38 57.32 431.48 58.29 M 477.57 58.15 C 474.22 60.65 477.98 66.17 481.74 64.87 C 484.22 62.10 482.53 55.61 477.57 58.15 M 420.43 62.21 C 412.99 66.74 421.74 77.70 426.73 81.26 C 434.75 83.32 433.25 71.39 426.50 71.16 C 426.53 67.36 425.98 60.51 420.43 62.21 M 462.53 64.43 C 456.81 66.30 459.85 73.17 464.99 72.74 C 469.39 71.20 468.09 62.56 462.53 64.43 M 475.11 66.39 C 471.27 66.41 468.37 71.39 472.28 73.73 C 476.89 77.93 481.95 66.07 475.11 66.39 M 451.14 67.33 C 446.61 67.37 443.93 74.81 448.43 76.85 C 454.81 79.93 457.89 66.97 451.14 67.33 M 412.28 68.29 C 407.54 69.16 407.03 76.81 412.38 77.11 C 418.26 76.41 411.44 84.39 416.58 85.46 C 421.61 88.47 424.39 79.12 419.28 77.81 C 413.36 77.49 419.32 67.12 412.28 68.29 M 458.51 74.23 C 452.42 76.44 456.59 85.46 462.49 82.62 C 466.81 79.88 464.04 72.13 458.51 74.23 M 467.43 75.30 C 463.39 86.07 480.19 76.24 467.43 75.30 M 438.37 78.13 C 432.86 81.33 435.63 89.13 441.57 88.42 C 447.89 85.49 445.73 76.36 438.37 78.13 M 451.14 81.11 C 446.48 83.44 447.16 88.57 449.87 92.13 C 445.41 89.27 440.20 90.12 443.90 97.07 C 450.35 99.41 465.94 83.77 451.14 81.11 M 424.62 86.19 C 418.31 87.64 422.01 97.98 427.62 95.75 C 432.72 94.88 430.38 82.89 424.62 86.19 M 462.43 86.21 C 457.67 97.82 475.75 86.12 462.43 86.21 M 433.35 90.34 C 434.10 95.85 439.47 88.01 433.35 90.34 M 456.41 92.25 C 452.33 96.03 456.05 98.70 460.03 99.90 C 464.16 97.09 461.09 90.86 456.41 92.25 M 435.26 95.15 C 431.49 98.02 432.59 106.56 438.42 103.16 C 444.73 101.14 440.84 93.72 435.26 95.15 M 450.29 99.10 C 444.13 103.22 451.58 111.75 456.38 106.38 C 461.19 102.53 454.12 98.76 450.29 99.10 M 422.64 102.12 C 419.56 102.93 421.40 111.01 425.23 108.23 C 429.67 107.12 428.17 99.29 422.64 102.12 M 432.14 105.01 C 433.50 108.76 431.94 110.79 428.16 111.48 C 425.14 117.71 434.71 120.34 436.61 115.13 C 436.70 111.50 435.01 107.20 432.14 105.01 M 441.57 105.18 C 437.97 107.30 436.65 112.45 441.81 113.44 C 450.46 118.45 449.21 101.43 441.57 105.18 M 444.28 117.32 C 444.08 122.36 449.34 115.68 444.28 117.32 M 438.21 119.34 C 433.18 121.44 438.33 131.81 442.64 126.72 C 446.77 123.48 442.52 118.02 438.21 119.34 M 430.20 120.23 C 421.60 132.03 441.49 123.11 430.20 120.23 M 432.10 130.38 C 427.44 130.32 426.89 137.59 431.12 138.67 C 435.87 138.70 438.21 130.25 432.10 130.38 M 430.34 143.12 C 422.53 150.88 439.45 147.61 430.34 143.12 Z" />
<path fill="#000000" opacity="1.00" d=" M 181.90 104.90 C 194.41 108.65 187.26 112.40 181.90 104.90 Z" />
<path fill="#000000" opacity="1.00" d=" M 366.01 105.17 C 365.93 109.98 352.04 110.87 366.01 105.17 Z" />
<path fill="#000000" opacity="1.00" d=" M 191.50 109.77 C 202.47 108.10 217.23 115.47 218.45 126.69 C 207.54 129.21 193.24 121.09 191.50 109.77 M 210.41 121.25 C 209.16 127.27 216.41 119.89 210.41 121.25 Z" />
<path fill="#000000" opacity="1.00" d=" M 347.80 110.42 C 350.27 110.28 355.21 110.00 357.68 109.86 C 355.61 121.57 341.35 129.15 330.24 126.79 C 330.63 118.26 340.55 112.87 347.80 110.42 M 336.41 121.25 C 335.16 127.27 342.41 119.89 336.41 121.25 Z" />
<path fill="#000000" opacity="1.00" d=" M 273.55 223.47 C 279.60 223.34 279.72 232.97 280.15 237.60 C 282.35 247.81 272.36 255.46 274.88 265.93 C 273.93 252.14 261.91 236.19 273.55 223.47 M 273.41 230.25 C 272.16 236.27 279.41 228.89 273.41 230.25 Z" />
<path fill="#000000" opacity="1.00" d=" M 186.42 279.71 C 207.93 295.58 233.54 306.19 260.15 310.42 C 295.92 314.60 332.80 301.43 361.18 280.11 C 363.88 278.89 361.71 282.15 361.34 283.33 C 332.37 331.89 306.05 381.66 277.44 430.42 C 276.25 433.27 272.66 433.37 271.58 430.38 C 242.65 380.37 214.64 330.10 186.42 279.71 M 205.24 298.19 C 203.86 308.52 215.97 296.91 205.24 298.19 M 340.39 298.22 C 334.79 306.99 351.02 298.72 340.39 298.22 M 214.33 303.28 C 210.16 305.66 214.88 313.90 219.02 310.12 C 223.28 306.96 218.66 301.39 214.33 303.28 M 331.47 303.19 C 326.28 303.94 328.23 311.57 332.89 310.98 C 337.66 310.28 336.94 300.80 331.47 303.19 M 224.25 309.43 C 222.31 321.83 237.85 306.82 224.25 309.43 M 320.83 309.26 C 313.47 317.77 333.81 312.12 320.83 309.26 M 243.43 312.21 C 240.27 315.24 244.35 321.16 247.85 317.72 C 251.31 314.74 246.94 310.77 243.43 312.21 M 302.39 312.28 C 297.09 312.99 301.58 321.17 305.09 318.14 C 308.42 316.38 306.12 310.29 302.39 312.28 M 233.41 313.23 C 223.55 317.41 238.09 327.43 241.94 321.17 C 234.74 322.23 242.02 311.29 233.41 313.23 M 313.39 313.31 C 307.14 313.78 314.27 322.32 307.10 321.17 C 312.49 328.64 326.24 313.61 313.39 313.31 M 220.13 315.22 C 214.05 316.90 219.98 326.77 224.47 322.56 C 228.33 319.43 223.89 315.33 220.13 315.22 M 328.16 315.40 C 324.17 315.39 320.75 320.70 325.11 322.83 C 329.93 326.66 334.84 315.18 328.16 315.40 M 267.34 317.08 C 262.01 320.12 266.19 328.30 272.39 324.41 C 277.69 321.70 271.53 315.32 267.34 317.08 M 278.41 317.23 C 272.20 318.11 275.03 328.26 281.60 324.69 C 287.22 323.97 283.04 314.59 278.41 317.23 M 255.43 319.29 C 250.03 319.95 251.84 327.48 256.67 327.45 C 265.06 330.88 262.15 315.99 255.43 319.29 M 290.49 319.21 C 285.27 320.27 286.23 331.62 293.06 327.27 C 299.76 326.13 296.53 316.94 290.49 319.21 M 232.31 324.24 C 226.61 325.16 226.65 334.43 232.98 333.80 C 239.37 334.08 237.04 323.63 232.31 324.24 M 241.90 324.51 C 238.91 327.42 240.45 335.62 245.22 332.93 C 252.64 332.18 246.96 322.22 241.90 324.51 M 303.89 324.35 C 300.53 325.98 298.22 331.50 303.15 332.79 C 309.59 337.21 310.87 322.24 303.89 324.35 M 315.18 324.00 C 311.25 326.50 310.55 334.60 316.79 333.70 C 323.61 333.56 321.13 323.41 315.18 324.00 M 223.17 326.17 C 222.15 330.80 227.80 325.15 223.17 326.17 M 324.17 326.17 C 323.15 330.80 328.80 325.15 324.17 326.17 M 269.12 327.52 C 255.34 330.50 274.20 343.70 274.16 330.68 C 274.14 335.12 282.05 339.65 284.73 333.55 C 285.98 325.34 274.01 327.23 269.12 327.52 M 252.27 330.10 C 247.64 334.35 257.48 331.54 252.27 330.10 M 295.37 330.34 C 295.08 335.84 300.95 329.51 295.37 330.34 M 257.47 334.38 C 250.86 335.12 249.98 341.12 254.68 344.59 C 262.17 347.40 264.32 336.04 257.47 334.38 M 291.26 334.23 C 284.43 336.53 287.53 348.40 294.86 344.04 C 299.51 340.27 297.13 335.10 291.26 334.23 M 233.19 335.33 C 226.53 335.42 227.02 348.30 234.01 344.03 C 240.80 343.78 237.26 335.57 233.19 335.33 M 315.12 335.11 C 308.76 338.03 311.43 345.14 317.91 344.97 C 323.30 343.03 320.07 335.30 315.12 335.11 M 241.44 336.17 C 237.77 341.30 244.59 347.17 244.25 352.59 C 254.50 357.59 255.04 339.60 244.01 343.89 C 250.11 341.12 249.77 334.35 241.44 336.17 M 303.52 336.42 C 297.08 337.28 302.07 341.97 304.99 343.89 C 300.16 341.29 292.43 348.05 298.12 351.77 C 306.84 360.25 313.64 333.63 303.52 336.42 M 268.51 339.46 C 259.66 348.61 277.90 350.27 282.32 346.17 C 285.80 337.20 273.86 339.07 268.51 339.46 M 238.51 345.23 C 222.44 351.35 247.32 356.51 238.51 345.23 M 310.18 345.17 C 302.38 357.05 326.55 350.65 310.18 345.17 M 259.42 349.22 C 253.79 351.42 257.29 359.99 262.62 358.77 C 268.39 357.07 264.63 347.83 259.42 349.22 M 287.38 349.23 C 282.49 350.51 281.88 359.23 287.87 358.90 C 293.90 358.36 293.89 348.14 287.38 349.23 M 273.39 350.31 C 269.62 352.05 270.72 358.78 274.88 358.75 C 279.60 357.76 278.46 348.85 273.39 350.31 M 240.36 354.30 C 236.04 354.12 236.02 361.19 240.00 360.98 C 243.79 361.80 243.91 353.09 240.36 354.30 M 307.07 354.03 C 302.10 366.62 319.75 356.51 307.07 354.03 M 248.58 355.16 C 242.79 357.16 247.89 365.77 252.42 363.49 C 257.85 362.04 254.52 351.18 248.58 355.16 M 295.45 355.17 C 290.58 359.43 297.08 367.39 301.26 362.23 C 306.11 358.98 300.19 352.09 295.45 355.17 M 266.17 362.26 C 265.46 364.08 265.99 375.80 271.78 371.93 C 274.46 368.95 277.03 372.49 279.87 372.94 C 283.74 370.79 282.21 365.70 283.52 362.15 C 277.22 364.82 272.38 365.70 266.17 362.26 M 256.42 363.15 C 252.13 365.13 254.37 374.30 259.27 371.38 C 264.46 369.64 261.63 361.07 256.42 363.15 M 289.42 363.17 C 284.84 365.25 287.26 372.22 291.94 372.00 C 296.99 370.70 294.98 360.91 289.42 363.17 M 245.40 365.17 C 239.09 376.54 257.72 365.08 245.40 365.17 M 300.38 365.23 C 296.55 367.63 301.43 370.55 304.11 371.07 C 306.36 368.49 303.98 363.41 300.38 365.23 M 249.39 372.27 C 243.83 373.20 249.10 382.87 253.22 379.36 C 256.37 376.47 253.90 370.27 249.39 372.27 M 296.46 372.12 C 291.25 374.35 296.69 383.77 300.53 378.57 C 304.07 375.32 300.76 370.68 296.46 372.12 M 259.58 373.24 C 255.59 376.00 257.67 382.09 262.63 380.73 C 268.83 380.21 265.10 370.06 259.58 373.24 M 285.48 373.23 C 280.87 375.65 283.68 382.21 288.63 380.81 C 294.51 379.79 290.54 370.56 285.48 373.23 M 273.48 374.32 C 270.15 375.93 270.55 382.69 274.82 382.59 C 279.41 381.86 278.28 372.96 273.48 374.32 M 255.21 381.21 C 250.25 382.71 252.85 389.57 257.52 387.79 C 261.54 385.75 259.15 381.00 255.21 381.21 M 267.29 381.28 C 262.23 381.50 260.51 387.69 264.96 390.28 C 271.91 395.02 274.70 380.08 267.29 381.28 M 279.49 381.32 C 274.14 384.33 279.21 394.84 284.61 389.77 C 289.75 386.21 284.38 379.83 279.49 381.32 M 293.09 381.35 C 287.70 381.21 288.81 389.03 293.76 387.96 C 298.02 387.17 296.94 381.36 293.09 381.35 M 260.24 390.29 C 256.06 390.74 256.58 395.82 260.21 396.72 C 263.86 397.11 263.09 390.19 260.24 390.29 M 288.06 390.02 C 280.71 400.34 298.95 394.35 288.06 390.02 M 272.54 392.37 C 266.27 392.64 270.47 402.81 275.51 400.82 C 281.78 399.62 280.32 388.82 272.54 392.37 M 264.30 397.23 C 259.09 397.82 261.80 406.39 266.12 403.14 C 269.66 402.04 267.46 396.30 264.30 397.23 M 283.21 397.12 C 279.12 399.25 281.67 404.39 285.77 403.93 C 289.33 401.64 287.26 396.63 283.21 397.12 M 269.77 405.32 C 266.12 406.64 268.11 413.54 271.77 412.82 C 275.37 410.62 275.02 403.32 269.77 405.32 M 275.70 405.56 C 272.29 407.81 277.62 416.48 280.34 411.16 C 283.48 407.37 279.01 403.79 275.70 405.56 Z" />
</svg>
