<?xml version="1.0" encoding="UTF-8" ?>
<!DOCTYPE svg PUBLIC "-//W3C//DTD SVG 1.1//EN" "http://www.w3.org/Graphics/SVG/1.1/DTD/svg11.dtd">
<svg width="483pt" height="422pt" viewBox="0 0 483 422" version="1.1" xmlns="http://www.w3.org/2000/svg">
<path fill="#000000" opacity="1.00" d=" M 241.06 0.00 L 241.94 0.00 C 295.48 92.97 352.78 183.72 403.97 278.04 C 430.68 324.57 456.84 371.37 483.00 418.22 L 483.00 419.14 C 418.10 420.91 353.10 419.74 288.24 422.00 L 194.68 422.00 C 129.84 419.79 64.86 421.10 0.00 419.15 L 0.00 418.24 C 26.14 371.37 52.32 324.58 79.03 278.04 C 130.22 183.72 187.52 92.97 241.06 0.00 M 241.37 15.39 C 162.80 146.44 86.57 279.04 12.11 412.40 C 64.43 410.68 116.71 413.82 169.04 412.96 C 269.65 416.07 370.26 410.67 470.89 412.40 C 427.44 336.59 385.52 259.95 341.79 184.21 C 307.69 128.68 274.28 69.83 241.37 15.39 Z" />
<path fill="#000000" opacity="1.00" d=" M 241.14 28.36 C 314.91 152.52 388.03 278.86 458.83 405.43 C 313.93 406.24 169.04 406.61 24.14 405.32 C 94.74 278.67 168.28 153.68 241.14 28.36 M 231.16 61.16 C 230.25 65.16 235.16 60.25 231.16 61.16 M 250.40 61.15 C 249.58 65.14 254.38 60.30 250.40 61.15 M 233.17 72.17 C 232.15 76.80 237.80 71.15 233.17 72.17 M 248.17 72.17 C 247.15 76.80 252.80 71.15 248.17 72.17 M 241.12 77.12 C 225.08 114.66 202.59 149.14 182.30 184.30 C 175.34 207.88 209.25 214.21 209.94 235.72 C 214.25 241.38 223.30 239.71 229.47 240.70 C 234.47 239.03 235.60 225.88 229.83 226.91 C 220.04 235.11 232.22 215.70 225.34 213.34 C 219.31 216.35 223.58 227.79 215.84 228.90 C 216.34 220.91 224.42 211.34 217.44 204.39 C 210.41 202.05 214.80 214.52 207.97 215.11 C 210.19 207.43 211.96 197.58 204.89 191.71 C 199.98 194.30 198.46 201.65 192.94 202.67 C 199.57 181.35 214.85 161.24 212.80 137.66 C 220.59 134.61 212.42 157.58 220.83 149.80 C 228.65 135.97 235.32 121.34 241.13 106.52 C 248.76 120.58 254.17 138.55 264.33 151.76 C 269.48 150.50 262.85 137.98 269.89 136.85 C 269.85 158.45 279.26 179.16 289.27 197.99 C 290.19 212.83 279.59 183.69 275.30 195.30 C 270.72 201.10 274.24 208.67 275.02 215.11 C 268.18 214.54 272.60 202.05 265.56 204.39 C 258.60 211.33 266.61 220.91 267.18 228.88 C 258.79 227.80 264.13 215.05 256.98 213.05 C 252.48 217.82 259.29 227.15 256.42 229.38 C 248.14 219.12 246.36 242.57 255.73 240.50 C 261.15 239.10 270.34 241.27 273.44 235.05 C 273.77 217.40 295.45 211.88 300.70 196.51 C 303.98 187.47 298.54 178.72 293.28 171.79 C 274.85 140.95 256.22 109.08 241.12 77.12 M 223.28 78.49 C 216.88 82.04 228.79 81.52 223.28 78.49 M 258.95 78.35 C 255.74 83.89 266.29 79.79 258.95 78.35 M 225.14 90.52 C 223.43 94.98 229.69 90.33 225.14 90.52 M 257.20 90.30 C 253.38 92.93 261.03 92.90 257.20 90.30 M 214.28 96.09 C 214.43 99.42 217.26 94.55 214.28 96.09 M 267.28 96.09 C 267.43 99.42 270.26 94.55 267.28 96.09 M 215.29 108.56 C 214.74 113.59 220.38 107.62 215.29 108.56 M 267.16 108.27 C 261.93 109.81 270.20 112.09 267.16 108.27 M 205.20 111.31 C 203.12 116.30 210.29 111.05 205.20 111.31 M 276.32 111.31 C 274.63 116.32 281.40 111.04 276.32 111.31 M 241.12 121.02 C 236.16 135.79 220.54 149.51 224.03 165.54 C 231.79 160.44 235.39 146.56 241.11 138.08 C 247.78 146.50 250.75 159.84 258.95 165.69 C 262.51 149.75 247.09 134.64 241.12 121.02 M 195.10 126.37 C 193.10 133.55 201.75 126.15 195.10 126.37 M 286.27 125.97 C 282.14 131.93 292.53 128.60 286.27 125.97 M 197.19 141.22 C 193.20 147.34 204.23 142.12 197.19 141.22 M 284.28 141.24 C 280.78 146.88 291.21 142.59 284.28 141.24 M 185.51 142.26 C 185.33 146.81 190.00 140.94 185.51 142.26 M 296.14 141.97 C 293.05 145.67 300.76 142.74 296.14 141.97 M 241.26 147.31 C 238.07 155.78 231.66 163.16 229.05 171.73 C 232.14 181.30 239.42 175.41 241.86 170.40 C 243.04 177.53 252.69 179.63 253.97 171.03 C 250.00 163.33 245.17 154.00 241.26 147.31 M 177.22 156.19 C 173.54 162.48 184.19 157.35 177.22 156.19 M 304.22 156.19 C 300.54 162.48 311.19 157.35 304.22 156.19 M 215.08 159.40 C 213.03 170.29 199.69 186.47 212.99 193.93 C 218.68 183.81 222.85 171.01 219.24 159.45 C 217.86 159.22 216.45 159.17 215.08 159.40 M 263.80 159.46 C 260.03 170.93 264.40 183.84 270.01 193.93 C 277.25 191.29 277.59 183.26 274.01 177.45 C 270.70 171.78 272.24 158.56 263.80 159.46 M 180.45 168.23 C 175.78 175.65 185.10 168.48 180.45 168.23 M 300.91 167.86 C 301.86 174.84 306.51 169.98 300.91 167.86 M 168.11 172.33 C 164.48 178.35 173.34 175.36 168.11 172.33 M 314.11 172.33 C 310.48 178.35 319.33 175.36 314.11 172.33 M 224.65 176.36 C 222.09 184.56 211.38 197.82 223.97 202.88 C 228.22 196.20 234.28 179.07 224.65 176.36 M 255.51 176.40 C 251.13 184.65 254.42 195.38 259.04 202.89 C 264.16 200.76 267.79 195.67 263.94 190.77 C 260.60 186.46 262.70 175.78 255.51 176.40 M 238.82 180.41 C 229.50 184.72 233.68 199.41 227.42 207.31 C 232.10 213.64 239.07 197.02 245.01 203.89 C 247.60 207.85 259.11 212.12 254.29 203.73 C 247.32 196.27 253.97 176.90 238.82 180.41 M 173.11 183.23 C 169.09 187.48 178.43 184.88 173.11 183.23 M 309.17 183.21 C 305.52 187.36 314.65 185.05 309.17 183.21 M 160.33 188.27 C 154.97 194.64 166.33 189.58 160.33 188.27 M 320.89 187.96 C 320.57 195.74 327.90 188.80 320.89 187.96 M 165.23 198.07 C 159.25 206.22 170.80 203.18 165.23 198.07 M 317.04 198.32 C 313.56 206.01 323.90 203.07 317.04 198.32 M 151.37 204.35 C 145.59 210.50 157.29 205.19 151.37 204.35 M 329.92 203.97 C 329.96 210.98 336.82 205.21 329.92 203.97 M 239.58 207.50 C 232.43 207.01 227.94 219.36 236.23 220.61 C 241.00 218.64 246.98 222.69 250.81 218.55 C 253.75 211.19 245.82 206.29 239.58 207.50 M 179.28 210.17 C 176.90 220.59 188.29 208.64 179.28 210.17 M 300.25 209.98 C 299.19 220.04 309.06 209.63 300.25 209.98 M 167.28 214.09 C 167.43 217.41 170.26 212.55 167.28 214.09 M 314.28 214.09 C 314.43 217.41 317.26 212.55 314.28 214.09 M 140.34 218.46 C 133.61 225.50 144.92 220.37 140.34 218.46 M 341.93 218.25 C 339.91 223.21 349.09 223.08 341.93 218.25 M 195.49 221.43 C 187.12 224.53 198.54 227.36 195.49 221.43 M 286.75 221.17 C 286.84 229.83 295.03 222.20 286.75 221.17 M 156.36 222.48 C 139.72 224.56 154.10 249.50 166.26 243.10 C 183.95 243.10 168.06 217.75 156.36 222.48 M 321.02 222.62 C 313.24 223.66 310.59 232.23 308.17 238.46 C 315.10 249.24 333.26 243.25 334.21 230.98 C 336.16 223.69 326.41 221.24 321.02 222.62 M 241.17 223.48 C 235.57 226.00 232.55 247.90 241.16 237.48 C 250.57 248.20 247.80 225.16 241.17 223.48 M 180.00 225.84 C 179.92 232.56 186.72 225.73 180.00 225.84 M 300.22 226.22 C 298.27 233.19 307.19 224.27 300.22 226.22 M 133.37 235.96 C 127.14 239.75 137.09 241.37 133.37 235.96 M 348.95 236.42 C 347.97 243.61 355.28 236.59 348.95 236.42 M 148.09 247.28 C 146.55 250.26 151.42 247.43 148.09 247.28 M 204.38 247.80 C 199.54 248.31 192.00 247.23 191.63 254.09 C 196.53 269.55 208.31 283.01 221.64 291.65 C 220.70 303.98 226.86 314.72 230.99 325.85 C 234.26 330.03 237.92 338.78 244.75 334.99 C 255.84 323.36 260.16 306.65 261.67 291.16 C 275.29 282.97 285.71 269.57 291.41 254.79 C 291.26 252.10 289.74 248.51 286.62 248.47 C 271.12 246.50 254.65 248.65 241.14 256.54 C 230.37 249.32 216.97 247.81 204.38 247.80 M 334.09 247.28 C 332.54 250.26 337.41 247.43 334.09 247.28 M 135.47 250.14 C 128.05 259.41 143.31 251.59 135.47 250.14 M 345.06 250.08 C 345.96 259.63 353.79 251.41 345.06 250.08 M 123.33 252.27 C 117.97 258.64 129.33 253.58 123.33 252.27 M 166.31 252.23 C 161.28 257.41 172.48 253.10 166.31 252.23 M 314.84 252.00 C 314.73 258.72 321.56 251.92 314.84 252.00 M 357.89 251.96 C 357.56 259.73 364.90 252.80 357.89 251.96 M 153.36 258.49 C 144.10 262.64 159.60 263.50 153.36 258.49 M 328.87 258.39 C 325.32 265.85 338.69 260.31 328.87 258.39 M 170.32 264.47 C 162.75 270.48 175.46 267.05 170.32 264.47 M 311.93 264.23 C 309.42 269.88 320.00 268.03 311.93 264.23 M 125.11 266.23 C 121.09 270.48 130.43 267.88 125.11 266.23 M 357.17 266.21 C 353.52 270.35 362.65 268.05 357.17 266.21 M 112.84 267.52 C 109.45 274.30 121.17 265.92 112.84 267.52 M 366.56 267.39 C 369.34 274.62 373.87 265.71 366.56 267.39 M 141.55 269.53 C 131.83 270.99 124.91 279.21 122.40 288.39 C 104.67 319.91 87.07 351.63 66.00 381.09 C 107.05 375.57 148.74 379.19 189.90 378.01 C 212.92 371.21 200.89 338.92 219.95 328.21 C 220.28 321.16 216.92 314.41 213.00 308.85 C 206.49 305.60 194.65 315.98 206.40 317.65 C 204.89 320.58 192.17 320.16 191.98 326.68 C 197.56 329.72 205.47 321.47 210.14 326.89 C 202.84 330.64 191.26 329.08 188.00 338.11 C 189.75 344.42 197.48 337.13 202.11 339.92 C 197.00 344.48 187.45 343.57 185.31 351.37 C 179.14 360.91 204.35 354.00 197.07 361.37 C 175.76 363.46 152.42 362.97 133.82 374.87 C 127.30 370.80 143.17 367.66 142.82 363.19 C 127.03 360.03 108.89 366.99 94.31 364.38 C 100.57 349.66 114.49 338.28 119.67 323.04 C 116.82 320.76 104.43 332.63 104.96 324.98 C 124.57 314.94 136.15 294.77 148.13 277.04 C 158.79 274.33 138.46 293.89 152.25 292.43 C 159.59 293.42 163.52 286.18 169.26 283.32 C 170.18 288.75 158.40 292.51 164.25 296.53 C 173.98 298.38 177.70 286.98 184.98 283.09 C 187.55 289.92 174.47 292.62 176.47 299.41 C 181.88 300.98 187.24 290.84 190.63 291.76 C 187.15 304.03 206.60 293.45 200.74 286.48 C 196.91 281.79 192.88 271.51 184.98 275.05 C 170.38 280.76 156.46 267.80 141.55 269.53 M 336.54 269.60 C 323.54 270.65 311.11 280.22 298.02 275.07 C 290.02 271.34 286.25 281.90 282.26 286.49 C 276.40 293.45 295.85 304.03 292.37 291.76 C 295.78 290.90 301.09 300.89 306.57 299.45 C 308.61 292.56 295.37 289.79 298.07 283.27 C 305.29 286.90 309.58 299.24 319.36 296.25 C 323.59 291.82 312.92 288.75 313.74 283.32 C 320.15 287.17 325.78 295.31 334.49 291.87 C 339.76 288.27 325.14 273.46 335.37 277.58 C 346.69 295.85 359.57 314.97 378.41 325.63 C 376.91 331.97 366.52 320.73 363.33 323.04 C 368.50 338.58 383.20 349.77 388.86 365.11 C 372.61 365.36 356.31 360.33 340.16 363.10 C 339.72 367.68 355.71 370.75 349.18 374.87 C 330.53 362.95 307.26 363.19 285.93 361.36 C 278.77 353.88 304.02 360.68 297.70 351.37 C 295.44 343.65 286.16 344.16 280.88 339.97 C 285.49 337.08 293.25 344.43 295.00 338.11 C 291.73 329.09 280.18 330.60 272.86 326.92 C 277.13 321.22 285.50 330.02 291.00 326.66 C 290.01 320.31 280.40 320.76 275.86 317.97 C 279.10 317.36 285.53 313.84 280.05 311.13 C 268.93 300.93 260.65 321.19 264.26 329.39 C 282.02 340.64 270.30 371.57 293.07 378.01 C 334.29 378.78 375.89 376.12 417.04 381.10 C 395.60 351.85 378.60 319.77 360.56 288.41 C 357.95 277.75 348.06 267.87 336.54 269.60 M 116.24 280.18 C 111.41 285.45 121.09 281.97 116.24 280.18 M 365.62 280.25 C 364.70 286.45 371.35 280.80 365.62 280.25 M 103.34 284.17 C 98.77 289.72 111.07 284.16 103.34 284.17 M 377.09 284.01 C 377.30 290.78 384.65 283.12 377.09 284.01 M 203.64 294.68 C 199.60 297.93 195.53 301.24 192.15 305.18 C 194.99 313.46 206.07 305.59 211.28 303.05 C 204.32 303.32 206.62 294.65 203.64 294.68 M 277.27 294.27 C 279.60 299.71 275.90 301.57 271.72 303.06 C 276.81 305.43 287.89 312.66 290.86 305.18 C 286.78 301.22 282.81 295.54 277.27 294.27 M 143.28 295.36 C 137.21 299.74 133.99 307.39 127.92 312.04 C 124.60 314.19 123.91 321.23 129.34 319.64 C 139.67 316.26 147.45 306.99 153.01 297.94 C 150.25 295.92 146.69 294.78 143.28 295.36 M 335.00 295.58 C 333.19 296.01 331.49 296.85 329.99 297.94 C 336.31 307.00 344.91 320.03 357.23 319.43 C 359.54 313.46 351.95 309.90 349.16 305.84 C 344.85 301.96 342.36 292.96 335.00 295.58 M 94.50 299.12 C 94.30 304.21 99.50 297.39 94.50 299.12 M 386.31 299.20 C 386.05 304.29 391.30 297.12 386.31 299.20 M 156.70 300.28 C 152.43 305.77 147.52 310.84 143.32 316.31 C 149.99 326.44 178.36 298.13 156.70 300.28 M 322.33 300.49 C 308.95 302.86 334.33 325.49 339.68 316.32 C 333.94 311.27 330.39 300.46 322.33 300.49 M 183.38 302.32 C 168.82 306.77 183.62 329.60 193.84 317.55 C 191.96 312.39 189.44 303.13 183.38 302.32 M 297.42 302.33 C 293.53 304.79 293.55 310.24 290.14 313.30 C 285.90 319.40 297.01 323.66 300.89 319.05 C 308.87 315.94 306.40 301.09 297.42 302.33 M 172.43 303.30 C 167.14 308.10 164.40 315.33 157.64 318.62 C 150.55 322.01 154.67 333.99 161.88 333.72 C 169.88 330.50 177.96 327.67 186.77 327.94 C 188.50 319.25 170.59 323.64 174.33 314.01 C 174.26 310.54 177.91 303.20 172.43 303.30 M 309.34 303.25 C 303.87 306.97 313.00 316.13 306.78 319.65 C 303.41 322.23 294.87 321.79 296.19 327.90 C 303.13 329.17 310.48 328.83 316.84 332.29 C 325.73 338.91 334.34 322.58 324.80 318.20 C 317.72 315.38 315.60 305.66 309.34 303.25 M 102.49 308.42 C 94.10 311.19 105.52 313.07 102.49 308.42 M 379.73 308.18 C 380.28 315.33 387.67 309.05 379.73 308.18 M 88.48 314.35 C 81.44 318.30 91.23 317.66 88.48 314.35 M 393.74 314.01 C 394.53 320.45 400.38 315.86 393.74 314.01 M 132.46 321.39 C 117.97 328.39 113.50 347.15 104.06 359.26 C 119.55 355.51 139.48 363.58 152.08 351.63 C 145.73 345.70 127.46 353.37 120.25 349.37 C 121.25 340.48 138.39 326.47 132.46 321.39 M 348.22 321.18 C 350.39 331.81 360.19 339.56 362.95 350.14 C 352.85 351.60 338.60 347.07 330.83 351.59 C 343.42 363.57 363.15 355.53 378.60 359.61 C 369.57 346.86 364.46 325.99 348.22 321.18 M 142.33 322.28 C 136.12 328.82 132.05 338.29 126.99 346.01 C 136.07 344.22 146.31 346.30 154.66 343.91 C 159.89 337.95 154.11 332.87 147.35 333.49 C 151.35 329.02 150.58 319.93 142.33 322.28 M 340.04 322.41 C 332.09 320.71 332.03 329.10 335.56 333.41 C 333.87 335.84 326.55 333.47 326.14 337.88 C 327.78 351.82 346.48 342.63 355.98 346.03 C 350.63 338.62 347.09 327.36 340.04 322.41 M 78.20 331.31 C 76.12 336.30 83.29 331.05 78.20 331.31 M 403.32 331.31 C 401.63 336.32 408.40 331.04 403.32 331.31 M 176.68 333.48 C 170.41 335.35 158.11 337.08 159.44 345.57 C 167.06 345.44 174.54 343.72 181.93 342.02 C 185.50 336.74 184.51 329.65 176.68 333.48 M 299.45 333.05 C 296.51 347.31 314.78 343.96 323.57 345.57 C 324.32 334.98 306.83 333.84 299.45 333.05 M 80.50 342.12 C 80.30 347.21 85.50 340.39 80.50 342.12 M 400.31 342.20 C 400.05 347.29 405.30 340.12 400.31 342.20 M 173.76 347.48 C 165.57 349.75 150.66 350.46 149.51 360.65 C 158.04 363.81 169.32 357.45 178.68 356.88 C 182.63 351.84 183.16 342.86 173.76 347.48 M 214.21 347.00 C 214.42 354.74 223.76 344.85 214.21 347.00 M 264.21 347.00 C 264.41 354.74 273.76 344.85 264.21 347.00 M 301.80 346.65 C 299.24 363.27 323.77 360.45 333.44 360.64 C 330.75 348.91 312.35 348.02 301.80 346.65 M 225.22 356.22 C 223.27 363.19 232.19 354.27 225.22 356.22 M 255.00 355.84 C 254.92 362.56 261.72 355.73 255.00 355.84 M 239.59 358.36 C 228.46 364.26 228.76 382.14 241.15 386.71 C 255.70 383.71 254.46 358.26 239.59 358.36 M 70.17 359.17 C 69.15 363.80 74.80 358.15 70.17 359.17 M 411.17 359.17 C 410.15 363.80 415.80 358.15 411.17 359.17 M 58.22 362.22 C 56.27 369.19 65.19 360.27 58.22 362.22 M 422.00 361.84 C 421.92 368.56 428.72 361.73 422.00 361.84 M 211.25 364.08 C 210.02 373.41 221.78 361.95 211.25 364.08 M 267.30 364.10 C 266.70 373.13 277.55 362.28 267.30 364.10 M 58.17 375.17 C 57.15 379.80 62.80 374.15 58.17 375.17 M 221.40 375.15 C 220.58 379.14 225.38 374.30 221.40 375.15 M 260.16 375.16 C 259.25 379.16 264.16 374.24 260.16 375.16 M 423.17 375.17 C 422.15 379.80 427.79 374.15 423.17 375.17 M 47.17 379.17 C 46.15 383.80 51.80 378.15 47.17 379.17 M 434.17 379.17 C 433.15 383.80 438.79 378.15 434.17 379.17 M 210.24 383.19 C 206.21 390.11 221.73 382.14 210.24 383.19 M 269.29 383.16 C 265.80 389.62 280.60 382.78 269.29 383.16 M 143.05 384.16 C 142.53 391.24 151.22 382.61 143.05 384.16 M 337.27 384.13 C 332.88 389.54 345.50 384.76 337.27 384.13 M 106.20 385.31 C 104.12 390.30 111.29 385.05 106.20 385.31 M 192.31 385.19 C 192.03 390.76 197.78 383.11 192.31 385.19 M 288.31 385.19 C 288.03 390.76 293.78 383.11 288.31 385.19 M 375.32 385.31 C 373.63 390.32 380.40 385.04 375.32 385.31 M 86.19 385.93 C 82.79 389.96 91.38 386.98 86.19 385.93 M 159.09 386.28 C 157.55 389.26 162.42 386.43 159.09 386.28 M 175.02 386.01 C 175.64 391.76 182.88 384.24 175.02 386.01 M 304.02 386.01 C 304.64 391.76 311.88 384.24 304.02 386.01 M 323.09 386.28 C 321.54 389.26 326.41 386.43 323.09 386.28 M 395.31 386.32 C 395.04 391.40 400.32 384.63 395.31 386.32 M 66.13 388.13 C 63.10 391.64 70.77 389.26 66.13 388.13 M 416.13 388.13 C 413.09 391.64 420.77 389.26 416.13 388.13 M 96.09 393.28 C 94.55 396.26 99.42 393.43 96.09 393.28 M 113.31 393.19 C 113.03 398.76 118.78 391.11 113.31 393.19 M 132.20 393.31 C 127.61 398.85 139.92 393.33 132.20 393.31 M 203.24 393.17 C 199.47 399.08 212.52 393.06 203.24 393.17 M 221.10 392.99 C 220.96 399.20 228.69 392.37 221.10 392.99 M 259.47 393.30 C 254.85 398.09 267.10 393.21 259.47 393.30 M 277.24 393.17 C 273.47 399.08 286.52 393.06 277.24 393.17 M 349.09 393.18 C 345.52 398.06 356.93 394.45 349.09 393.18 M 367.31 393.19 C 367.03 398.76 372.78 391.11 367.31 393.19 M 386.09 393.28 C 384.54 396.26 389.41 393.43 386.09 393.28 M 76.20 394.01 C 75.73 401.17 84.30 392.40 76.20 394.01 M 150.20 394.31 C 148.12 399.30 155.29 394.05 150.20 394.31 M 166.19 394.17 C 164.96 401.69 174.82 391.84 166.19 394.17 M 185.28 394.21 C 183.92 401.95 193.30 391.20 185.28 394.21 M 294.10 393.66 C 295.01 401.25 301.73 393.13 294.10 393.66 M 313.05 393.87 C 313.27 401.32 321.38 392.86 313.05 393.87 M 331.32 394.31 C 329.63 399.32 336.40 394.04 331.32 394.31 M 403.20 394.01 C 402.73 401.17 411.30 392.40 403.20 394.01 M 57.16 396.16 C 56.25 400.16 61.16 395.24 57.16 396.16 M 239.03 396.01 C 240.53 402.00 248.11 393.93 239.03 396.01 M 424.40 396.15 C 423.58 400.14 428.38 395.30 424.40 396.15 Z" />
<path fill="#000000" opacity="1.00" d=" M 241.28 186.42 C 258.69 191.74 225.40 191.98 241.28 186.42 Z" />
<path fill="#000000" opacity="1.00" d=" M 219.39 251.26 C 226.68 251.88 233.27 255.83 240.39 257.40 C 248.57 257.84 257.25 249.83 264.69 252.05 C 259.43 256.81 248.47 256.79 241.73 261.39 C 236.34 256.36 218.00 257.51 219.39 251.26 Z" />
<path fill="#000000" opacity="1.00" d=" M 229.11 260.64 C 238.03 265.27 247.14 262.12 256.12 261.01 C 247.70 268.11 235.30 268.11 226.88 261.01 C 227.44 260.92 228.55 260.73 229.11 260.64 Z" />
<path fill="#000000" opacity="1.00" d=" M 228.57 268.56 C 237.50 270.44 246.27 270.16 255.21 268.49 C 248.10 275.98 233.32 274.92 228.57 268.56 Z" />
<path fill="#000000" opacity="1.00" d=" M 206.06 273.16 C 221.72 280.17 229.53 295.90 230.07 312.90 C 223.68 312.01 226.50 301.62 224.11 296.92 C 224.11 285.31 208.78 283.17 206.06 273.16 Z" />
<path fill="#000000" opacity="1.00" d=" M 224.78 273.24 C 235.05 275.90 241.93 286.99 238.26 297.26 C 236.77 287.46 230.43 280.67 224.78 273.24 Z" />
<path fill="#000000" opacity="1.00" d=" M 257.85 273.16 C 253.07 280.85 246.02 287.36 244.64 297.16 C 241.48 286.85 247.75 276.27 257.85 273.16 Z" />
<path fill="#000000" opacity="1.00" d=" M 275.49 273.47 C 279.48 275.51 269.22 282.06 266.73 284.66 C 255.81 290.02 260.63 306.14 253.72 312.76 C 251.23 297.29 261.05 281.32 275.49 273.47 Z" />
<path fill="#000000" opacity="1.00" d=" M 218.24 275.84 C 228.44 279.78 233.91 289.98 233.74 300.75 C 229.44 301.12 230.35 294.05 228.99 291.04 C 228.41 283.98 219.62 282.39 218.24 275.84 Z" />
<path fill="#000000" opacity="1.00" d=" M 236.02 275.91 C 249.34 274.66 245.42 276.51 241.85 285.40 C 239.79 283.11 239.14 278.26 236.02 275.91 Z" />
<path fill="#000000" opacity="1.00" d=" M 262.65 276.52 C 267.26 274.70 261.82 281.75 259.69 282.65 C 252.18 285.94 255.89 298.85 249.29 300.72 C 248.85 290.40 253.85 281.65 262.65 276.52 Z" />
<path fill="#000000" opacity="1.00" d=" M 161.19 320.29 C 163.50 320.76 165.47 326.21 166.79 329.25 C 162.69 329.20 157.76 323.90 161.19 320.29 Z" />
<path fill="#000000" opacity="1.00" d=" M 321.28 319.74 C 325.63 323.13 320.63 329.27 316.21 329.25 C 317.38 325.84 319.37 322.78 321.28 319.74 Z" />
</svg>
